<svg xmlns="http://www.w3.org/2000/svg" x="0px" y="0px" viewBox="0 0 100 125"><path d="M87.67,30.8l-15.02-9.45l0.88-3.67c0.67-2.82-1.08-5.66-3.89-6.33l-26.38-6.3h-0.03c-0.39-0.09-0.79-0.14-1.19-0.14  c-0.97,0-1.92,0.27-2.75,0.77v0.01h-0.01c-1.19,0.74-2.03,1.89-2.36,3.26l-0.78,3.27l-18.71,2.2c-1.39,0.16-2.64,0.86-3.51,1.96  c-0.75,0.94-1.14,2.08-1.14,3.26c0,0.21,0.02,0.41,0.04,0.62l3.256,27.742c-0.984,0.985-1.596,1.596-1.596,1.596  c-1.289,1.123-2.138,2.833-2.306,4.66c-0.006,0.073-0.03,0.329-0.03,0.329s-0.21,22.91,0,30.543  c0.017,0.622,0.074,1.355,0.646,2.402c1.247,2.282,3.909,2.325,4.81,2.325c0,0,0.491,0,0.979,0c0,1.234,0,4.248,0,4.248  c0,0.503,0.408,0.91,0.91,0.91h26.261c0.502,0,0.911-0.407,0.911-0.91c0,0,0-2.924,0-4.167c2.082,0.019,5.03-0.245,6.338-2.852  c0.337-0.672,0.522-1.378,0.565-2.1c0.027-0.143,0.062-0.321,0.062-0.321c0-0.002,0.601-11.398,0.601-11.398  c0.047-0.892,0.293-1.717,0.764-2.554l5.419,3.41c0.83,0.53,1.8,0.81,2.79,0.81c1.82,0,3.49-0.92,4.46-2.46l21.66-34.42  C90.86,35.59,90.12,32.34,87.67,30.8z M86.13,36.04L64.47,70.46c-0.29,0.45-0.77,0.7-1.27,0.7c-0.27,0-0.54-0.08-0.78-0.23  l-13.117-8.254l3.142-2.616c1.599-1.411,2.701-3.421,3.022-5.567c0.017-0.108,0.049-0.503,0.049-0.592  c0.034-3.311-1.868-6.132-4.773-7.272c1.138,1.377,1.797,3.168,1.777,5.127c0,0.088-0.032,0.483-0.048,0.592  c-0.322,2.146-1.423,4.156-3.023,5.567c-0.001,0.002-6.97,5.795-10.383,8.628c-0.733,4.569-3.03,9.334-6.628,12.195  c-3.581,2.848-8.801,2.738-13.046,1.703c-1.105-0.27-0.984-1.831-0.571-2.564c0.561-1.002,1.597-1.518,2.706-1.247  c0.458,0.12,2.789,0.399,3.697,0.415c1.965,0.035,4.295-0.143,5.757-1.628c2.422-2.46,4.022-6.256,4.337-9.269  c0.145-1.396,1.45-2.209,2.445-3.036c1.29-1.069,2.579-2.141,3.869-3.211c0.125-0.104,0.25-0.207,0.375-0.311  c1.676-1.391,5.394-4.479,5.577-4.63c0.562-0.467,1.048-1.403,1.146-2.267c0.093-2.281-1.523-4.756-3.942-4.984  c-1.087-0.103-2.071,0.462-2.338,0.596c0,0-16.818,8.463-22.393,11.269c-0.901,0.454-2.081,0.083-2.297-0.966  c-0.235-1.133,0.575-2.198,1.537-2.683c0.476-0.24,0.952-0.479,1.429-0.719L16.57,19.81c-0.01-0.06-0.02-0.12-0.02-0.18  c0.01-0.33,0.12-0.65,0.33-0.91c0.24-0.31,0.6-0.51,0.99-0.56l17.34-2.03l-7.73,32.38c-0.251,1.068-0.136,2.156,0.272,3.159  c1.128-0.567,2.255-1.135,3.383-1.702c-0.016-0.078-0.025-0.157-0.025-0.236c0-0.12,0.01-0.23,0.04-0.35l8.05-33.72l0.011-0.05  L40.59,9.82c0.09-0.39,0.33-0.71,0.67-0.92c0.24-0.14,0.5-0.22,0.78-0.22c0.11,0,0.23,0.01,0.34,0.04l26.38,6.29  c0.68,0.17,1.14,0.77,1.14,1.44c0,0.12-0.01,0.24-0.04,0.36l-0.58,2.42l-4.56-2.87c-0.84-0.53-1.8-0.81-2.8-0.81  c-0.39,0-0.78,0.04-1.16,0.13h-0.01c-1.37,0.31-2.53,1.14-3.28,2.32L40.232,45.388c0.367-0.185,0.734-0.37,1.101-0.554l0.271-0.137  c0.027-0.014,0.055-0.027,0.082-0.042c0.002,0,0.003-0.001,0.005-0.001c1.076-0.507,2.272-0.773,3.543-0.722  c0.12,0.005,0.234,0.021,0.352,0.032L60.66,20.01c0.21-0.33,0.54-0.57,0.93-0.66c0.11-0.02,0.22-0.03,0.33-0.03  c0.28,0,0.55,0.08,0.79,0.23l22.95,14.44c0.45,0.28,0.7,0.77,0.7,1.26C86.36,35.52,86.28,35.8,86.13,36.04z"/></svg>