<svg xmlns="http://www.w3.org/2000/svg" viewBox="0 0 612 990"><path d="M198.1 507c11.4 0 20.7-9.2 20.6-20.6V205.8c0-2.1 1.7-3.8 3.8-3.8H365c11.4 0 20.6-9.2 20.6-20.6s-9.2-20.6-20.6-20.6H222.5c-24.8 0-45 20.2-45 45v280.6c0 11.4 9.2 20.6 20.6 20.6z"/><path d="M227.4 566l-36.5 23.6c-1 .5-2 .4-2.6.2-.7-.2-1.7-.6-2.3-1.7l-140.3-243c-.7-1.1-.6-2.2-.4-2.9s.6-1.7 1.7-2.3l86.5-51.6c9.8-5.9 13-18.5 7.2-28.3-5.9-9.8-18.5-13-28.3-7.2l-86.2 51.4c-10.3 6-17.7 15.7-20.8 27.3-3.1 11.7-1.5 23.8 4.5 34.2l140.2 242.9c6 10.4 15.8 17.9 27.4 21 3.9 1.1 7.9 1.6 11.8 1.6 7.8 0 15.5-2 22.5-6l.5-.3 37.5-24.3c9.6-6.2 12.3-18.9 6.1-28.5-6.2-9.6-18.9-12.3-28.5-6.1zm379.2-245.3c-3.2-11.7-10.6-21.4-21-27.4L460.4 221c-6.8-3.9-14.5-6-22.4-6-16.1 0-31.1 8.6-39.1 22.5l-140.3 243c-6 10.4-7.6 22.6-4.5 34.2 3.2 11.7 10.6 21.4 21 27.4l125.3 72.3c6.8 3.9 14.5 6 22.4 6 16.1 0 31-8.7 39-22.5l140.3-243c6-10.4 7.6-22.6 4.5-34.2zm-40.3 13.6L426 577.3c-.7 1.4-2.2 1.9-3.3 1.9-.6 0-1.2-.2-1.8-.5l-125.2-72.3c-1.1-.6-1.5-1.6-1.7-2.3-.1-.7-.2-1.8.4-2.9l140.3-243c.7-1.4 2.2-1.9 3.3-1.9.6 0 1.2.1 1.7.5l125.2 72.3c1.1.6 1.5 1.6 1.7 2.3s.3 1.8-.3 2.9z"/></svg>