<svg id="Layer_2" data-name="Layer 2" xmlns="http://www.w3.org/2000/svg" viewBox="0 0 215 298"><defs><style>.cls-1{fill:#323135;}.cls-2{fill:#3a393d;}.cls-3{fill:#414044;}</style></defs><title>Card</title><rect class="cls-1" width="215" height="298" rx="6" ry="6"/><path class="cls-2" d="M12,9H204a3,3,0,0,1,3,3V252a25,25,0,0,1-25,25H34A25,25,0,0,1,9,252V12a3,3,0,0,1,3-3Z"/><rect class="cls-2" x="14" y="12" width="187" height="268"/><rect class="cls-3" x="17" y="35" width="181" height="131"/><rect class="cls-3" x="17" y="190" width="181" height="87"/><rect class="cls-3" x="17" y="15" width="181" height="17" rx="4.56" ry="4.56"/><rect class="cls-3" x="17" y="170" width="181" height="17" rx="5.27" ry="5.27"/><ellipse class="cls-2" cx="107.5" cy="279" rx="14.5" ry="6.3"/><ellipse class="cls-1" cx="107.5" cy="280" rx="11.5" ry="5"/><rect class="cls-1" x="90" y="280" width="35" height="8"/></svg>