<svg xmlns="http://www.w3.org/2000/svg" viewBox="0 0 215 298"><defs><style>.cls-1{fill:#323135;}.cls-2{fill:#3a393d;}.cls-3{fill:#414044;}</style></defs><rect width="215" height="298" class="cls-1" rx="6" ry="6"/><path d="M12 9h192a3 3 0 0 1 3 3v240a25 25 0 0 1-25 25H34a25 25 0 0 1-25-25V12a3 3 0 0 1 3-3z" class="cls-2"/><path d="M14 12h187v268H14z" class="cls-2"/><path d="M17 35h181v131H17zm0 155h181v87H17z" class="cls-3"/><rect width="181" height="17" x="17" y="15" class="cls-3" rx="4.6" ry="4.6"/><rect width="181" height="17" x="17" y="170" class="cls-3" rx="5.3" ry="5.3"/><ellipse cx="107.5" cy="279" class="cls-2" rx="14.5" ry="6.3"/><ellipse cx="107.5" cy="280" class="cls-1" rx="11.5" ry="5"/><path d="M90 280h35v8H90z" class="cls-1"/></svg>
