<svg xmlns="http://www.w3.org/2000/svg" viewBox="0 0 512 640" x="0px" y="0px"><path d="M361.58,42.09c-2.1-.2-4.2-0.4-6.4-0.5q-45.6.15-91.2,0.1c-7.7,0-50.2,0-98.6-.1-12.5.6-21.6,1.3-24.8,1.9-91.9,16.1-154,106.5-138.1,198.6,14.9,86.5,84.5,145.6,172.3,146.1,23.7,0.1,47.4-.3,71.1.3a27.76,27.76,0,0,1,15.4,5.3c24.4,19,48.2,38.9,72.6,57.9,8.4,6.5,17.7,12.4,27.4,16.2,18.1,7,33.5-.9,39.8-19.5a81.21,81.21,0,0,0,4.1-21.2c0.7-13.7.8-27.5,0.3-41.3-0.3-7.4,1.9-11.4,8.8-14.9,67.5-34.4,102.9-98.1,97.1-173.6C505.18,117.59,441,49.49,361.58,42.09Z"/></svg>