<svg xmlns="http://www.w3.org/2000/svg" viewBox="0 0 162.16 59.26"><path d="M.28,43.22c5.54,0,6.48-1.22,6.48-8.42V13.63c0-7.2-.94-8.42-6.48-8.42V2.61H25.62c16,0,23,9.72,23,21.6s-7.06,21.6-23,21.6H.28ZM18.71,33c0,7,.58,8.14,6.19,8.14h.58c7.7,0,10.87-7.34,10.87-16.92S33.18,7.29,25.48,7.29H18.71Z" transform="translate(-0.28 -0.88)"/><path d="M44.63,30A16,16,0,0,1,60.76,13.56c9.94,0,14.19,6.91,14.19,12.39a12.15,12.15,0,0,1-.5,3.46H56.51v.79c0,7.63,1.37,11.52,7.7,11.52a13.52,13.52,0,0,0,9.36-3.82l2.23,3.24a22,22,0,0,1-15.12,5.54C51,46.68,44.63,39.48,44.63,30Zm20-4.61a14.56,14.56,0,0,0,.14-2c0-4.1-1.37-5.69-3.6-5.69s-3.82,2.16-4.46,7.7Z" transform="translate(-0.28 -0.88)"/><path d="M71.35,30.77c0-10.73,7.56-17.21,17.5-17.21,6.12,0,11.38,2.66,11.38,7.34a4.65,4.65,0,0,1-5,4.68A4.43,4.43,0,0,1,90.93,21c0-2-.5-3.31-2.74-3.31-2.66,0-5,3.82-5,13,0,7.7,2.23,10.94,7.63,10.94a13.79,13.79,0,0,0,8.71-3.82l2.23,3.24a19.43,19.43,0,0,1-13.75,5.54C77.18,46.68,71.35,39.91,71.35,30.77Z" transform="translate(-0.28 -0.88)"/><path d="M110.47,32.49v2.38c0,7.2,1.08,8.42,4.75,8.42v2.52H93l1.77-2.52c3.31,0,4.39-1.22,4.39-8.42V13.56c0-7.2-.94-8.42-5.11-8.42V2.61L110.47.88V27.81l7.92-6c2-1.51,2.23-4.61-2.16-4.61V14.71h17.86L135,19a26.35,26.35,0,0,0-15,6l.26-.07,11.09,15.63c1.3,1.8,2.38,2.74,4.39,2.74v2.52H121.63l-9.15-14.91Z" transform="translate(-0.28 -0.88)"/><path d="M129.6,56.26c0-1.73,1.15-3.17,3.17-4,2.59-1,4.94-1.49,6.24-4.3l2-5L128,23c-1.94-3.89-4.31-5.7-6.83-5.7V14.71h21.46V17.3c-4,0-5,1.73-3.31,5l6,12,5.4-12c1.44-3.31.5-5-3.1-5V14.71h14.83V17.3c-2.88,0-4.9,1.58-6.62,5l-14.91,30c-3.24,6.41-5,7.85-7.42,7.85A3.87,3.87,0,0,1,129.6,56.26Z" transform="translate(-0.28 -0.88)"/></svg>