<svg xmlns="http://www.w3.org/2000/svg" xmlns:xlink="http://www.w3.org/1999/xlink" version="1.1" x="0px" y="0px" viewBox="0 0 100 125" xml:space="preserve"><style type="text/css">
	.st0{display:none;}
	.st1{display:inline;}
	.st2{fill:none;}
  g{fill: #fff;}
</style><g class="st0"><g class="st1"><polygon class="st2" points="47.4,54.4 24,48 24,75.2 47.4,83.7   "/><polygon class="st2" points="52.6,83.7 76,75.2 76,48 52.6,54.4   "/><path d="M81.2,44.6c0-0.4-0.1-0.7-0.3-1.1c0-0.1-0.1-0.1-0.1-0.1c-0.2-0.3-0.3-0.5-0.6-0.7c0,0,0-0.1-0.1-0.1    c-0.1-0.1-0.2-0.1-0.3-0.1c-0.1-0.1-0.3-0.2-0.4-0.3l-20-7.2v5.5L70,44.3l-20,5.5l-20-5.5l10.5-3.8V35l-20,7.2    c-0.2,0.1-0.3,0.2-0.4,0.3c-0.1,0.1-0.2,0.1-0.3,0.1c0,0,0,0.1-0.1,0.1c-0.2,0.2-0.4,0.4-0.6,0.7c0,0.1-0.1,0.1-0.1,0.1    c-0.2,0.3-0.2,0.7-0.3,1.1c0,0,0,0,0,0.1V77c0,1.1,0.7,2.1,1.7,2.4l28.7,10.4c0,0,0,0,0.1,0c0.3,0.1,0.6,0.1,0.8,0.1    s0.6-0.1,0.8-0.1c0,0,0,0,0.1,0l28.7-10.4c1-0.4,1.7-1.4,1.7-2.4L81.2,44.6C81.3,44.6,81.2,44.6,81.2,44.6z M24,48l23.4,6.4v29.2    L24,75.2V48z M76,75.2l-23.4,8.5V54.4L76,48V75.2z"/><path d="M47.4,37.7c0,1.4,1.2,2.6,2.6,2.6s2.6-1.2,2.6-2.6V26.4v-9.3l12.3,10.4c1.1,0.9,2.7,0.8,3.7-0.3c0.9-1.1,0.8-2.7-0.3-3.7    L51.8,9.6c-1-0.8-2.4-0.8-3.4,0L31.8,23.5c-1.1,0.9-1.3,2.6-0.3,3.7c0.5,0.6,1.3,0.9,2,0.9c0.6,0,1.2-0.2,1.7-0.6l12.3-10.3v9.1    V37.7z"/></g></g><g class="st0"><path class="st1" d="M90.5,50c0,4.8-1.8,9.3-5.2,12.7c-0.5,0.6-1.3,0.8-2,0.8c-0.7,0-1.4-0.3-2-0.8c-1.1-1.1-1.1-2.8,0-3.9   c2.3-2.4,3.6-5.5,3.6-8.8c0-6.9-5.6-12.6-12.6-12.6H51.8H41.4l7.1,7.1c1.1,1.1,1.1,2.9,0,3.9c-0.5,0.5-1.3,0.8-2,0.8   c-0.7,0-1.4-0.3-2-0.8L32.7,36.7c-0.1-0.1-0.2-0.3-0.3-0.4c-0.1-0.1-0.1-0.2-0.1-0.2c0-0.1-0.1-0.2-0.1-0.2c0-0.1-0.1-0.2-0.1-0.3   c0-0.1,0-0.1-0.1-0.2c-0.1-0.4-0.1-0.7,0-1.1c0,0,0-0.1,0-0.1c0-0.1,0.1-0.3,0.1-0.4c0-0.1,0.1-0.1,0.1-0.2   c0.1-0.1,0.1-0.2,0.2-0.3c0-0.1,0.1-0.1,0.2-0.2c0.1-0.1,0.1-0.1,0.2-0.2l11.9-11.9c1.1-1.1,2.9-1.1,3.9,0c1.1,1.1,1.1,2.9,0,3.9   l-7.1,7.1h10.4h20.5C82.4,31.9,90.5,40,90.5,50z M67.8,66.5c0-0.1,0.1-0.1,0.1-0.2c0.1-0.1,0.1-0.3,0.1-0.4c0,0,0-0.1,0-0.1   c0.1-0.4,0.1-0.7,0-1.1c0-0.1,0-0.1-0.1-0.2c0-0.1-0.1-0.2-0.1-0.3c0-0.1-0.1-0.2-0.2-0.3c0-0.1-0.1-0.1-0.1-0.2   c-0.1-0.2-0.2-0.3-0.4-0.4L55.4,51.5c-1.1-1.1-2.9-1.1-3.9,0c-1.1,1.1-1.1,2.9,0,3.9l7.1,7.1H48.2H27.7c-6.9,0-12.6-5.6-12.6-12.6   c0-3.3,1.3-6.4,3.6-8.8c1.1-1.1,1.1-2.9,0-3.9c-1.1-1.1-2.9-1.1-3.9,0c-3.4,3.4-5.2,7.9-5.2,12.7c0,10,8.1,18.2,18.2,18.2h20.5   h10.4l-7.1,7.1c-1.1,1.1-1.1,2.9,0,3.9c0.5,0.5,1.3,0.8,2,0.8s1.4-0.3,2-0.8l11.9-11.9c0.1-0.1,0.1-0.2,0.2-0.2   c0-0.1,0.1-0.1,0.1-0.2C67.7,66.8,67.8,66.7,67.8,66.5z"/></g><g class="st0"><path class="st1" d="M33.8,62.1c0.4,2.6,1.2,5,2.3,7.3c-1.9-0.7-3.7-1.6-5.4-2.8c-0.9,0.3-2.8,1-3.9,1.5c-4.3,1.8-7.4,3.1-9.3,0.9   c-1.8-2.2-0.1-4.6,2.7-8.7c0.7-1,1.7-2.5,2.2-3.4c-1.6-3.3-2.5-7.1-2.5-10.8c0-13.7,11.2-24.9,24.9-24.9c8.8,0,16.5,4.6,20.9,11.4   c-2-0.5-4.1-0.8-6.3-0.8c-0.5,0-0.9,0-1.4,0.1c-3.5-3.2-8.1-5.2-13.2-5.2c-10.7,0-19.4,8.7-19.4,19.4c0,3.2,0.8,6.4,2.3,9.2   c1.1,2-0.2,4.1-2.7,7.7c2.6-1.1,4.5-1.9,6.1-1.9c0.8,0,1.5,0.2,2.1,0.7C33.5,61.9,33.7,62,33.8,62.1z M81.8,71.4   c1.4,2.2,2,3.9,0.7,5.5c-1.3,1.6-3.3,1.4-5.6,0.5c-0.8-0.3-1.7-0.7-2.6-1c-0.9-0.4-2.2-0.9-3-1.2c-3.5,2.3-7.5,3.6-11.7,3.6   c-11.6,0-21-9.4-21-21s9.4-21,21-21s21,9.4,21,21c0,3.1-0.7,6.1-2,8.9c0.4,0.7,1.2,1.8,1.7,2.5C80.8,70,81.3,70.7,81.8,71.4z    M73.3,65.1c1.2-2.2,1.8-4.8,1.8-7.3c0-8.6-7-15.5-15.6-15.5S44,49.1,44,57.7c0,8.6,7,15.6,15.6,15.6c3.4,0,6.6-1.1,9.3-3.1   c1.5-1.1,3.3-0.7,5.8,0.3C73.1,68.2,72.4,66.7,73.3,65.1z"/></g><g class="st0"><g class="st1"><path d="M91.1,34.5c0-0.1,0-0.2,0-0.3c0-0.1,0-0.2-0.1-0.3c0-0.1,0-0.2-0.1-0.3c0-0.1-0.1-0.2-0.1-0.3c0-0.1-0.1-0.2-0.1-0.2    c-0.1-0.1-0.1-0.2-0.2-0.2c0,0-0.1-0.1-0.1-0.1c0,0,0,0-0.1-0.1c-0.1-0.1-0.1-0.1-0.2-0.2c-0.1-0.1-0.1-0.1-0.2-0.2    c-0.1-0.1-0.2-0.1-0.2-0.1c-0.1,0-0.2-0.1-0.2-0.1c-0.1,0-0.2-0.1-0.3-0.1C89.1,32,89,32,88.9,32c-0.1,0-0.2,0-0.2,0    c-0.1,0-0.2,0-0.3,0c0,0-0.1,0-0.1,0H41.3c0,0-0.1,0-0.1,0c-0.1,0-0.2,0-0.3,0c-0.1,0-0.2,0-0.2,0c-0.1,0-0.2,0.1-0.3,0.1    c-0.1,0-0.2,0.1-0.2,0.1c-0.1,0-0.2,0.1-0.2,0.1c-0.1,0-0.2,0.1-0.2,0.1c-0.1,0-0.1,0.1-0.2,0.2c-0.1,0.1-0.2,0.1-0.2,0.2    c0,0,0,0-0.1,0.1c0,0-0.1,0.1-0.1,0.1C39.1,33,39,33.1,39,33.2c0,0.1-0.1,0.2-0.1,0.2c0,0.1-0.1,0.2-0.1,0.3    c0,0.1-0.1,0.2-0.1,0.3c0,0.1,0,0.2-0.1,0.3c0,0.1,0,0.2,0,0.3c0,0.1,0,0.1,0,0.2v30.6c0,1.6,1.3,2.8,2.8,2.8h46.9    c1.6,0,2.8-1.3,2.8-2.8V34.7C91.1,34.6,91.1,34.6,91.1,34.5z M64.8,51.7L48.8,37.5h32.1L64.8,51.7z M44.1,62.5V40.9l18.8,16.6    c0,0,0.1,0.1,0.1,0.1c0.1,0,0.1,0.1,0.2,0.1c0.1,0.1,0.2,0.1,0.3,0.2c0.1,0,0.1,0.1,0.2,0.1c0.1,0,0.2,0.1,0.4,0.1    c0.1,0,0.1,0,0.2,0c0.2,0,0.4,0.1,0.5,0.1c0,0,0,0,0,0c0,0,0,0,0,0c0.2,0,0.4,0,0.5-0.1c0.1,0,0.1,0,0.2,0c0.1,0,0.2-0.1,0.4-0.1    c0.1,0,0.1-0.1,0.2-0.1c0.1-0.1,0.2-0.1,0.3-0.2c0.1,0,0.1-0.1,0.2-0.1c0,0,0.1-0.1,0.1-0.1l18.8-16.6v21.6H44.1z"/><path d="M30.7,31.9h-19c-1.6,0-2.8,1.3-2.8,2.8s1.3,2.8,2.8,2.8h19c1.6,0,2.8-1.3,2.8-2.8S32.3,31.9,30.7,31.9z"/><path d="M30.7,47.2H16.6c-1.6,0-2.8,1.3-2.8,2.8c0,1.6,1.3,2.8,2.8,2.8h14.1c1.6,0,2.8-1.3,2.8-2.8C33.5,48.4,32.3,47.2,30.7,47.2    z"/><path d="M30.7,62.5h-6.9c-1.6,0-2.8,1.3-2.8,2.8c0,1.6,1.3,2.8,2.8,2.8h6.9c1.6,0,2.8-1.3,2.8-2.8C33.5,63.8,32.3,62.5,30.7,62.5z    "/></g></g><g class="st0"><path class="st1" d="M85.9,48.5c0-0.1,0-0.2,0-0.3c0-0.1,0-0.2,0-0.3c0,0,0-0.1,0-0.1c0-0.1,0-0.1,0-0.2c0-0.1,0-0.2,0-0.3   c0-0.1,0-0.2-0.1-0.3c0-0.1-0.1-0.2-0.1-0.3c0-0.1-0.1-0.2-0.1-0.3c0-0.1-0.1-0.2-0.1-0.2c-0.1-0.1-0.1-0.2-0.2-0.2   c-0.1-0.1-0.1-0.2-0.2-0.2c-0.1-0.1-0.1-0.1-0.2-0.2c-0.1-0.1-0.1-0.1-0.2-0.2c-0.1-0.1-0.2-0.1-0.3-0.2c-0.1,0-0.1-0.1-0.1-0.1   c0,0-0.1,0-0.1,0c-0.1,0-0.2-0.1-0.3-0.1c-0.1,0-0.2-0.1-0.3-0.1c-0.1,0-0.2,0-0.3,0c-0.1,0-0.2,0-0.3,0c0,0-0.1,0-0.1,0H17   c0,0-0.1,0-0.1,0c-0.1,0-0.2,0-0.3,0c-0.1,0-0.2,0-0.3,0C16.2,45,16.1,45,16,45c-0.1,0-0.2,0.1-0.3,0.1c0,0-0.1,0-0.1,0   c-0.1,0-0.1,0.1-0.2,0.1c-0.1,0.1-0.2,0.1-0.3,0.2c-0.1,0.1-0.2,0.1-0.2,0.2s-0.1,0.1-0.2,0.2c-0.1,0.1-0.1,0.1-0.2,0.2   c-0.1,0.1-0.1,0.2-0.2,0.2c-0.1,0.1-0.1,0.2-0.1,0.3c0,0.1-0.1,0.2-0.1,0.3c0,0.1-0.1,0.2-0.1,0.3c0,0.1,0,0.2-0.1,0.3   c0,0.1,0,0.2,0,0.3c0,0.1,0,0.1,0,0.2c0,0,0,0.1,0,0.1c0,0.1,0,0.2,0,0.3c0,0.1,0,0.2,0,0.3c0,0.1,0.1,0.2,0.1,0.3   c0,0.1,0.1,0.2,0.1,0.3c0,0,0,0.1,0,0.1l13.6,27.3c0.5,1,1.5,1.7,2.7,1.7h18.8c0.2,0,0.4,0,0.6-0.1c0.2,0,0.4,0.1,0.6,0.1h18.8   c1.1,0,2.2-0.6,2.7-1.7l13.6-27.3c0,0,0-0.1,0-0.1c0-0.1,0.1-0.2,0.1-0.3C85.9,48.7,85.9,48.6,85.9,48.5z M67.6,72.1h-17   c-0.2,0-0.4,0-0.6,0.1c-0.2,0-0.4-0.1-0.6-0.1h-17L21.8,50.8h56.4L67.6,72.1z M36.1,35.7c0-7.6,6.2-13.9,13.9-13.9   s13.9,6.2,13.9,13.9c0,1.7-1.3,3-3,3s-3-1.3-3-3c0-4.3-3.5-7.9-7.9-7.9s-7.9,3.5-7.9,7.9c0,1.7-1.3,3-3,3S36.1,37.4,36.1,35.7z"/></g><g class="st0"><g class="st1"><circle class="st2" cx="35.4" cy="22" r="7.4"/><circle class="st2" cx="64.6" cy="22" r="7.4"/><path class="st2" d="M64.6,45.7c-6.5,0-11.8,5.3-11.8,11.8c0,1.5-1.3,2.8-2.8,2.8c-1.5,0-2.8-1.3-2.8-2.8    c0-6.5-5.3-11.8-11.8-11.8S23.5,51,23.5,57.5v0.3c0,9.6,18,21.6,26.4,26.2c8.4-4.7,26.5-16.6,26.5-26.2v-0.3    C76.5,51,71.1,45.7,64.6,45.7z M47,68.7c-0.4,1.1-1.5,1.8-2.6,1.8c-0.3,0-0.7-0.1-1-0.2c-6.7-2.7-11-9.1-11-16.3    c0-1.5,1.3-2.8,2.8-2.8S38,52.5,38,54c0,4.9,3,9.3,7.5,11.1C46.9,65.7,47.6,67.3,47,68.7z M56.6,70.3c-0.3,0.1-0.7,0.2-1,0.2    c-1.1,0-2.2-0.7-2.6-1.8c-0.6-1.4,0.1-3.1,1.6-3.6c4.6-1.8,7.5-6.2,7.5-11.1c0-1.5,1.3-2.8,2.8-2.8c1.5,0,2.8,1.3,2.8,2.8    C67.6,61.2,63.3,67.6,56.6,70.3z"/><path d="M35.4,35c7.2,0,13-5.8,13-13c0-7.2-5.8-13-13-13c-7.2,0-13,5.8-13,13C22.4,29.1,28.2,35,35.4,35z M35.4,14.6    c4.1,0,7.4,3.3,7.4,7.4s-3.3,7.4-7.4,7.4S28,26.1,28,22S31.3,14.6,35.4,14.6z"/><path d="M64.6,40.1c-6.1,0-11.5,3.2-14.6,8c-3.1-4.8-8.5-8-14.6-8c-9.6,0-17.4,7.8-17.4,17.4v0.3C18,64.5,23.3,72,33.7,80    c7.4,5.7,14.7,9.5,15,9.7c0.1,0.1,0.2,0.1,0.4,0.1c0.1,0,0.2,0.1,0.2,0.1C49.5,90,49.8,90,50,90c0,0,0,0,0,0c0,0,0,0,0,0    c0.2,0,0.5,0,0.7-0.1c0.1,0,0.2-0.1,0.2-0.1c0.1,0,0.2-0.1,0.4-0.1c0.3-0.2,7.6-4,15-9.7C76.7,72,82,64.5,82,57.8v-0.3    C82,47.9,74.2,40.1,64.6,40.1z M76.5,57.8c0,9.6-18,21.5-26.5,26.2c-8.4-4.7-26.4-16.6-26.4-26.2v-0.3c0-6.5,5.3-11.8,11.8-11.8    S47.2,51,47.2,57.5c0,1.5,1.3,2.8,2.8,2.8c1.5,0,2.8-1.3,2.8-2.8c0-6.5,5.3-11.8,11.8-11.8c6.5,0,11.8,5.3,11.8,11.8V57.8z"/><path d="M64.6,35c7.2,0,13-5.8,13-13c0-7.2-5.8-13-13-13c-7.2,0-13,5.8-13,13C51.6,29.1,57.5,35,64.6,35z M64.6,14.6    c4.1,0,7.4,3.3,7.4,7.4s-3.3,7.4-7.4,7.4s-7.4-3.3-7.4-7.4S60.5,14.6,64.6,14.6z"/><path d="M45.5,65.1C40.9,63.3,38,58.9,38,54c0-1.5-1.3-2.8-2.8-2.8s-2.8,1.3-2.8,2.8c0,7.2,4.3,13.6,11,16.3    c0.3,0.1,0.7,0.2,1,0.2c1.1,0,2.2-0.7,2.6-1.8C47.6,67.3,46.9,65.7,45.5,65.1z"/><path d="M64.8,51.2c-1.5,0-2.8,1.3-2.8,2.8c0,4.9-3,9.3-7.5,11.1c-1.4,0.6-2.1,2.2-1.6,3.6c0.4,1.1,1.5,1.8,2.6,1.8    c0.3,0,0.7-0.1,1-0.2c6.7-2.7,11-9.1,11-16.3C67.6,52.5,66.4,51.2,64.8,51.2z"/></g></g><g class="st0"><path class="st1" d="M69.4,41H20.2c-1.7,0-3,1.3-3,3v10.8C17.2,74.9,27,86,44.8,86c17.8,0,27.6-11.1,27.6-31.2V44   C72.4,42.3,71,41,69.4,41z M66.4,54.8c0,16.7-7.3,25.2-21.6,25.2s-21.6-8.5-21.6-25.2V47h43.2V54.8z M86.8,49.8   c0,4.8-3.9,8.8-8.8,8.8c-1.7,0-3-1.3-3-3s1.3-3,3-3c1.5,0,2.8-1.2,2.8-2.8c0-1.5-1.2-2.8-2.8-2.8c-1.7,0-3-1.3-3-3s1.3-3,3-3   C82.9,41,86.8,44.9,86.8,49.8z M41.8,34.6V17c0-1.7,1.3-3,3-3s3,1.3,3,3v17.6c0,1.7-1.3,3-3,3S41.8,36.2,41.8,34.6z M52,34.6V24.3   c0-1.7,1.3-3,3-3s3,1.3,3,3v10.3c0,1.7-1.3,3-3,3S52,36.2,52,34.6z M31.5,34.6V21.7c0-1.7,1.3-3,3-3s3,1.3,3,3v12.9   c0,1.7-1.3,3-3,3S31.5,36.2,31.5,34.6z"/></g><g class="st0"><g class="st1"><path d="M39.3,26.6h21.4c1.7,0,3.1-1.4,3.1-3.1s-1.4-3.1-3.1-3.1H39.3c-1.7,0-3.1,1.4-3.1,3.1S37.6,26.6,39.3,26.6z"/><circle cx="50" cy="75.1" r="3.5"/><path d="M69,9H31c-3,0-5.5,2.5-5.5,5.5v70c0,3,2.5,5.5,5.5,5.5h38c3,0,5.5-2.5,5.5-5.5v-70C74.5,11.5,72,9,69,9z M68.3,83.8H31.7    V15.1h36.7V83.8z"/></g></g><g class="st0"><g class="st1"><path d="M31.9,49c5.9,0,10.6-4.8,10.6-10.6v-6.1c0-5.9-4.8-10.6-10.6-10.6c-5.9,0-10.6,4.8-10.6,10.6v6.1    C21.3,44.2,26.1,49,31.9,49z M27.1,32.3c0-2.6,2.1-4.8,4.8-4.8s4.8,2.1,4.8,4.8v6.1c0,2.6-2.2,4.8-4.8,4.8s-4.8-2.1-4.8-4.8V32.3z    "/><path d="M46.1,53.9H17.7c-5.8,0-10.4,4.7-10.4,10.4V75c0,1.9,1.5,3.4,3.4,3.4h42.6c1.9,0,3.4-1.5,3.4-3.4V64.3    C56.6,58.5,51.9,53.9,46.1,53.9z M50.7,72.5H13.1v-8.2c0-2.5,2.1-4.6,4.6-4.6h28.4c2.5,0,4.6,2.1,4.6,4.6V72.5z"/><path d="M89.8,21.6H61.2c-1.6,0-2.9,1.3-2.9,2.9v12.8L51.6,44c-0.8,0.8-1.1,2.1-0.6,3.2c0.5,1.1,1.5,1.8,2.7,1.8h36.2    c1.6,0,2.9-1.3,2.9-2.9V24.6C92.7,22.9,91.4,21.6,89.8,21.6z M86.9,43.2H60.7l2.6-2.6c0.5-0.5,0.9-1.3,0.9-2.1V27.5h22.8V43.2z"/></g></g><g class="st0"><path class="st1" d="M64.4,63.5H35.6c-5.2,0-9.3,4.2-9.3,9.3v9c0,1.9,1.5,3.4,3.4,3.4h40.8c1.9,0,3.4-1.5,3.4-3.4v-9   C73.8,67.7,69.6,63.5,64.4,63.5z M67.8,79.3H32.2v-6.4c0-1.8,1.5-3.3,3.3-3.3h28.9c1.8,0,3.3,1.5,3.3,3.3V79.3z M67.8,31.6h-3.4   v-3.3c0-7.5-6.1-13.5-13.5-13.5h-1.6c-7.5,0-13.5,6.1-13.5,13.5v3.3h-3.5c-3.3,0-6,2.7-6,6v9.3c0,3.3,2.7,6,6,6h6.5   c1.7,0,3-1.3,3-3V34.6v-6.3c0-4.1,3.4-7.5,7.5-7.5h1.6c4.1,0,7.5,3.4,7.5,7.5v6.3v15.3l0,1.6h-2.5c-0.5-1.4-1.8-2.4-3.3-2.4h-5   c-1.9,0-3.5,1.6-3.5,3.5V54c0,1.9,1.6,3.5,3.5,3.5h5h5.8c2.8,0,5.2-2,5.8-4.6h3.6c3.3,0,6-2.7,6-6v-9.3   C73.8,34.3,71.1,31.6,67.8,31.6z M32.2,37.6h3.5v9.3l-3.5,0L32.2,37.6z M64.4,46.9v-9.3l3.4,0l0,9.3H64.4z"/></g><g class="st0"><path class="st1" d="M75.2,34.6h-8.4v-7.5c0-1.7-1.3-3-3-3H36.1c-1.7,0-3,1.3-3,3v7.5h-8.4c-3.2,0-5.9,2.6-5.9,5.9V70   c0,3.2,2.6,5.9,5.9,5.9h50.5c3.2,0,5.9-2.6,5.9-5.9V40.5C81.1,37.2,78.5,34.6,75.2,34.6z M39.1,30.1h21.7v4.5H39.1V30.1z    M75.1,69.9H24.9V40.6h11.2h27.7h11.2V69.9z M63.9,44.8c1.7,0,3,1.3,3,3v7.6h1.6c1.7,0,3,1.3,3,3s-1.3,3-3,3h-1.6v1.2   c0,1.7-1.3,3-3,3s-3-1.3-3-3v-1.2h-1.6c-1.7,0-3-1.3-3-3s1.3-3,3-3h1.6v-7.6C60.9,46.2,62.2,44.8,63.9,44.8z M43.7,58.4   c0,1.7-1.3,3-3,3h-1.6v1.2c0,1.7-1.3,3-3,3s-3-1.3-3-3v-1.2h-1.6c-1.7,0-3-1.3-3-3s1.3-3,3-3h1.6v-7.6c0-1.7,1.3-3,3-3s3,1.3,3,3   v7.6h1.6C42.4,55.4,43.7,56.8,43.7,58.4z"/></g><g class="st0"><path class="st1" d="M13.9,28c0,2.6,2.1,4.7,4.7,4.7c1.7,0,3,1.3,3,3s-1.3,3-3,3c-5.9,0-10.7-4.8-10.7-10.7s4.8-10.7,10.7-10.7   c1.7,0,3,1.3,3,3s-1.3,3-3,3C16.1,23.2,13.9,25.4,13.9,28z M81.3,17.2c-1.7,0-3,1.3-3,3s1.3,3,3,3c2.6,0,4.7,2.1,4.7,4.7   s-2.1,4.7-4.7,4.7c-1.7,0-3,1.3-3,3s1.3,3,3,3c5.9,0,10.7-4.8,10.7-10.7S87.2,17.2,81.3,17.2z M73.8,20.2V35   c0,13.1-10.7,23.8-23.8,23.8S26.2,48.1,26.2,35V20.2c0-1.7,1.3-3,3-3h41.6C72.4,17.2,73.8,18.6,73.8,20.2z M67.8,35V23.2H32.2V35   c0,9.8,8,17.8,17.8,17.8S67.8,44.8,67.8,35z M70.8,76.8H53V66.3c0-1.7-1.3-3-3-3c-1.7,0-3,1.3-3,3v10.4H29.2c-1.7,0-3,1.3-3,3   s1.3,3,3,3h41.6c1.7,0,3-1.3,3-3S72.4,76.8,70.8,76.8z"/></g><g class="st0"><path class="st1" d="M30.3,53.3c-5.2,0-9.4,4.2-9.4,9.4c0,5.2,4.2,9.4,9.4,9.4s9.4-4.2,9.4-9.4C39.8,57.6,35.5,53.3,30.3,53.3z    M30.3,66.6c-2.1,0-3.9-1.7-3.9-3.9s1.7-3.9,3.9-3.9s3.9,1.7,3.9,3.9S32.5,66.6,30.3,66.6z M69.7,53.3c-5.2,0-9.4,4.2-9.4,9.4   c0,5.2,4.2,9.4,9.4,9.4c5.2,0,9.4-4.2,9.4-9.4C79.2,57.6,74.9,53.3,69.7,53.3z M69.7,66.6c-2.1,0-3.9-1.7-3.9-3.9s1.7-3.9,3.9-3.9   s3.9,1.7,3.9,3.9S71.8,66.6,69.7,66.6z M91,43.9v18.9c0,1.5-1.3,2.8-2.8,2.8h-2.8c-1.5,0-2.8-1.3-2.8-2.8s1.3-2.8,2.8-2.8h0V46.7   H73.3c-0.7,0-1.5-0.3-2-0.8L58.5,33.1H50h-8.5L28.7,45.9c-0.5,0.5-1.2,0.8-2,0.8H14.6l0,13.3c1.5,0,2.8,1.3,2.8,2.8   s-1.3,2.8-2.8,2.8h-2.8c-1.5,0-2.8-1.3-2.8-2.8V43.9c0-1.5,1.3-2.8,2.8-2.8h13.8l12.7-12.7c0.5-0.5,1.2-0.8,2-0.8H50h9.7   c0.7,0,1.5,0.3,2,0.8l12.7,12.7h13.8C89.7,41.1,91,42.4,91,43.9z M56.7,62.8c0,1.5-1.3,2.8-2.8,2.8H46c-1.5,0-2.8-1.3-2.8-2.8   S44.5,60,46,60H54C55.5,60,56.7,61.2,56.7,62.8z"/></g><g class="st0"><path class="st1" d="M83,51.3L52.1,21.6c-0.1-0.1-0.1-0.1-0.2-0.1c-0.1-0.1-0.2-0.1-0.3-0.2c-0.1-0.1-0.2-0.1-0.2-0.1   c-0.1,0-0.2-0.1-0.3-0.1c-0.1,0-0.2-0.1-0.3-0.1c-0.1,0-0.2-0.1-0.3-0.1c-0.1,0-0.2,0-0.3,0c-0.1,0-0.2,0-0.3,0c-0.1,0-0.2,0-0.3,0   c-0.1,0-0.2,0-0.3,0c-0.1,0-0.2,0-0.3,0.1c-0.1,0-0.2,0.1-0.3,0.1c-0.1,0-0.2,0.1-0.3,0.1c-0.1,0-0.2,0.1-0.3,0.1   c-0.1,0.1-0.2,0.1-0.2,0.2c-0.1,0.1-0.1,0.1-0.2,0.1L17,51.3c-0.9,0.8-1.2,2.1-0.7,3.3c0.5,1.1,1.6,1.9,2.8,1.9h5.7v19.8   c0,1.7,1.3,3,3,3h13.3c1.7,0,3-1.3,3-3V64.9h11.8v11.3c0,1.7,1.3,3,3,3h13.3c1.7,0,3-1.3,3-3V56.4h5.7c1.2,0,2.3-0.7,2.8-1.9   C84.2,53.4,83.9,52.1,83,51.3z M72.2,50.4c-1.7,0-3,1.3-3,3v19.8h-7.3V61.9c0-1.7-1.3-3-3-3H41.1c-1.7,0-3,1.3-3,3v11.3h-7.3V53.4   c0-1.7-1.3-3-3-3h-1.3L50,27.9l23.5,22.6H72.2z"/></g><g class="st0"><g class="st1"><path d="M50,49c5.9,0,10.6-4.8,10.6-10.6v-6.1c0-5.9-4.8-10.6-10.6-10.6c-5.9,0-10.6,4.8-10.6,10.6v6.1C39.4,44.2,44.1,49,50,49z     M45.2,32.3c0-2.6,2.1-4.8,4.8-4.8c2.6,0,4.8,2.1,4.8,4.8v6.1c0,2.6-2.2,4.8-4.8,4.8c-2.6,0-4.8-2.1-4.8-4.8V32.3z"/><path d="M64.2,53.9H35.8c-5.8,0-10.4,4.7-10.4,10.4V75c0,1.9,1.5,3.4,3.4,3.4h42.6c1.9,0,3.4-1.5,3.4-3.4V64.3    C74.6,58.5,70,53.9,64.2,53.9z M68.8,72.5H31.2v-8.2c0-2.5,2.1-4.6,4.6-4.6h28.4c2.5,0,4.6,2.1,4.6,4.6V72.5z"/></g></g><g class="st0"><path class="st1" d="M84,66.3c0,1.5-1.2,2.6-2.6,2.6h-6.8v6.8c0,1.5-1.2,2.6-2.6,2.6s-2.6-1.2-2.6-2.6v-6.8h-6.8   c-1.5,0-2.6-1.2-2.6-2.6s1.2-2.6,2.6-2.6h6.8v-6.8c0-1.5,1.2-2.6,2.6-2.6s2.6,1.2,2.6,2.6v6.8h6.8C82.8,63.6,84,64.8,84,66.3z    M39.6,38.3v-6.2c0-5.7,4.7-10.4,10.4-10.4s10.4,4.7,10.4,10.4v6.2c0,5.7-4.7,10.4-10.4,10.4S39.6,44,39.6,38.3z M44.9,38.3   c0,2.8,2.3,5.1,5.1,5.1c2.8,0,5.1-2.3,5.1-5.1v-6.2c0-2.8-2.3-5.1-5.1-5.1c-2.8,0-5.1,2.3-5.1,5.1V38.3z M62.5,73H30.7v-8.6   c0-2.7,2.2-5,5-5h26.9c1.5,0,2.6-1.2,2.6-2.6c0-1.5-1.2-2.6-2.6-2.6H35.7c-5.6,0-10.2,4.6-10.2,10.2v10.8c0,1.7,1.4,3.1,3.1,3.1h34   c1.5,0,2.6-1.2,2.6-2.6C65.2,74.2,64,73,62.5,73z"/></g><g class="st0"><path class="st1" d="M73.4,36.4h-5.8c1.6-1.9,2.5-4.3,2.5-6.8c0-2.8-1.1-5.4-3.1-7.4c-2-2-4.6-3.1-7.4-3.1s-5.4,1.1-7.4,3.1v0   c-1,1-1.8,2.3-2.4,3.7c-0.7-1.5-1.4-2.8-2.4-3.7c-4.1-4.1-10.7-4.1-14.7,0c-3.9,3.9-4,10-0.5,14.1h-5.8c-1.7,0-3,1.3-3,3v38.4   c0,1.7,1.3,3,3,3h46.9c1.7,0,3-1.3,3-3V39.4C76.4,37.7,75.1,36.4,73.4,36.4z M56.7,26.5L56.7,26.5c0.8-0.8,1.9-1.3,3.1-1.3   s2.3,0.5,3.1,1.3c0.8,0.8,1.3,1.9,1.3,3.1s-0.5,2.3-1.3,3.1c-1.9,1.9-4.3,3.6-8.7,3.6h-0.8C54,32.4,55.1,28,56.7,26.5z M37.1,32.7   c-1.7-1.7-1.7-4.5,0-6.2c0.9-0.9,2-1.3,3.1-1.3s2.3,0.4,3.1,1.3c1.5,1.5,2.7,6,3.3,9.9h-0.8C41.4,36.4,39,34.6,37.1,32.7z    M29.6,42.4h16.2H47v32.4H29.6V42.4z M70.4,74.8H53V42.4h1.2h16.2V74.8z"/></g><g class="st0"><path class="st1" d="M52.3,26.1c0,1.7-1.3,3-3,3c-3.2,0-5.8,2.6-5.8,5.8c0,1.7-1.3,3-3,3s-3-1.3-3-3c0-6.5,5.3-11.8,11.8-11.8   C50.9,23.1,52.3,24.5,52.3,26.1z M74.9,35.7c0,13.7-11.2,24.9-24.9,24.9c-13.7,0-24.9-11.2-24.9-24.9S36.3,10.8,50,10.8   C63.7,10.8,74.9,21.9,74.9,35.7z M68.9,35.7c0-10.4-8.5-18.9-18.9-18.9c-10.4,0-18.9,8.5-18.9,18.9S39.6,54.5,50,54.5   C60.4,54.5,68.9,46.1,68.9,35.7z M62.9,63.6c-1.7,0-3,1.3-3,3v13.6l-8-6.1c0,0-0.1-0.1-0.2-0.1c-0.1-0.1-0.2-0.1-0.3-0.2   c-0.1,0-0.2-0.1-0.3-0.1c-0.1,0-0.2-0.1-0.3-0.1c-0.1,0-0.2,0-0.3-0.1c-0.1,0-0.2,0-0.3,0c-0.1,0-0.2,0-0.3,0c-0.1,0-0.2,0-0.3,0   c-0.1,0-0.2,0-0.3,0c-0.1,0-0.2,0-0.3,0.1c-0.1,0-0.2,0.1-0.3,0.1c-0.1,0-0.2,0.1-0.3,0.1c-0.1,0-0.2,0.1-0.3,0.2   c-0.1,0-0.1,0.1-0.2,0.1l-8,6.1V66.6c0-1.7-1.3-3-3-3s-3,1.3-3,3v19.6c0,0,0,0.1,0,0.1c0,0.1,0,0.2,0,0.3c0,0.1,0,0.2,0,0.3   c0,0.1,0.1,0.2,0.1,0.3c0,0.1,0.1,0.2,0.1,0.3c0,0.1,0.1,0.2,0.1,0.2c0.1,0.1,0.1,0.2,0.2,0.3c0,0,0,0,0,0.1c0,0,0.1,0.1,0.1,0.1   c0.1,0.1,0.2,0.2,0.3,0.3c0.1,0.1,0.1,0.1,0.2,0.2c0.1,0.1,0.2,0.2,0.4,0.2c0.1,0,0.1,0.1,0.2,0.1c0.1,0.1,0.3,0.1,0.4,0.2   c0.1,0,0.1,0,0.2,0c0.2,0,0.4,0.1,0.6,0.1c0,0,0,0,0,0c0,0,0,0,0,0c0.2,0,0.4,0,0.5-0.1c0.1,0,0.1,0,0.2,0c0.1,0,0.2-0.1,0.4-0.1   c0.1,0,0.1-0.1,0.2-0.1c0.1,0,0.2-0.1,0.3-0.2c0.1,0,0.1-0.1,0.2-0.1c0,0,0.1,0,0.1-0.1l11-8.4l11,8.4c0,0,0.1,0,0.1,0.1   c0.1,0,0.1,0.1,0.2,0.1c0.1,0.1,0.2,0.1,0.3,0.2c0.1,0,0.1,0.1,0.2,0.1c0.1,0,0.2,0.1,0.3,0.1c0.1,0,0.1,0,0.2,0   c0.2,0,0.4,0.1,0.5,0.1c0,0,0,0,0,0c0,0,0,0,0,0c0.2,0,0.4,0,0.6-0.1c0.1,0,0.1,0,0.2,0c0.2,0,0.3-0.1,0.4-0.2   c0.1,0,0.1-0.1,0.2-0.1c0.1-0.1,0.2-0.1,0.4-0.2c0.1,0,0.1-0.1,0.2-0.2c0.1-0.1,0.2-0.2,0.3-0.3c0,0,0.1-0.1,0.1-0.1c0,0,0,0,0-0.1   c0.1-0.1,0.1-0.2,0.2-0.3c0-0.1,0.1-0.2,0.1-0.2c0-0.1,0.1-0.2,0.1-0.3c0-0.1,0.1-0.2,0.1-0.3c0-0.1,0-0.2,0-0.3c0-0.1,0-0.2,0-0.3   c0,0,0-0.1,0-0.1V66.6C65.9,65,64.5,63.6,62.9,63.6z"/></g><g class="st0"><g class="st1"><path d="M74.1,21.8H63.2V17c0-1.7-1.3-3-3-3s-3,1.3-3,3v4.8H42.8V17c0-1.7-1.3-3-3-3s-3,1.3-3,3v4.8H25.9c-1.7,0-3,1.3-3,3V83    c0,1.7,1.3,3,3,3h48.2c1.7,0,3-1.3,3-3V24.8C77.1,23.2,75.7,21.8,74.1,21.8z M71.1,80H28.9V27.8h7.9v4.8c0,1.7,1.3,3,3,3    s3-1.3,3-3v-4.8h14.3v4.8c0,1.7,1.3,3,3,3s3-1.3,3-3v-4.8h7.9V80z"/><path d="M60.1,43.8H39.9c-1.7,0-3,1.3-3,3s1.3,3,3,3h20.3c1.7,0,3-1.3,3-3S61.8,43.8,60.1,43.8z"/><path d="M60.1,55H39.9c-1.7,0-3,1.3-3,3s1.3,3,3,3h20.3c1.7,0,3-1.3,3-3S61.8,55,60.1,55z"/><path d="M60.1,66.2H39.9c-1.7,0-3,1.3-3,3s1.3,3,3,3h20.3c1.7,0,3-1.3,3-3S61.8,66.2,60.1,66.2z"/></g></g><g><path d="M65.5,62.8c1.1,1.2,1,3.1-0.2,4.2c-4.2,3.8-9.6,5.8-15.2,5.8c-0.5,0-0.9,0-1.4,0c-6.1-0.4-11.7-3.1-15.8-7.7   c-3.1-3.5-5-7.8-5.6-12.3l-1.8,1.4c-0.6,0.4-1.2,0.6-1.9,0.6c-0.9,0-1.8-0.4-2.4-1.1c-1-1.3-0.8-3.2,0.5-4.2l6.7-5.3c0,0,0,0,0.1,0   c0.1,0,0.1-0.1,0.2-0.1c0.1-0.1,0.2-0.1,0.3-0.2c0.1,0,0.1-0.1,0.2-0.1c0.1,0,0.2-0.1,0.3-0.1c0.1,0,0.1,0,0.2-0.1   c0.2,0,0.3-0.1,0.5-0.1c0,0,0.1,0,0.1,0c0.2,0,0.3,0,0.5,0c0,0,0,0,0.1,0c0,0,0.1,0,0.1,0c0.1,0,0.2,0.1,0.4,0.1   c0.1,0,0.1,0,0.2,0.1c0.1,0,0.2,0.1,0.3,0.2c0.1,0,0.1,0.1,0.2,0.1c0,0,0,0,0,0l6.8,4.6c1.4,0.9,1.7,2.8,0.8,4.2   c-0.9,1.4-2.8,1.7-4.2,0.8l-2.2-1.5c0.4,3.3,1.8,6.4,4.1,8.9c3,3.4,7.1,5.4,11.7,5.7c4.5,0.3,8.9-1.2,12.2-4.2   C62.5,61.4,64.4,61.5,65.5,62.8z M78.8,45.9c-1-1.3-2.9-1.5-4.2-0.5l-1.8,1.4c-0.6-4.5-2.5-8.8-5.6-12.3   c-8.4-9.5-22.9-10.3-32.4-1.9c-1.2,1.1-1.4,3-0.2,4.2c1.1,1.2,3,1.3,4.2,0.2c7-6.2,17.7-5.6,23.9,1.4c2.3,2.5,3.7,5.7,4.1,8.9   l-2.2-1.5c-1.4-0.9-3.2-0.6-4.2,0.8c-0.9,1.4-0.6,3.2,0.8,4.2l6.8,4.6c0,0,0,0,0,0c0,0,0.1,0.1,0.1,0.1c0.1,0.1,0.2,0.1,0.3,0.2   c0.1,0,0.1,0,0.2,0.1c0.1,0.1,0.3,0.1,0.4,0.1c0,0,0,0,0.1,0c0,0,0,0,0,0c0.2,0,0.3,0,0.5,0c0,0,0,0,0,0s0,0,0,0c0,0,0,0,0,0   c0.2,0,0.3,0,0.5,0c0.1,0,0.1,0,0.2-0.1c0.1,0,0.2,0,0.3-0.1c0.1,0,0.1-0.1,0.2-0.1c0.1,0,0.2-0.1,0.3-0.1c0.1,0,0.1-0.1,0.2-0.1   c0.1,0,0.1-0.1,0.2-0.1l6.7-5.3C79.6,49.1,79.8,47.2,78.8,45.9z"/></g></svg>
