<svg xmlns="http://www.w3.org/2000/svg" xmlns:xlink="http://www.w3.org/1999/xlink" version="1.1" x="0px" y="0px" viewBox="0 0 100 125" style="enable-background:new 0 0 100 100;" xml:space="preserve"><style type="text/css">
  .st0{fill:none;stroke:#f7f7f7;stroke-width:4;stroke-linecap:round;stroke-linejoin:round;stroke-miterlimit:10;}
</style><path class="st0" d="M43.2,34.9c0,6.2-5,11.3-11.3,11.3"/><path class="st0" d="M54.5,46.1c-6.2,0-11.3-5-11.3-11.3"/><path class="st0" d="M43.2,57.4c0-6.2,5-11.3,11.3-11.3"/><path class="st0" d="M32,46.1c6.2,0,11.3,5,11.3,11.3"/><path class="st0" d="M61.3,50.6c0,3.7-3,6.8-6.8,6.8"/><path class="st0" d="M68,57.4c-3.7,0-6.8-3-6.8-6.8"/><path class="st0" d="M61.3,64.1c0-3.7,3-6.8,6.8-6.8"/><path class="st0" d="M54.5,57.4c3.7,0,6.8,3,6.8,6.8"/></svg>
