<svg xmlns="http://www.w3.org/2000/svg" x="0px" y="0px" viewBox="0 0 100 125"><path d="M80.7,16.1l-47.1-5.7h0c-2.8-0.3-5.5,0.2-7.7,1.4c-2.4,1.3-3.9,3.4-4.2,5.8l-1.3,10.8c-1.8,1.5-2.9,3.5-2.9,5.8v13.1v19.9   v13.1c0,0.1,0,0.2,0,0.3c0,0.2,0,0.4,0,0.6c0,2.4,1.3,4.6,3.5,6.2c2,1.5,4.6,2.2,7.4,2.2c0,0,0.1,0,0.1,0l42.1-0.3c0,0,0,0,0,0   c0,0,0,0,0,0l5.2,0c0.5,0,1-0.2,1.4-0.6c0.4-0.4,0.6-0.9,0.6-1.4l-0.1-13c0,0,0-0.1,0-0.1c0-0.1,0.1-0.3,0.1-0.4v-0.1v-13V56   l0.6-4.8l4-32.8c0.1-0.5-0.1-1.1-0.4-1.5C81.7,16.4,81.2,16.1,80.7,16.1z M21.6,57.9c0.8,0.6,1.7,1.1,2.8,1.5   c-0.1,0-0.2,0.1-0.3,0.1c-0.2,0.1-0.4,0.1-0.6,0.2c-0.1,0-0.2,0.1-0.3,0.1c-0.2,0.1-0.4,0.2-0.6,0.3c-0.1,0-0.1,0.1-0.2,0.1   c-0.3,0.1-0.5,0.3-0.8,0.4V57.9z M28,47.1c0.4,0,0.8,0,1.2,0.1L69.1,52L68,61l-39.9-4.8c-3.7-0.5-6.6-2.9-6.4-5.3   C22,48.7,24.7,47.1,28,47.1z M72.6,71.7v-6.2l1.2,0.1v6H72.6z M73.2,61.6l-1.2-0.1l1.1-9l1.2,0.1L73.2,61.6z M28.5,62.7h20.4   l19.8,2.4v6.7H28.5c-3.8,0-6.9-2.1-6.9-4.5S24.7,62.7,28.5,62.7z M23.4,84.2c-0.7-0.5-1.8-1.5-1.8-3c0-2.5,3.2-4.5,6.9-4.6   l40.1-0.3l0.1,9l-40.1,0.3C26.6,85.7,24.7,85.2,23.4,84.2z M72.7,85.4l-0.1-9l1.2,0l0.1,9L72.7,85.4z M74.7,48.6l-3.2-0.4   c0,0,0,0,0,0s0,0,0,0l-41.8-5c-0.3,0-0.7-0.1-1-0.1c-0.1,0-0.2,0-0.3,0c-0.1,0-0.3,0-0.4,0c-0.1,0-0.1,0-0.2,0   c-0.4,0-0.8,0-1.2,0.1c-0.1,0-0.1,0-0.2,0c-0.4,0-0.9,0.1-1.3,0.2c-0.1,0-0.2,0-0.3,0.1c-0.3,0.1-0.6,0.2-1,0.3   c-0.1,0-0.2,0.1-0.3,0.1c-0.4,0.1-0.7,0.3-1,0.4c0,0,0,0-0.1,0L25.7,18c0.2-1.5,1.4-2.4,2.1-2.8c1.4-0.8,3.4-1.1,5.3-0.9   c0,0,0,0,0,0l45.1,5.4L74.7,48.6z"/></svg>