<svg xmlns="http://www.w3.org/2000/svg" x="0px" y="0px" viewBox="0 0 100 125"><path d="M12.6,88.3h19.2c1.7,0,3.1-1.4,3.1-3.1V12.9c0-1.7-1.4-3.1-3.1-3.1H12.6c-1.7,0-3.1,1.4-3.1,3.1v72.3  C9.5,86.9,10.9,88.3,12.6,88.3z M33,70.8H11.5V27.4H33V70.8z M11.5,72.8H33v4.4H11.5V72.8z M33,25.4H11.5V21H33V25.4z M31.9,86.3  H12.6c-0.6,0-1.1-0.5-1.1-1.1v-6H33v6C33,85.8,32.5,86.3,31.9,86.3z M12.6,11.8h19.2c0.6,0,1.1,0.5,1.1,1.1V19H11.5v-6.1  C11.5,12.3,12,11.8,12.6,11.8z"/><path d="M59.6,9.8H40.4c-1.7,0-3.1,1.4-3.1,3.1v72.3c0,1.7,1.4,3.1,3.1,3.1h19.2c1.7,0,3.1-1.4,3.1-3.1V12.9  C62.7,11.2,61.3,9.8,59.6,9.8z M39.3,27.4h21.5v43.4H39.3V27.4z M60.7,25.4H39.3V21h21.5V25.4z M39.3,72.8h21.5v4.4H39.3V72.8z   M40.4,11.8h19.2c0.6,0,1.1,0.5,1.1,1.1V19H39.3v-6.1C39.3,12.3,39.8,11.8,40.4,11.8z M59.6,86.3H40.4c-0.6,0-1.1-0.5-1.1-1.1v-6  h21.5v6C60.7,85.8,60.2,86.3,59.6,86.3z"/><path d="M87.4,9.8H68.1c-1.7,0-3.1,1.4-3.1,3.1v72.3c0,1.7,1.4,3.1,3.1,3.1h19.2c1.7,0,3.1-1.4,3.1-3.1V12.9  C90.5,11.2,89.1,9.8,87.4,9.8z M67,27.4h21.5v43.4H67V27.4z M88.5,25.4H67V21h21.5V25.4z M67,72.8h21.5v4.4H67V72.8z M68.1,11.8  h19.2c0.6,0,1.1,0.5,1.1,1.1V19H67v-6.1C67,12.3,67.5,11.8,68.1,11.8z M87.4,86.3H68.1c-0.6,0-1.1-0.5-1.1-1.1v-6h21.5v6  C88.5,85.8,88,86.3,87.4,86.3z"/></svg>