<svg width="100px" height="100px" viewBox="735 525 100 101" version="1.1" xmlns="http://www.w3.org/2000/svg" xmlns:xlink="http://www.w3.org/1999/xlink">
    <g id="mana_u" stroke="none" stroke-width="1" fill="none" fill-rule="evenodd" transform="translate(735.000000, 525.000000)">
        <path d="M100,50 C100.000001,67.86328 90.4700548,84.3696317 75.0000006,93.3012719 C59.5299465,102.232912 40.4700535,102.232912 24.9999994,93.3012719 C9.52994524,84.3696317 -7.52880965e-07,67.86328 0,50 C1.16385297e-06,22.3857633 22.3857633,2.10734243e-06 50,2.10734243e-06 C77.6142367,2.10734243e-06 99.9999988,22.3857633 100,50 Z" id="svg_255" fill="#f7f7f8" fill-rule="nonzero"></path>
        <path d="M50,12 C56.5102547,25.1137156 66.1214529,36.4411992 78,45 L87,50 C77.296169,55.6084819 68.5244964,62.6932944 61,71 C56.761946,76.2758161 53.0760052,81.97227 50,88 C41.397583,71.8336818 28.1663182,58.602417 12,50 C22.1614724,44.6369199 31.3006523,37.5286689 39,29 C43,24 47,19 50,12 L50,12 Z M44,65 L50,73 L57,63 C61.5957835,57.8305145 66.999202,53.440237 73,50 C69,48 65,46 63,43 C57.7138552,38.5171204 53.3058431,33.0918747 50,27 L43,37 L35,44 C33,47 30,48 27,50 L37,57 L44,65 L44,65 Z" id="svg_257" fill="#333333" fill-rule="nonzero"></path>
    </g>
</svg>
