<svg xmlns="http://www.w3.org/2000/svg" id="svg4872" xmlns:xlink="http://www.w3.org/1999/xlink" viewBox="0 0 1045 730"><style>.st0{fill:#CAC5C0;} .st1{fill:#0D0F0F;} .st2{fill:#A3C095;} .st3{fill:#E49977;} .st4{fill:#BAB1AB;} .st5{fill:#C1D7E9;} .st6{fill:#F8F6D8;} .st7{fill:#FFFFFF;} .st8{fill:#111212;} .st9{fill:#F7F4D8;} .st10{fill:none;stroke:#F7F4D8;stroke-width:2.5;stroke-miterlimit:10;} .st11{fill:#C9C4BE;} .st12{clip-path:url(#SVGID_3_);} .st13{fill:#CCC2C0;} .st14{fill:none;}</style><title id="title4581">Layer 1</title><g id="svg_1"><circle id="svg_2" cx="50" cy="50" r="50" class="st0"/></g><path id="svg_3" d="M23 52.4c0-9.8 2.1-18.8 6.2-27.1C34.3 15.1 41.3 10 50.2 10c8.8 0 15.7 4.4 20.6 13.1 4.1 7.2 6.2 15.5 6.2 25.1 0 9.9-2.1 18.8-6.2 26.8-5 10.1-12 15.1-21 15.1-8.5 0-15.3-4.3-20.3-12.9-4.3-7.5-6.5-15.7-6.5-24.8zM34.3 48c0 12.9 1.9 23 5.8 30.2 2.7 5 6.1 7.5 10.4 7.5 10.1 0 15.2-10.5 15.2-31.5 0-9.2-.8-17.1-2.4-23.4C60.5 20.2 55.8 15 49.1 15c-9.9 0-14.8 10.1-14.8 30.4V48z" class="st1"/><g id="svg_4"><circle id="svg_5" cx="155" cy="50" r="50" class="st0"/></g><path id="svg_6" d="M160.7 10v64.1c0 7.7 3.2 11.5 9.7 11.5h1.7V90H138v-4.4h2.1c6.2 0 9.4-3.8 9.4-11.5v-42c0-7.8-2.7-11.6-8.1-11.6H138v-4.2h1.2c6.7 0 12.7-2.1 18.1-6.2l3.4-.1z" class="st1"/><g id="svg_7"><circle id="svg_8" cx="260" cy="50" r="50" class="st0"/></g><path id="svg_9" d="M287.4 70.1L281.5 90h-49v-4.3c2.4-2.7 7.6-8 15.6-16.1 4.8-4.9 9.6-10 14.4-15.4 2.4-2.7 4.2-4.9 5.5-6.9 2.8-4.1 4.3-8.3 4.3-12.6 0-4.2-1.3-7.9-3.9-11.1-2.6-3.2-6-4.8-10.1-4.8-8.9 0-15.8 6-20.9 18l-4.4-1.6c5.9-16.8 15.3-25.2 28.1-25.2 6.3 0 11.7 2.1 16.1 6.4 4.4 4.3 6.7 9.6 6.7 15.9 0 8.1-4.6 15.9-13.9 23.6l-9.6 8c-6.1 5.1-11.2 9.9-15.2 14.4-.3.3-.8.9-1.6 1.9h25.5c3.9 0 6.9-.8 8.9-2.3 1.7-1.4 3.4-4 5.1-7.8h4.3z" class="st1"/><g id="svg_10"><circle id="svg_11" cx="365" cy="50" r="50" class="st0"/></g><path id="svg_12" d="M354.6 52.6l-2-3.8 1.3-.8c5.2-3.1 9.9-6.3 14.2-9.6 4.3-3.2 6.4-6.9 6.4-11 0-2.8-1-5.1-3.1-7-2.1-1.9-4.5-2.8-7.2-2.8-6.4 0-13.2 4-20.4 12l-3.4-2.6c7.5-11.3 16.6-17 27.3-17 4.8 0 8.8 1.2 12.1 3.5 3.8 2.6 5.7 6.2 5.7 10.6 0 3.2-1.3 6.4-4 9.4-1.5 1.8-4.2 4.1-8.1 7l-1.6 1.2c.7-.1 1.6-.1 2.6-.1 4.9 0 9 1.9 12.2 5.7 3.2 3.8 4.8 8.2 4.8 13.2 0 8.5-3.6 15.7-10.8 21.4-6.6 5.4-14.3 8.1-23 8.1-8 0-14.3-1.7-18.9-5.2l2.4-3.4c5.4 2.6 10.3 3.9 14.7 3.9 6.4 0 12.1-2.1 17-6.3 5-4.2 7.5-9.5 7.5-15.8 0-4.1-1.3-7.7-3.8-10.6-2.5-2.9-5.8-4.4-9.8-4.4-3.7.1-7.7 1.5-12.1 4.4z" class="st1"/><g id="svg_13"><circle id="svg_14" cx="470" cy="50" r="50" class="st0"/></g><path id="svg_15" d="M484.3 67.4v6.7c0 7.7 2.7 11.5 8.1 11.5h2.3V90H462v-4.4h2.6c5.3 0 8-3.8 8-11.4v-6.9h-32.8v-6.9L474.4 10h9.9v51.6h.8c3.4 0 5.9-2.6 7.4-7.8h4.1l-1.9 13.6h-10.4zm-11.7-5.8V20.1l-27.9 41.5h27.9z" class="st1"/><g id="svg_16"><circle id="svg_17" cx="575" cy="50" r="50" class="st0"/></g><path id="svg_18" d="M560 11.4h28.9c3.8 0 6-.4 6.7-1.4h4.2l-2.4 10.9H562l-3.4 15.8c5.1-2.1 9.7-3.1 13.6-3.1 7.7 0 14.2 2.6 19.6 7.8 5.3 5.2 8 11.6 8 19.4 0 9-3.5 16.2-10.4 21.7-6.4 5-14.2 7.6-23.3 7.6-5.4 0-10.7-.8-15.8-2.4l1.6-4c4.3 1.2 8.1 1.8 11.5 1.8 6.7 0 12.5-2.2 17.5-6.5 5-4.4 7.5-9.8 7.5-16.4 0-5.7-1.8-10.3-5.5-14-3.7-3.6-8.4-5.5-14-5.5-5.2 0-10.1 1.8-14.6 5.4l-2.7-.5 8.4-36.6z" class="st1"/><g id="svg_19"><circle id="svg_20" cx="680" cy="50" r="50" class="st0"/></g><path id="svg_21" d="M666.6 44.7c5.9-5.6 11.9-8.4 17.9-8.4 6.6 0 11.8 2.6 15.8 7.8 3.7 4.8 5.5 10.5 5.5 17.3 0 7.4-2.2 13.8-6.5 19.4-4.8 6.1-10.7 9.2-17.8 9.2-8.5 0-15.4-3.7-20.5-11.1-4.6-6.5-6.9-14.2-6.9-23.1 0-9.4 2.6-18.1 7.8-26.1 5.2-8 12.2-13.6 20.9-16.9 4.9-1.9 10.2-2.8 15.7-2.8v4.2c-11.7.6-20.4 5.3-26.2 14-2.9 4.5-4.8 10-5.7 16.5zm-.8 8.1c-.1 1.6-.1 3.2-.1 4.9 0 6.2 1.1 12 3.2 17.3 2.8 6.9 6.9 10.4 12.3 10.4 4.7 0 8.2-2.4 10.5-7.2 1.8-3.7 2.7-8.1 2.7-13.4 0-5.6-.9-10.3-2.6-14.3-2.3-5.4-5.9-8.1-10.8-8.1-5.9 0-11 3.4-15.2 10.4z" class="st1"/><g id="svg_22"><circle id="svg_23" cx="785" cy="50" r="50" class="st0"/></g><path id="svg_24" d="M788.5 90h-11.6v-1.2c0-7.4 2.3-16.7 7-27.8 7-16.8 13.5-29.7 19.5-38.6l.8-1.2h-27.3c-3.9 0-6.9.8-9 2.5-2.1 1.6-3.6 4.4-4.6 8.2h-4.5l4.9-21.8h2.9c1.7.9 4.7 1.4 9 1.4h35.6v6.2c-1.3 1.8-2.9 4.8-4.9 8.8-3.8 7.5-7.4 16.2-10.6 26.2-4.7 14.5-7.1 27-7.2 37.3z" class="st1"/><g id="svg_25"><circle id="svg_26" cx="890" cy="50" r="50" class="st0"/></g><path id="svg_27" d="M881 49.5l-1.7-1.2c-5.1-3.5-8.5-6.3-10.1-8.5-2.1-2.7-3.1-5.8-3.1-9.4 0-6.1 2.6-11.1 7.7-14.9 4.8-3.6 10.3-5.4 16.6-5.4 5.9 0 11.2 1.6 15.8 4.7 5.2 3.5 7.8 8.1 7.8 13.9 0 7-4.9 12.7-14.7 17 11.1 5.4 16.7 12.9 16.7 22.5 0 6.9-2.6 12.4-7.9 16.4-4.8 3.7-10.7 5.5-17.9 5.5-6.7 0-12.5-1.7-17.4-5.1-5.6-3.9-8.3-9-8.3-15.3s3-11.6 8.9-15.8c1.4-1.2 4-2.6 7.6-4.4zm4.5 1.9c-8.1 3.7-12.1 9.5-12.1 17.4 0 5.1 1.6 9.2 4.9 12.3 3.3 3.1 7.5 4.6 12.6 4.6 4.6 0 8.5-1.2 11.6-3.7 3.2-2.5 4.8-5.9 4.8-10.3 0-6.6-4.4-12-13.1-16.1l-8.7-4.2zm9.1-8c7.1-3.1 10.6-7.9 10.6-14.1 0-4.3-1.5-7.8-4.5-10.4-3-2.6-6.7-3.9-11.1-3.9-3.7 0-6.9 1-9.6 3-3 2.2-4.4 5-4.4 8.6 0 4.4 2.1 7.9 6.2 10.6.8.5 4.4 2.3 10.8 5.2l2 1z" class="st1"/><g id="svg_28"><circle id="svg_29" cx="995" cy="50" r="50" class="st0"/></g><path id="svg_30" d="M1008.4 55.5c-5.9 5.6-11.9 8.4-17.9 8.4-6.6 0-11.8-2.6-15.8-7.8-3.7-4.8-5.5-10.5-5.5-17.2 0-7.3 2.2-13.8 6.5-19.5 4.7-6.2 10.6-9.3 17.6-9.3 8.6 0 15.5 3.7 20.6 11.2 4.6 6.6 6.9 14.3 6.9 23.3 0 12.7-4.2 23.5-12.7 32.3-8.4 8.8-19 13.2-31.7 13.3V86c3.9-.2 7-.6 9.3-1.3 13-4.2 20.5-13.8 22.7-29.2zm.8-8.1c.1-1.7.1-3.3.1-4.8 0-6.3-1.1-12-3.2-17.2-2.9-6.9-7-10.4-12.4-10.4-4.7 0-8.1 2.4-10.4 7.1-1.8 3.7-2.7 8.1-2.7 13.3 0 5.6.9 10.3 2.6 14.3 2.3 5.4 5.9 8.1 10.8 8.1 5.9 0 11-3.4 15.2-10.4z" class="st1"/><g id="svg_31"><circle id="svg_32" cx="995" cy="155" r="50" class="st0"/></g><path id="svg_33" d="M982.2 123.6v50.2c0 6 2.5 8.9 7.5 8.9h1.3v3.5h-26.8v-3.5h1.8c5 0 7.5-3 7.5-8.9v-33c0-6-2.1-9.1-6.4-9.1h-2.7v-3.4h1c5.2 0 9.9-1.6 14.2-4.7h2.6zm40.7 35.7c-4.7 4.4-9.4 6.6-14 6.6-5.1 0-9.2-2.1-12.4-6.3-2.8-3.7-4.2-8.1-4.2-13.4 0-5.7 1.7-10.8 5-15.3 3.7-4.9 8.4-7.3 13.9-7.3 6.7 0 12 2.9 16 8.7 3.7 5.2 5.5 11.3 5.5 18.3 0 10.1-3.3 18.5-9.9 25.4-6.6 6.9-14.9 10.3-24.8 10.4v-3.3c3.1-.2 5.5-.5 7.3-1 10-3.1 15.9-10.7 17.6-22.8zm.7-6.2c.1-1.4.1-2.6.1-3.8 0-4.9-.9-9.4-2.6-13.5-2.3-5.4-5.5-8-9.7-8-3.7 0-6.3 1.8-8 5.5-1.5 3-2.2 6.5-2.2 10.5 0 4.3.7 8.1 2 11.2 1.8 4.2 4.6 6.3 8.4 6.3 4.7-.2 8.6-2.8 12-8.2z" class="st1"/><g id="svg_34"><circle id="svg_35" cx="890" cy="155" r="50" class="st0"/></g><path id="svg_36" d="M876 124.2v49.4c0 5.9 2.4 8.8 7.3 8.8h1.3v3.3h-26.3v-3.3h1.7c5 0 7.5-2.9 7.5-8.8v-32.4c0-6-2.1-8.9-6.4-8.9h-2.6V129h1c5.1 0 9.7-1.6 13.8-4.7l2.7-.1zm22.6 30.4l-1.3-1c-4-2.7-6.6-4.9-7.9-6.5-1.5-2.1-2.3-4.6-2.3-7.4 0-4.7 2-8.5 6-11.5 3.6-2.8 7.8-4.2 12.8-4.2 4.6 0 8.7 1.2 12.3 3.6 3.9 2.7 5.9 6.3 5.9 10.9 0 5.5-3.7 9.8-11.2 13.2 8.6 4.2 12.9 10 12.9 17.5 0 5.4-2.1 9.6-6.3 12.8-3.6 2.8-8.1 4.2-13.7 4.2-5.3 0-9.8-1.3-13.5-4-4.3-3-6.5-6.9-6.5-11.9s2.3-9.1 7-12.3c1.1-.9 3.1-2 5.8-3.4zm3.6 1.4c-6.2 2.9-9.3 7.4-9.3 13.5 0 3.9 1.3 7.1 3.8 9.5 2.6 2.4 5.8 3.6 9.6 3.6 3.6 0 6.6-1 9.1-2.9s3.7-4.6 3.7-8c0-5.2-3.3-9.4-10-12.5l-6.9-3.2zm7-6.1c5.5-2.5 8.3-6.1 8.3-11 0-3.3-1.2-6-3.5-8.1-2.3-2-5.2-3.1-8.6-3.1-2.8 0-5.3.8-7.5 2.4-2.2 1.6-3.3 3.8-3.3 6.6 0 3.4 1.6 6.1 4.7 8.2.7.4 3.5 1.8 8.4 4.1l1.5.9z" class="st1"/><g id="svg_37"><circle id="svg_38" cx="785" cy="155" r="50" class="st0"/></g><path id="svg_39" d="M768.7 124.2v49.3c0 5.9 2.4 8.8 7.3 8.8h1.1v3.3H751v-3.3h1.8c4.9 0 7.4-2.9 7.4-8.8v-32.3c0-6-2.1-8.9-6.4-8.9h-2.6V129h1c5.1 0 9.7-1.6 13.8-4.7l2.7-.1zm32.7 61.8h-8.9v-1c0-5.7 1.8-12.9 5.4-21.6 5.5-12.9 10.5-22.9 15.1-29.9l.5-.9h-21c-3.1 0-5.4.6-7 1.9-1.6 1.3-2.8 3.4-3.6 6.4h-3.4l3.8-16.9h2.3c1.3.6 3.6.9 6.9.9H819v4.9c-1 1.4-2.3 3.7-3.8 6.9-3 5.8-5.7 12.5-8.2 20.2-3.6 11.4-5.5 21.1-5.6 29.1z" class="st1"/><g id="svg_40"><circle id="svg_41" cx="680" cy="155" r="50" class="st0"/></g><path id="svg_42" d="M664.3 123.3v50.8c0 6 2.5 9.1 7.5 9.1h1.3v3.4H646v-3.4h1.8c5.1 0 7.7-3 7.7-9.1v-33.3c0-6.1-2.2-9.2-6.5-9.2h-2.7v-3.5h1c5.3 0 10-1.6 14.3-4.8h2.7zm20.1 27.5c4.7-4.4 9.4-6.6 14.2-6.6 5.1 0 9.2 2 12.4 6.1 2.9 3.7 4.3 8.3 4.3 13.7 0 5.8-1.7 10.9-5.1 15.2-3.7 4.9-8.4 7.3-14 7.3-6.6 0-12-2.9-16.1-8.7-3.6-5.1-5.4-11.2-5.4-18.1 0-7.5 2-14.4 6.1-20.6 4.1-6.3 9.6-10.7 16.5-13.3 3.8-1.5 7.9-2.2 12.3-2.2v3.3c-9.2.4-16.1 4.1-20.6 11-2.3 3.4-3.9 7.8-4.6 12.9zm-.7 6.2c-.1 1.3-.1 2.6-.1 3.8 0 4.9.9 9.5 2.6 13.7 2.2 5.4 5.4 8.2 9.7 8.2 3.7 0 6.4-1.9 8.3-5.6 1.4-2.9 2-6.4 2-10.6 0-4.3-.6-8.1-1.9-11.2-1.9-4.3-4.7-6.4-8.6-6.4-4.6 0-8.7 2.7-12 8.1z" class="st1"/><g id="svg_43"><path id="svg_44" d="M625 155c0 27.6-22.4 50-50 50s-50-22.4-50-50 22.4-50 50-50 50 22.4 50 50z" class="st0"/></g><path id="svg_45" d="M559.7 123.1V174c0 6 2.5 9.1 7.5 9.1h1.3v3.4h-27.1V183h1.8c5.1 0 7.7-3 7.7-9.1v-33.3c0-6.1-2.2-9.2-6.5-9.2h-2.7V128h1c5.3 0 10-1.6 14.3-4.9h2.7zm17.9 1.3h23.1c3 0 4.8-.3 5.4-1h3.3l-1.9 8.7h-28.2l-2.7 12.5c4-1.6 7.6-2.4 10.7-2.4 6.1 0 11.3 2 15.5 6.1 4.2 4.1 6.3 9.2 6.3 15.3 0 7.2-2.7 12.9-8.2 17.2-5.1 4-11.3 6-18.5 6-4.3 0-8.4-.6-12.5-1.9l1.3-3.2c3.4.9 6.4 1.4 9.1 1.4 5.3 0 9.9-1.7 13.9-5.2s5.9-7.8 5.9-13c0-4.5-1.5-8.2-4.4-11.1-2.9-2.9-6.6-4.3-11.1-4.3-4.2 0-8 1.4-11.6 4.3l-2.2-.4 6.8-29z" class="st1"/><g id="svg_46"><circle id="svg_47" cx="470" cy="155" r="50" class="st0"/></g><path id="svg_48" d="M456.3 124.5v49.1c0 5.8 2.4 8.7 7.3 8.7h1.2v3.3h-26.1v-3.3h1.7c4.9 0 7.4-2.9 7.4-8.7v-32.2c0-5.9-2.1-8.8-6.3-8.8h-2.6v-3.3h1c5 0 9.6-1.6 13.7-4.7l2.7-.1zm43.1 43.7v5.1c0 5.7 2 8.6 6 8.6h1.7v3.3h-24.4v-3.3h1.9c4 0 6-2.8 6-8.4v-5.2H466v-5.1l25.9-37.8h7.4V164h.6c2.5 0 4.3-2 5.5-5.9h3.1l-1.5 10.2-7.6-.1zm-6.8-5.1v-32.2l-21.7 32.2h21.7z" class="st1"/><g id="svg_49"><circle id="svg_50" cx="365" cy="155" r="50" class="st0"/></g><path id="svg_51" d="M353 124.8v48.5c0 5.7 2.4 8.6 7.3 8.6h1.1v3.3h-25.8v-3.3h1.7c4.9 0 7.4-2.8 7.4-8.6v-31.8c0-5.9-2.1-8.8-6.3-8.8h-2.6v-3.3h1c5 0 9.5-1.5 13.5-4.6h2.7zm21.7 32.2l-1.5-2.8 1.2-.6c3.8-2.4 7.4-4.8 10.7-7.2 3.3-2.4 4.9-5.2 4.9-8.2 0-2.1-.8-3.9-2.4-5.3-1.6-1.4-3.4-2.1-5.4-2.1-4.9 0-10.1 3-15.6 8.9l-2.6-1.9c5.6-8.5 12.5-12.8 20.7-12.8 3.6 0 6.6.9 9.1 2.7 2.9 2 4.3 4.6 4.3 8.1 0 2.4-1 4.7-3.1 7-1.2 1.3-3.2 3-6.1 5.2l-1.1 1c.5-.1 1.1-.1 1.9-.1 3.7 0 6.8 1.4 9.2 4.3 2.4 2.9 3.6 6.1 3.6 9.8 0 6.5-2.7 11.8-8.2 16.1-4.9 4.1-10.7 6.1-17.2 6.1-6.1 0-10.8-1.3-14.2-3.8l1.8-2.6c4 1.9 7.7 2.8 11 2.8 4.8 0 9-1.6 12.8-4.7 3.7-3.1 5.6-7.1 5.6-11.8 0-3.1-.9-5.8-2.8-8s-4.3-3.3-7.4-3.3c-2.9-.1-5.9 1-9.2 3.2z" class="st1"/><g id="svg_52"><circle id="svg_53" cx="260" cy="155" r="50" class="st0"/></g><path id="svg_54" d="M245.6 124.2v49.2c0 5.9 2.4 8.8 7.3 8.8h1.3v3.4H228v-3.4h1.5c4.9 0 7.4-2.9 7.4-8.8v-32.3c0-6-2-8.9-6.1-8.9h-2.7v-3.3h1c5.1 0 9.7-1.5 13.8-4.6l2.7-.1zm51 46.4l-4.5 15.2h-37.4v-3.3c1.8-2 5.7-6.1 11.9-12.3 3.7-3.7 7.3-7.6 11-11.7 1.8-2 3.2-3.7 4.2-5.1 2.1-3.2 3.2-6.5 3.2-9.7 0-3.2-1-6.1-2.9-8.6-2-2.5-4.6-3.7-7.8-3.7-6.7 0-12 4.6-15.8 13.8l-3.3-1.3c4.6-12.8 11.8-19.2 21.5-19.2 4.8 0 8.9 1.6 12.3 4.9 3.4 3.2 5.1 7.3 5.1 12.1 0 6.2-3.5 12.3-10.6 18.1l-7.3 5.9c-4.7 3.9-8.6 7.6-11.6 11.1-.3.3-.7.7-1.3 1.4h19.5c3 0 5.2-.6 6.6-1.7 1.4-1.1 2.8-3.1 4-6h3.2z" class="st1"/><g id="svg_55"><circle id="svg_56" cx="155" cy="155" r="50" class="st0"/></g><path id="svg_57" d="M144.8 123.3v50.8c0 6 2.5 9.1 7.5 9.1h1.3v3.4h-27.1v-3.4h1.8c5.1 0 7.7-3 7.7-9.1v-33.3c0-6.1-2.2-9.2-6.5-9.2h-2.7v-3.4h1c5.3 0 10-1.6 14.3-4.9h2.7zm32.5 0v50.8c0 6 2.5 9.1 7.5 9.1h1.3v3.4H159v-3.4h1.8c5.1 0 7.7-3 7.7-9.1v-33.3c0-6.1-2.2-9.2-6.5-9.2h-2.7v-3.4h1c5.3 0 10-1.6 14.3-4.9h2.7z" class="st1"/><g id="svg_58"><circle id="svg_59" cx="50" cy="155" r="50" class="st0"/></g><path id="svg_60" d="M35.3 123.6V174c0 6 2.6 9 7.7 9h1.3v3.4H17.4V183h1.7c4.9 0 7.4-3 7.4-9v-33c0-6.1-2.2-9.1-6.5-9.1h-2.7v-3.4h1c5.2 0 10-1.6 14.2-4.8l2.8-.1zm9.8 33.4c0-7.9 1.6-15.1 4.9-21.7 4.1-8.2 9.8-12.3 17-12.3 6.9 0 12.4 3.5 16.5 10.5 3.3 5.7 4.9 12.4 4.9 19.9 0 7.9-1.6 15-4.9 21.5-4.1 8-9.8 12-16.9 12-6.8 0-12.3-3.5-16.4-10.4-3.4-5.7-5.1-12.3-5.1-19.5zm9.1-3.7c0 6.7.7 12.7 2.2 18 2.2 8.2 5.8 12.3 10.8 12.3 8.1 0 12.2-8.4 12.2-25.3 0-20.9-4.4-31.3-13.2-31.3-7.9 0-11.9 8.1-11.9 24.3l-.1 2z" class="st1"/><g id="svg_61"><circle id="svg_62" cx="50" cy="260" r="50" class="st0"/></g><path id="svg_63" d="M53.2 273.3l-4.5 14.9H12v-3.1c1.8-2 5.8-6.1 11.9-12.1 3.6-3.7 7.2-7.5 10.7-11.5 1.9-2 3.2-3.8 4.1-5.2 2.2-3.1 3.3-6.3 3.3-9.6 0-3.1-1-5.8-3-8.2-2-2.4-4.5-3.6-7.6-3.6-6.6 0-11.8 4.5-15.6 13.5l-3.4-1.3c4.5-12.7 11.6-19 21.2-19 4.8 0 8.8 1.6 12.2 4.9 3.4 3.2 5 7.2 5 12 0 6.1-3.5 12-10.6 17.8l-7.2 6c-4.6 3.9-8.4 7.5-11.4 10.9-.3.2-.7.7-1.3 1.5h19.2c3 0 5.2-.6 6.8-1.9 1.3-1 2.6-3 3.8-5.9l3.1-.1zm-.5-13.4c0-7.4 1.5-14.3 4.6-20.6 4-7.8 9.4-11.8 16.2-11.8 6.6 0 11.8 3.4 15.7 10.1 3.1 5.5 4.6 11.8 4.6 18.9 0 7.5-1.5 14.3-4.6 20.4-4 7.7-9.4 11.5-16.1 11.5-6.5 0-11.7-3.3-15.6-9.8-3.2-5.5-4.8-11.8-4.8-18.7zm8.7-3.5c0 6.4.7 12.1 2 17.1 2 7.8 5.5 11.8 10.2 11.8 7.7 0 11.6-8 11.6-24.1 0-19.9-4.2-29.9-12.6-29.9-7.5 0-11.2 7.7-11.2 23.2v1.9z" class="st1"/><g id="svg_64"><path id="svg_65" d="M940 260c0 27.6-22.4 50-50 50s-50-22.4-50-50 22.4-50 50-50 50 22.4 50 50z" class="st2"/></g><path id="svg_66" d="M933.8 266.2c0 1.7-.6 3.2-1.9 4.5-1.3 1.3-2.8 2-4.4 2-2.7 0-4.6-1.2-5.9-3.7l-5.9-.2c-1.3 0-3.7.5-7.4 1.6-3.9 1.1-6.2 2-6.7 2.6-.9 1-1.7 3.3-2.2 7-.5 3-.7 5.2-.7 6.6 0 2.2.4 3.9 1.1 4.9s2.2 1.9 4.4 2.6c2.2.7 3.6 1.1 4.1 1.2.3 0 .9 0 1.6-.1h1.5c1.1 0 2.2.2 3.4.5 1.7.5 2.4 1.2 2.1 2-1.2-.2-3.2.1-6.1.8l3.5 1.7c0 1-1.4 1.5-4.2 1.5-.8 0-1.8-.2-3.1-.5s-2.1-.5-2.6-.5h-1.6c-.1.8-.3 2.1-.8 3.7-1.4-.1-3.1-.9-5-2.5s-3.1-2.4-3.6-2.4-1.2.8-2.1 2.4c-.9 1.6-1.4 2.7-1.4 3.2-1.1-.6-2-1.7-2.8-3.2-.3-1.1-.7-2.2-1.1-3.2-.8.1-2.4 1.8-4.6 5.2h-.6c-.2-.3-.8-2-1.9-5.2-2.6-.8-5-1.2-7.2-1.2-1.1 0-2.7.2-5 .7l-3.5-.2c.5-.5 2-1.5 4.4-2.9 2.8-1.7 5-2.5 6.5-2.5.2 0 .6 0 1 .1s.8.1 1 .1c.6 0 1.5-.3 2.8-.9 1.3-.6 2-1.2 2.2-1.7.2-.5.3-1.8.3-3.9 0-4.7-1.2-8.3-3.8-10.6-2.2-2.1-5.7-3.6-10.7-4.5-1.3 4.7-5.1 7.1-11.2 7.1-2 0-4-1.2-6-3.6-2-2.4-3-4.6-3-6.6 0-3.1 1.3-5.6 3.9-7.6-2.1-2.2-3.1-4.4-3.1-6.6 0-2.1.6-3.9 1.9-5.5 1.3-1.6 3-2.5 5.1-2.7-.2-2.7.7-4.5 2.6-5.5-.9-.9-1.4-2.5-1.4-4.9 0-2.7.9-5 2.7-6.9 1.8-1.8 4.1-2.8 6.9-2.8 3 0 5.5 1 7.4 3.1 2.4-8.2 7.6-12.4 15.6-12.4 4.2 0 7.8 1.7 11 5 1.2 1.2 1.7 1.9 1.7 2-1 0-.5-.2 1.5-.6 2-.4 3.5-.6 4.4-.6 3.2 0 6.1 1.2 8.6 3.6 2.2 2.2 3.7 4.9 4.5 8.2.6.1 1.5.3 2.7.7 1.8.9 2.7 2.5 2.7 4.7 0 .4-.3 1.2-1 2.4 5.3 3 8 7.2 8 12.5 0 1.5-.6 3.6-1.7 6.2 2 1.6 3.1 3.4 3.1 5.8zm-51.5 5.5v-1.6c0-1.9-.9-3.7-2.8-5.2-1.9-1.6-3.8-2.4-5.7-2.4-2.3 0-4.5.5-6.5 1.6 4.4-.2 9.4 2.3 15 7.6zm-2.3-15.5c-1.2-1.4-2.3-2.9-3.2-4.4-3.5.9-5.2 2-5.2 3.1 1-.1 2.5.1 4.4.6s3.2.7 4 .7zm7.7-3.8v-5.5c-2-.3-3.2-.5-3.6-.5v1.9l3.6 4.1zm16.2-3.5c-1-.4-2.9-1.2-5.6-2.5v10.7c3.9-2.2 5.8-5 5.6-8.2zm6.9 14.7l-2.7-3.4-5.1 3.6s-3.2 2.6-4.4 4.1c3.7-2 7.8-3.5 12.2-4.3z" class="st1"/><g id="svg_67"><circle id="svg_68" cx="785" cy="260" r="50" class="st3"/></g><path id="svg_69" d="M827 276.6c-3.7 8.9-11.2 13.4-22.3 13.4-2 0-4.2.3-6.6.8-3.6.8-5.3 1.8-5.3 3.2 0 .4.3.9.9 1.5.6.6 1.1.8 1.5.8-2.1 0-.7.1 4.3.2s8.1.2 9.4.2c-7.4 4.3-19.7 6.3-37 6-5.7-.1-10.6-2.6-14.6-7.5-4-4.7-6-9.9-6-15.7 0-6.1 2.1-11.3 6.2-15.6 4.1-4.3 9.2-6.4 15.3-6.4 1.4 0 3.2.3 5.4.9 2.2.6 3.8.9 4.5.9 3.1 0 7-1.3 11.7-3.9 4.7-2.6 6.9-3.9 6.6-3.9-.8 8.9-3.8 14.9-8.9 17.9-3.6 2.1-5.5 4.2-5.5 6.2 0 1.3.8 2.3 2.3 3.1 1.2.6 2.5.9 3.9.9 2.2 0 4.4-1.4 6.5-4.1 2.1-2.7 3.1-5.2 2.8-7.4-.3-2.5-.1-5.6.5-9.2.2-1 .8-2.3 1.8-3.8 1.1-1.5 2-2.4 2.9-2.7 0 .8-.3 2-.8 3.8-.6 1.8-.8 3.1-.8 3.9 0 1.9.5 3.3 1.5 4.3 1.5-.6 2.9-2.5 4.1-5.7 1-2.5 1.6-4.8 1.8-7.1-3.6-.2-7-1.8-10.2-4.8-3.3-3.1-4.9-6.4-4.9-9.9 0-.6.1-1.2.3-1.8.5.8 1.3 2 2.3 3.6 1.4 2.1 2.5 3.2 3.3 3.2 1 0 1.5-1.1 1.5-3.2 0-2.7-.7-5.2-2.2-7.4-1.6-2.6-3.7-3.9-6.2-3.9-1.2 0-3 .6-5.3 1.9-2.4 1.3-4.5 1.9-6.5 1.9-.6 0-3.2-.8-7.9-2.3 8.2-1.4 12.3-2.6 12.3-3.7 0-2.9-5.6-4.8-16.9-5.9-1.1-.1-3.1-.3-6.1-.5.3-.4 2.8-.9 7.3-1.4 3.8-.4 6.5-.6 8-.6 20.2 0 33 9.8 38.4 29.4.9-.8 1.4-2.1 1.4-3.9 0-2.3-.7-5.2-2-8.8-.5-1.4-1.3-3.4-2.4-6.2 7 8.9 10.4 17.3 10.4 25.2 0 4.2-1 8-2.9 11.4-1.3 2.3-3.7 5.2-7.1 8.8-3.5 3.6-5.9 6.4-7.1 8.3 4.7-1.3 7.7-2.2 9.2-2.9 3.2-1.4 6.2-3.6 8.8-6.5-.2 1.2-.7 2.8-1.6 5zm-55.5-50c0 1.5-.8 2.5-2.5 2.9l-3.3.5c-1.2.6-2.9 2.9-5.2 7-.3-1.3-.6-3.1-1.1-5.3-.8.1-2 .8-3.8 2-.8.6-2 1.5-3.7 2.7.5-3.1 2.2-6.1 5.1-9.3 3.1-3.5 6-5.2 8.9-5.2 3.7 0 5.6 1.6 5.6 4.7zm22.1 11.7c0 1.4-.8 2.7-2.4 3.6-1.6 1-3.1 1.5-4.6 1.5-2 0-3.9-1.1-5.5-3.4-2-2.8-3.9-4.6-6-5.5.4-.4.9-.6 1.5-.6.8 0 2.1.6 3.9 1.8 1.8 1.2 3 1.8 3.5 1.8.4 0 1.1-.6 2.1-1.8 1-1.2 2.1-1.8 3.2-1.8 2.9-.1 4.3 1.4 4.3 4.4z" class="st1"/><g id="svg_70"><circle id="svg_71" cx="680" cy="260" r="50" class="st4"/></g><path id="svg_72" d="M720.7 258.6c0 5.5-2 9.3-6 11.3-1.2.6-4.8 1.4-11 2.4-4 .7-6 2.2-6 4.6v10.2c0 .4.1 1.7.4 3.9l.4 4c0 1.3-.3 3.3-.9 6.1-1.6.3-3.4.7-5.5 1.1-.7-2.5-1-4.2-1-5.1 0-.4.1-1 .3-1.9.2-.8.3-1.5.3-1.9 0-.6-.5-2.2-1.6-4.9h-1.9c-.3.4-.3 1-.3 1.6.3 1.4.5 2.6.4 3.6-1.4 1-3.4 2.3-5.9 4-.6-.2-.8-.2-.6-.2v-8.9c-.2-.4-.6-.6-1.3-.5H679l-1.5 11.8c-1.2.1-2.6.1-4.3 0-.6-2.8-1.6-6.9-3.1-12.3h-1c-.9 2.9-1.4 4.5-1.5 4.8 0 .3.1 1 .3 1.9.2 1 .3 1.6.3 1.9 0 .2-.1.9-.2 1.9l-.4 3c-.2.2-.4.2-.6.2-2.5 0-4.2-.6-5-1.9-.8-1.3-1.2-3-1-5.3l1-15c0-.3.1-.6.2-1 .2-.4.2-.7.2-.9 0-.7-.7-2-2.1-4-.2-.1-1.5-.4-3.9-.9l-8.4-1.8c-5.8-1.1-8.7-5.7-8.7-13.9 0-12.2 5-22.4 15.1-30.5.4 2.3 1.1 5.3 2.1 9 .8.2 2.4.5 4.9 1.1.5.2 3.1 1.1 7.7 2.8-2.3-1.4-5.4-3.7-9.2-6.9-1.4-1.7-2.1-4.5-2.1-8.4 0-.9 1.6-2 4.8-3.3 2.8-1.2 5-1.8 6.4-2 4.5-.6 8-.9 10.4-.9 10.4 0 18.9 2.7 25.3 8-2.1 2.4-5.7 5-10.8 7.8 2 .1 4.9-.7 8.8-2.4 3.8-1.7 5.5-2.5 4.9-2.5.7 0 2 1.3 4 4 1.5 2 2.7 3.8 3.6 5.4 2.7 4.8 4.5 9.9 5.4 15.4 0 1.9 0 3.3.1 4.1v1.4zm-48 2.3c0-3.6-1.6-7-4.7-10.2-3.1-3.2-6.5-4.8-10.1-4.8-3.2 0-6 1.3-8.4 4-2.4 2.7-3.6 5.7-3.6 9 0 2.9 1.4 4.7 4.1 5.6 1.8.5 4.2.8 7.4.9h6.9c5.6 0 8.4-1.5 8.4-4.5zm13.6 15.5v-3.9c-.6-1.1-1.2-2.2-1.8-3.4-.5-1.7-1.4-4-2.8-7l-1.4 14.7c0 1.2-.2 1.8-.8 1.8-.3 0-.6-.1-.8-.2-.6-8.9-.9-12.7-.9-11.5v-4.4c-.2-.3-.4-.4-.6-.4-2.8 2.9-4.3 7.7-4.3 14.2 0 3.6.3 5.8 1 6.6.7-.2 1.4-.5 2.3-.9.3-.2 1.3-.3 2.9-.3 1.6 0 3.5.5 5.8 1.5 1 0 1.4-2.3 1.4-6.8zm28.4-17.4c0-3.4-1.3-6.4-3.8-9-2.5-2.6-5.4-4-8.7-4-3.5 0-6.8 1.6-9.8 4.8-3.1 3.2-4.6 6.6-4.6 10.1 0 2.9 1.4 4.4 4.3 4.4h14.4c5.5-.1 8.2-2.2 8.2-6.3z" class="st1"/><g id="svg_73"><circle id="svg_74" cx="575" cy="260" r="50" class="st5"/></g><path id="svg_75" d="M592.5 293.7c-4.8 4.9-10.7 7.3-17.7 7.3-7.9 0-14.1-2.7-18.7-8.1-4.4-5.1-6.5-11.7-6.5-19.6 0-8.5 3.7-18.3 11.1-29.2 6.1-9 13.2-16.8 21.4-23.6-1.2 5.5-1.8 9.4-1.8 11.7 0 5.3 1.7 10.5 5 15.5 4.1 6 7.2 10.4 9.4 13.3 3.3 5 5 10 5 14.7 0 7.2-2.4 13.2-7.2 18zm-.1-27.3c-1.3-2.9-2.8-4.8-4.5-5.7.3.5.4 1.2.4 2.2 0 1.8-.5 4.4-1.5 7.7l-1.7 5.1c0 3 1.5 4.5 4.5 4.5 3.2 0 4.7-2.1 4.7-6.3 0-2.2-.7-4.7-1.9-7.5z" class="st1"/><g id="svg_76"><circle id="svg_77" cx="470" cy="260" r="50" class="st6"/></g><path id="svg_78" d="M517.7 267.1c-6.6-3.7-10.8-5.6-12.6-5.6-1.3 0-2.4 1-3.2 3.1-.8 2.1-2.3 3.1-4.5 3.1-.9 0-2.8-.3-5.7-1-1.6 2.4-2.4 4-2.4 4.7 0 .9.7 2 2.1 3.3 1.4 1.3 2.5 1.9 3.5 1.9.6 0 1.4-.1 2.4-.4 1-.2 1.7-.4 2.1-.4 1 0 1.5 1.9 1.5 5.7 0 3.6-.8 9.2-2.5 16.7-2.2-8.6-4.5-12.9-6.9-12.9-.3 0-1 .3-2.1.8s-1.8.8-2.3.8c-2.4 0-4.6-2.2-6.6-6.7-3.9.6-5.8 2.6-5.8 5.9 0 1.7.8 3 2.3 4 1.6 1 2.3 1.7 2.3 2.1 0 2.3-3.3 5.8-10 10.5-3.5 2.5-6 4.3-7.3 5.3 1.2-1.5 2.4-3.5 3.5-5.9 1.3-2.8 2-4.9 2-6.4 0-.8-1-2-2.9-3.5s-2.9-3.1-2.9-4.8c0-1.4.5-3.2 1.5-5.3-1.1-1.3-2.4-1.9-3.9-1.9-3.4 0-5 1.1-5 3.3v3.4c.1 2.8-2 4.2-6.3 4.2-3.3 0-8.8-.8-16.5-2.3 8.7-2.2 13.1-4.7 13.1-7.6 0 .3-.2-.7-.5-3-.3-2.6 1.5-5 5.6-7.1-.8-3.9-2.8-5.8-6.1-5.8-.5 0-1.4.9-2.8 2.6-1.3 1.8-2.6 2.7-3.8 2.7-2 0-4.6-2.2-7.8-6.6-1.5-2.2-3.8-5.4-6.9-9.7 1.9 1 3.9 2 5.8 3 2.5 1.2 4.5 1.8 6.1 1.8 1.2 0 2.3-1 3.5-3.1s2.6-3.1 4.5-3.1c.3 0 1.9.5 5 1.5 1.6-2.4 2.4-4.2 2.4-5.4 0-1-.6-2.2-1.8-3.5-1.2-1.3-2.3-2-3.3-2-.4 0-1.1.1-2 .4-.9.3-1.5.4-2 .4-1.5 0-2.3-1.9-2.3-5.7 0-1 1-6.8 2.9-17.3-.1 1.3.5 3.6 1.6 7.1 1.4 4.2 3.1 6.3 5 6.3.3 0 1-.3 2-.8s1.8-.8 2.4-.8c1.9 0 3.5 1.1 4.8 3.3l1.9 3.4c1.8 0 3.2-.6 4.4-1.9 1.2-1.3 1.8-2.8 1.8-4.5 0-1.9-.8-3.3-2.3-4.2-1.6-1-2.3-1.7-2.3-2.2 0-1.8 2.8-4.8 8.3-9 4.5-3.4 7.4-5.3 8.7-5.9-3.6 4.9-5.4 8.5-5.4 10.7 0 1.2.7 2.4 2.1 3.8 1.8 1.6 2.8 2.7 3 3.4.8 1.9.8 4.6-.3 7.9 2.3 1.6 4 2.4 5.2 2.4 2.4 0 3.7-1.3 3.7-3.8 0-.3-.1-1.1-.3-2.4-.2-1.3-.3-2.1-.2-2.3.3-1.2 2.6-1.8 6.9-1.8 2.7 0 8.3.8 16.8 2.3-1.9.5-4.6 1.3-8.3 2.3-3.4 1-5 2.1-5 3.4 0 .6.2 1.6.6 3 .4 1.4.6 2.5.6 3.2 0 1.2-.8 2.3-2.3 3.3l-4.3 3c1 1.9 1.7 2.9 2 3.3.8 1 2 1.5 3.4 1.5 1 0 1.9-.9 2.8-2.6.8-1.8 2.2-2.6 4-2.6 2.3 0 4.8 2.1 7.7 6.3 1.7 2.3 4.2 5.9 7.6 10.7zm-28-7.3c0-5.4-2-10.1-5.9-14-4-4-8.6-5.9-14-5.9-5.5 0-10.2 2-14.1 5.9-4 3.9-6 8.6-6.1 14.1-.1 5.4 1.9 10 6 13.9 4.1 3.9 8.8 5.9 14.2 5.9 5.7 0 10.5-1.9 14.3-5.6 3.8-3.9 5.7-8.6 5.6-14.3zm-1.9 0c0 5.1-1.7 9.4-5.2 12.7-3.5 3.4-7.7 5-12.9 5-5 0-9.2-1.7-12.7-5.2-3.5-3.4-5.3-7.7-5.3-12.6 0-4.9 1.8-9.1 5.4-12.6 3.6-3.5 7.8-5.2 12.7-5.2 4.9 0 9.1 1.8 12.7 5.3 3.5 3.6 5.3 7.8 5.3 12.6z" class="st1"/><g id="svg_79"><path id="svg_80" d="M205 260c0 27.6-22.4 50-50 50s-50-22.4-50-50 22.4-50 50-50 50 22.4 50 50z" class="st0"/></g><g id="svg_81"><path id="svg_82" d="M161.6 290v-3.3c4.7-.5 7.1-1.9 7.1-4.1 0-1.6-.6-3.2-1.9-4.7l-13-16-10.3 12.1c-2.6 3-3.9 5.4-3.9 7.4 0 3 2.4 4.8 7.1 5.4v3.3h-25.1v-3.3c3.2-.6 5.9-1.8 8.1-3.4 1.5-1.2 3.6-3.4 6.3-6.4l15.4-17.9-17.9-21.7c-2.3-2.8-4.1-4.6-5.4-5.5-1.7-1.2-4.1-2-7.2-2.4V226h29.5v3.3c-4.5.9-6.7 2.2-6.7 4.1 0 1.2.6 2.6 1.8 4.1l11.8 14.3 9.5-11.7c1.7-2.1 2.6-3.9 2.6-5.5 0-2.6-2.1-4.3-6.3-5.1V226h23.5v3.3c-2.1.4-3.5.8-4.2 1.2-2.6 1.2-6.5 4.9-11.8 10.9-.9 1-4.5 5.4-10.8 13.3l19 23.4c4.1 5.1 8.3 8 12.6 8.7v3.3h-29.8z" class="st1"/></g><g id="svg_83"><path id="svg_84" d="M85.3 329.6c9.1 9.1 14.7 21.6 14.7 35.4 0 27.6-22.4 50-50 50-13.8 0-26.3-5.6-35.4-14.6" class="st5"/><path id="svg_85" d="M14.6 400.4C5.6 391.3 0 378.8 0 365c0-27.6 22.4-50 50-50 13.8 0 26.3 5.6 35.3 14.6" class="st6"/></g><path id="svg_86" d="M76.7 398.7c-2.7 2.7-6 4.1-9.9 4.1-4.4 0-7.9-1.5-10.5-4.5-2.5-2.9-3.7-6.6-3.7-11 0-4.8 2.1-10.3 6.3-16.4 3.4-5 7.4-9.5 12-13.3-.7 3.1-1 5.3-1 6.6 0 3 .9 5.9 2.8 8.7 2.3 3.4 4.1 5.9 5.3 7.5 1.9 2.8 2.8 5.6 2.8 8.3 0 3.9-1.4 7.2-4.1 10zm0-15.4c-.7-1.6-1.6-2.7-2.5-3.2.1.3.2.7.2 1.2 0 1-.3 2.5-.9 4.3l-.9 2.9c0 1.7.8 2.5 2.5 2.5 1.8 0 2.7-1.2 2.7-3.5-.1-1.2-.4-2.6-1.1-4.2z" class="st1"/><path id="svg_87" d="M54.7 353.3c-2.4-2.3-4.1-3.5-4.8-3.7-.6-.1-1.1.2-1.7 1s-1.3 1.1-2.3.9c-.4-.1-1.2-.4-2.3-1-.9.9-1.4 1.5-1.5 1.8-.1.4.1.9.6 1.6.5.7.9 1.1 1.3 1.2.3.1.6.1 1.1.1s.8 0 .9.1c.4.1.5 1 .1 2.6s-1.3 3.9-2.8 6.9c-.1-3.9-.6-6-1.7-6.2-.1 0-.5 0-1 .1s-.9.1-1.1.1c-1-.3-1.8-1.4-2.1-3.5-1.7-.1-2.8.5-3.1 1.9-.2.7 0 1.4.6 2 .6.6.8 1 .8 1.2-.2 1-2 2.1-5.4 3.5-1.8.7-3 1.2-3.7 1.5.7-.5 1.4-1.3 2.1-2.2.9-1.1 1.4-1.9 1.5-2.6.1-.4-.2-1-.9-1.8s-.9-1.6-.8-2.4c.1-.6.5-1.3 1.2-2.1-.3-.7-.8-1.1-1.5-1.2-1.4-.3-2.3 0-2.5.9.2-.6 0-.2-.3 1.5-.2 1.2-1.3 1.6-3.1 1.1-1.4-.3-3.7-1.2-6.9-2.7 4 0 6.1-.7 6.4-1.9 0 .1 0-.3.1-1.4.1-1.2 1.2-2 3.1-2.5.1-1.7-.6-2.8-2-3.1-.2-.1-.7.2-1.5.9-.8.6-1.4.9-1.9.7-.9-.2-1.8-1.4-2.7-3.6-.4-1.1-1.1-2.7-2-4.9.7.6 1.5 1.3 2.2 1.9 1 .8 1.8 1.2 2.4 1.4.5.1 1.1-.2 1.8-1s1.4-1.1 2.2-.9c.1 0 .8.4 2 1.2.9-.9 1.5-1.6 1.6-2.1.1-.4 0-1-.4-1.7s-.8-1.1-1.2-1.2c-.2 0-.5-.1-.9 0h-.9c-.6-.2-.8-1-.4-2.7.1-.4 1.1-2.8 3-7.1-.2.5-.2 1.6 0 3.2.2 2 .7 3 1.5 3.2.1 0 .5 0 .9-.1.5-.1.9-.1 1.1-.1.8.2 1.4.8 1.7 1.9l.5 1.7c.8.2 1.5.1 2.1-.4.6-.4 1-1 1.2-1.8.2-.8 0-1.5-.6-2.1-.6-.6-.8-1-.8-1.2.2-.8 1.7-1.8 4.5-3 2.3-1 3.7-1.5 4.3-1.7-2.1 1.7-3.2 3.1-3.4 4-.1.5.1 1.1.5 1.8.6.9.9 1.5 1 1.8.2.9-.1 2-.9 3.4.8.9 1.5 1.4 2 1.6 1 .2 1.7-.2 2-1.2 0-.1.1-.5.1-1.1 0-.6.1-.9.2-1 .3-.5 1.3-.5 3.2 0 1.2.3 3.5 1.2 7 2.7-.8 0-2.1.1-3.8.1-1.5.1-2.4.4-2.5.9-.1.3-.1.7 0 1.4 0 .7 0 1.1-.1 1.4-.1.5-.6.9-1.3 1.2l-2.2.9c.2.9.4 1.4.5 1.6.3.5.7.9 1.3 1 .4.1.9-.2 1.5-.9.5-.7 1.2-.9 2-.7 1 .2 1.9 1.4 2.7 3.5.5 1.2 1.2 3 2.2 5.4zm-11.3-6.1c.6-2.3.2-4.5-1.1-6.6-1.3-2.1-3.1-3.4-5.4-4-2.3-.6-4.6-.2-6.7 1.1-2.1 1.3-3.4 3.1-4 5.4-.6 2.3-.2 4.5 1.1 6.6 1.3 2.1 3.2 3.4 5.5 4 2.5.6 4.7.3 6.7-.9 2-1.3 3.3-3.1 3.9-5.6zm-.8-.1c-.5 2.2-1.7 3.9-3.5 4.9-1.8 1.1-3.8 1.4-6 .8-2.1-.5-3.8-1.7-4.9-3.5s-1.5-3.8-1-6c.5-2.1 1.7-3.7 3.6-4.8 1.9-1.1 3.9-1.4 6-.9 2.1.5 3.7 1.7 4.9 3.6 1 1.8 1.4 3.8.9 5.9z" class="st1"/><g id="svg_88"><path id="svg_89" d="M190.3 329.6c9.1 9.1 14.7 21.6 14.7 35.4 0 27.6-22.4 50-50 50-13.8 0-26.3-5.6-35.4-14.6" class="st4"/><path id="svg_90" d="M119.6 400.4c-9-9-14.6-21.5-14.6-35.4 0-27.6 22.4-50 50-50 13.8 0 26.3 5.6 35.4 14.6" class="st6"/></g><path id="svg_91" d="M194.6 381c0 2.7-1 4.5-2.9 5.5-.6.3-2.4.7-5.4 1.2-2 .3-2.9 1.1-2.9 2.3v5c0 .2.1.8.2 1.9l.2 2c0 .6-.1 1.6-.4 3-.8.2-1.7.3-2.7.6-.3-1.2-.5-2.1-.5-2.5 0-.2 0-.5.2-.9.1-.4.2-.7.2-.9 0-.3-.3-1.1-.8-2.4h-1c-.1.2-.2.5-.1.8.2.7.2 1.3.2 1.8-.7.5-1.7 1.1-2.9 2-.3-.1-.4-.1-.3-.1v-4.4c-.1-.2-.3-.3-.6-.2h-.7l-.7 5.8h-2.1c-.3-1.4-.8-3.4-1.5-6h-.5c-.4 1.4-.7 2.2-.7 2.3 0 .2.1.5.2 1s.2.8.2 1c0 .1 0 .4-.1.9l-.2 1.5c-.1.1-.2.1-.3.1-1.2 0-2-.3-2.5-.9-.4-.6-.6-1.5-.5-2.6l.5-7.4c0-.1 0-.3.1-.5s.1-.3.1-.4c0-.3-.3-1-1-2-.1 0-.8-.2-1.9-.4-.7-.2-2.1-.4-4.1-.9-2.8-.5-4.2-2.8-4.2-6.8 0-6 2.5-10.9 7.4-14.9.2 1.1.6 2.6 1 4.4l2.4.6c.2.1 1.5.5 3.7 1.4-1.1-.7-2.6-1.8-4.5-3.4-.7-.8-1-2.2-1-4.1 0-.5.8-1 2.3-1.6 1.4-.6 2.4-.9 3.1-1 2.2-.3 3.9-.4 5.1-.4 5.1 0 9.2 1.3 12.4 3.9-1 1.2-2.8 2.5-5.3 3.8 1 0 2.4-.3 4.3-1.2 1.9-.8 2.7-1.2 2.4-1.2.3 0 1 .7 2 2 .7 1 1.3 1.9 1.8 2.6 1.3 2.3 2.2 4.9 2.6 7.6 0 .9 0 1.6.1 2l-.4.1zm-23.5 1.1c0-1.8-.8-3.4-2.3-5-1.5-1.6-3.2-2.4-4.9-2.4-1.6 0-2.9.7-4.1 2-1.2 1.3-1.8 2.8-1.8 4.4 0 1.4.7 2.3 2 2.7.9.2 2.1.4 3.6.4h3.4c2.7.1 4.1-.6 4.1-2.1zm6.7 7.6v-1.9c-.3-.5-.6-1.1-.9-1.7-.2-.8-.7-2-1.4-3.4l-.7 7.2c0 .6-.1.9-.4.9-.2 0-.3 0-.4-.1-.3-4.3-.4-6.2-.4-5.6V383c-.1-.1-.2-.2-.3-.2-1.4 1.4-2.1 3.7-2.1 6.9 0 1.8.2 2.8.5 3.3.3-.1.7-.2 1.1-.4.2-.1.6-.1 1.4-.1.8 0 1.7.2 2.8.7.6-.2.8-1.3.8-3.5zm13.9-8.5c0-1.6-.6-3.1-1.8-4.4-1.2-1.3-2.6-1.9-4.2-1.9-1.7 0-3.3.8-4.8 2.4-1.5 1.6-2.2 3.2-2.2 4.9 0 1.4.7 2.1 2.1 2.1h7.1c2.4-.1 3.8-1.1 3.8-3.1z" class="st1"/><path id="svg_92" d="M159.7 353.3c-2.4-2.3-4.1-3.5-4.8-3.7-.6-.1-1.1.2-1.7 1s-1.3 1.1-2.3.9c-.4-.1-1.2-.4-2.3-1-.9.9-1.4 1.5-1.5 1.8-.1.4.1.9.6 1.6.5.7.9 1.1 1.3 1.2.3.1.6.1 1.1.1.5 0 .8 0 .9.1.4.1.5 1 .1 2.6s-1.3 3.9-2.8 6.9c-.1-3.9-.6-6-1.7-6.2-.1 0-.5 0-1 .1s-.9.1-1.1.1c-1-.2-1.8-1.4-2.1-3.5-1.7-.1-2.8.5-3.1 1.9-.2.7 0 1.4.6 2 .6.6.8 1 .8 1.2-.2 1-2 2.1-5.4 3.5-1.8.7-3 1.2-3.7 1.5.7-.5 1.4-1.3 2.1-2.2.9-1.1 1.4-1.9 1.5-2.6.1-.4-.2-1-.9-1.8-.7-.9-.9-1.6-.8-2.4.1-.6.5-1.3 1.2-2.1-.3-.7-.8-1.1-1.5-1.2-1.4-.3-2.3-.1-2.5.9.2-.6 0-.2-.3 1.5-.2 1.2-1.3 1.6-3.1 1.1-1.4-.3-3.7-1.2-6.9-2.7 4 0 6.1-.7 6.4-1.9 0 .1 0-.3.1-1.4.1-1.2 1.2-2 3.1-2.5.1-1.7-.6-2.8-2-3.1-.2-.1-.7.2-1.5.9-.8.6-1.4.9-1.9.8-.9-.2-1.8-1.4-2.7-3.6-.4-1.1-1.1-2.7-2-4.9.7.6 1.5 1.3 2.2 1.9 1 .8 1.8 1.2 2.4 1.4.5.1 1.1-.2 1.8-1s1.4-1.1 2.2-.9c.1 0 .8.4 2 1.2.9-.9 1.5-1.6 1.6-2.1.1-.4 0-1-.4-1.7s-.8-1.1-1.2-1.2c-.2 0-.5-.1-.9 0h-.9c-.7-.2-.8-1-.4-2.7.1-.4 1.1-2.8 3-7.1-.2.5-.2 1.6 0 3.2.2 2 .7 3 1.5 3.2.1 0 .5 0 .9-.1.5-.1.9-.1 1.1-.1.8.2 1.4.8 1.7 1.9l.5 1.7c.8.2 1.5.1 2.1-.4.6-.4 1-1 1.2-1.8.2-.8 0-1.5-.6-2.1-.6-.6-.8-1-.8-1.2.2-.8 1.7-1.8 4.5-3 2.3-1 3.7-1.5 4.3-1.7-2.1 1.7-3.2 3.1-3.4 4-.1.5.1 1.1.5 1.8.6.9.9 1.5 1 1.8.2.9-.1 2-.9 3.4.8.9 1.5 1.4 2 1.6 1 .2 1.7-.2 2-1.2 0-.1.1-.5.1-1.1 0-.6.1-.9.2-1 .3-.5 1.3-.5 3.2 0 1.2.3 3.5 1.2 7 2.7-.8 0-2.1.1-3.8.1-1.5.1-2.4.4-2.5.9-.1.3-.1.7 0 1.4 0 .7 0 1.1-.1 1.4-.1.5-.6.9-1.3 1.2l-2.2.9c.2.9.4 1.4.5 1.6.3.5.7.9 1.3 1 .4.1.9-.2 1.5-.9.5-.7 1.2-.9 2-.7 1 .2 1.9 1.4 2.7 3.5.5 1.1 1.2 2.9 2.2 5.3zm-11.3-6.1c.6-2.3.2-4.5-1.1-6.6-1.3-2.1-3.1-3.4-5.4-4-2.3-.6-4.6-.2-6.7 1.1-2.1 1.3-3.4 3.1-4 5.4-.6 2.3-.2 4.5 1.1 6.6 1.4 2.1 3.2 3.4 5.5 4 2.5.6 4.7.3 6.7-.9 2-1.3 3.3-3.1 3.9-5.6zm-.8-.1c-.5 2.2-1.7 3.9-3.5 4.9-1.8 1.1-3.8 1.4-6 .8-2.1-.5-3.8-1.7-4.9-3.5-1.2-1.8-1.5-3.8-1-6 .5-2.1 1.7-3.7 3.6-4.8 1.9-1.1 3.9-1.4 6-.9 2.1.5 3.7 1.7 4.9 3.6 1 1.8 1.4 3.8.9 5.9z" class="st1"/><g id="svg_93"><path id="svg_94" d="M295.3 329.6c9.1 9.1 14.7 21.6 14.7 35.4 0 27.6-22.4 50-50 50-13.8 0-26.3-5.6-35.4-14.6" class="st4"/><path id="svg_95" d="M224.6 400.4c-9-9-14.6-21.5-14.6-35.4 0-27.6 22.4-50 50-50 13.8 0 26.3 5.6 35.3 14.6" class="st5"/></g><path id="svg_96" d="M251.1 363.2c-2.7 2.7-6 4.1-9.9 4.1-4.4 0-7.9-1.5-10.5-4.5-2.5-2.9-3.7-6.6-3.7-11 0-4.8 2.1-10.3 6.3-16.4 3.4-5 7.4-9.5 12-13.3-.7 3.1-1 5.3-1 6.6 0 3 .9 5.9 2.8 8.7 2.3 3.4 4.1 5.9 5.3 7.5 1.9 2.8 2.8 5.6 2.8 8.3 0 3.9-1.4 7.2-4.1 10zm-.1-15.4c-.7-1.6-1.6-2.7-2.5-3.2.1.3.2.7.2 1.2 0 1-.3 2.5-.9 4.3l-.9 2.9c0 1.7.8 2.5 2.5 2.5 1.8 0 2.7-1.2 2.7-3.5 0-1.2-.3-2.6-1.1-4.2z" class="st1"/><path id="svg_97" d="M299.6 381c0 2.7-1 4.5-2.9 5.5-.6.3-2.4.7-5.4 1.2-2 .3-2.9 1.1-2.9 2.3v5c0 .2.1.8.2 1.9l.2 2c0 .6-.1 1.6-.4 3-.8.2-1.7.3-2.7.6-.3-1.2-.5-2.1-.5-2.5 0-.2 0-.5.2-.9.1-.4.2-.7.2-.9 0-.3-.3-1.1-.8-2.4h-1c-.1.2-.2.5-.1.8.2.7.2 1.3.2 1.8-.7.5-1.7 1.1-2.9 2-.3-.1-.4-.1-.3-.1v-4.4c-.1-.2-.3-.3-.6-.2h-.7l-.7 5.8h-2.1c-.3-1.4-.8-3.4-1.5-6h-.5c-.5 1.4-.7 2.2-.7 2.3 0 .2.1.5.2 1s.2.8.2 1c0 .1 0 .4-.1.9l-.2 1.5c-.1.1-.2.1-.3.1-1.2 0-2-.3-2.5-.9-.4-.6-.6-1.5-.5-2.6l.5-7.4c0-.1 0-.3.1-.5s.1-.3.1-.4c0-.3-.3-1-1-2-.1 0-.8-.2-1.9-.4-.7-.2-2.1-.4-4.1-.9-2.8-.5-4.2-2.8-4.2-6.8 0-6 2.5-10.9 7.4-14.9.2 1.1.6 2.6 1 4.4l2.4.6c.2.1 1.5.5 3.7 1.4-1.1-.7-2.6-1.8-4.5-3.4-.7-.8-1-2.2-1-4.1 0-.5.8-1 2.3-1.6 1.4-.6 2.4-.9 3.1-1 2.2-.3 3.9-.4 5.1-.4 5.1 0 9.2 1.3 12.4 3.9-1 1.2-2.8 2.5-5.3 3.8 1 0 2.4-.3 4.3-1.2 1.9-.8 2.7-1.2 2.4-1.2.3 0 1 .7 2 2 .7 1 1.3 1.9 1.8 2.6 1.3 2.3 2.2 4.9 2.6 7.6 0 .9 0 1.6.1 2v.1h-.4zm-23.5 1.1c0-1.8-.8-3.4-2.3-5-1.5-1.6-3.2-2.4-4.9-2.4-1.6 0-2.9.7-4.1 2-1.2 1.3-1.8 2.8-1.8 4.4 0 1.4.7 2.3 2 2.7.9.2 2.1.4 3.6.4h3.4c2.7.1 4.1-.6 4.1-2.1zm6.7 7.6v-1.9c-.3-.5-.6-1.1-.9-1.7-.2-.8-.7-2-1.4-3.4l-.7 7.2c0 .6-.1.9-.4.9-.2 0-.3 0-.4-.1-.3-4.3-.4-6.2-.4-5.6V383c-.1-.1-.2-.2-.3-.2-1.4 1.4-2.1 3.7-2.1 6.9 0 1.8.2 2.8.5 3.3.3-.1.7-.2 1.1-.4.2-.1.6-.1 1.4-.1.8 0 1.7.2 2.8.7.6-.2.8-1.3.8-3.5zm13.9-8.5c0-1.6-.6-3.1-1.8-4.4-1.2-1.3-2.6-1.9-4.2-1.9-1.7 0-3.3.8-4.8 2.4-1.5 1.6-2.2 3.2-2.2 4.9 0 1.4.7 2.1 2.1 2.1h7.1c2.4-.1 3.8-1.1 3.8-3.1z" class="st1"/><g id="svg_98"><path id="svg_99" d="M400.3 329.6c9.1 9.1 14.7 21.6 14.7 35.4 0 27.6-22.4 50-50 50-13.8 0-26.3-5.6-35.4-14.6" class="st3"/><path id="svg_100" d="M329.6 400.4c-9-9-14.6-21.5-14.6-35.4 0-27.6 22.4-50 50-50 13.8 0 26.3 5.6 35.3 14.6" class="st5"/></g><path id="svg_101" d="M403.3 389.4c-1.7 4.1-5.1 6.1-10.2 6.1-.9 0-2 .1-3 .4-1.6.4-2.5.8-2.5 1.5 0 .2.1.4.4.7.3.3.5.4.7.4-1 0-.3 0 2 .1s3.7.1 4.3.1c-3.4 2-9.1 2.9-17 2.8-2.6 0-4.9-1.2-6.7-3.5-1.8-2.1-2.8-4.5-2.8-7.2 0-2.8.9-5.2 2.8-7.2s4.2-3 7.1-3c.6 0 1.5.1 2.5.4 1 .3 1.7.4 2.1.4 1.4 0 3.2-.6 5.4-1.8 2.1-1.2 3.2-1.8 3-1.8-.4 4.1-1.8 6.8-4.1 8.2-1.7 1-2.5 1.9-2.5 2.9 0 .6.3 1.1 1.1 1.4.5.3 1.2.4 1.8.4 1 0 2-.6 3-1.9 1-1.2 1.4-2.4 1.3-3.4-.1-1.2 0-2.6.2-4.2.1-.5.4-1 .8-1.7.5-.7.9-1.1 1.3-1.3 0 .4-.1.9-.4 1.8-.3.8-.4 1.4-.4 1.8 0 .9.2 1.5.7 2 .7-.3 1.3-1.1 1.9-2.6.5-1.1.7-2.2.8-3.3-1.6-.1-3.2-.8-4.7-2.2-1.5-1.4-2.3-2.9-2.3-4.6 0-.3 0-.5.1-.8.2.4.6.9 1.1 1.6.7 1 1.2 1.5 1.5 1.5.5 0 .7-.5.7-1.5 0-1.2-.3-2.4-1-3.4-.7-1.2-1.7-1.8-2.9-1.8-.5 0-1.4.3-2.5.9-1.1.6-2.1.9-3 .9-.3 0-1.5-.4-3.6-1.1 3.8-.6 5.7-1.2 5.7-1.7 0-1.3-2.6-2.2-7.8-2.7-.5 0-1.4-.1-2.8-.2.2-.2 1.3-.4 3.3-.6 1.8-.2 3-.3 3.7-.3 9.3 0 15.2 4.5 17.7 13.5.4-.4.6-1 .6-1.8 0-1.1-.3-2.4-.9-4-.2-.6-.6-1.6-1.1-2.8 3.2 4.1 4.8 7.9 4.8 11.6 0 1.9-.5 3.7-1.3 5.2-.6 1.1-1.7 2.4-3.3 4.1-1.6 1.6-2.7 2.9-3.3 3.8 2.1-.6 3.6-1 4.2-1.3 1.5-.7 2.8-1.7 4-3 .1.5-.1 1.2-.5 2.2zm-25.5-23c0 .7-.4 1.2-1.2 1.3l-1.5.2c-.5.3-1.3 1.3-2.4 3.2-.1-.6-.3-1.4-.5-2.5-.4 0-.9.4-1.8.9-.4.3-.9.7-1.7 1.2.2-1.4 1-2.8 2.3-4.3 1.4-1.6 2.8-2.4 4.1-2.4 1.8.3 2.7 1 2.7 2.4zm10.2 5.4c0 .7-.4 1.2-1.1 1.7-.7.4-1.4.7-2.1.7-.9 0-1.8-.5-2.5-1.6-.9-1.3-1.8-2.1-2.8-2.5.2-.2.4-.3.7-.3.3 0 .9.3 1.8.8.8.5 1.4.8 1.6.8.2 0 .5-.3 1-.8.4-.5.9-.8 1.5-.8 1.2 0 1.9.7 1.9 2z" class="st1"/><path id="svg_102" d="M356.1 363.2c-2.7 2.7-6 4.1-9.9 4.1-4.4 0-7.9-1.5-10.5-4.5-2.5-2.9-3.7-6.6-3.7-11 0-4.8 2.1-10.3 6.3-16.4 3.4-5 7.4-9.5 12-13.3-.7 3.1-1 5.3-1 6.6 0 3 .9 5.9 2.8 8.7 2.3 3.4 4.1 5.9 5.3 7.5 1.9 2.8 2.8 5.6 2.8 8.3 0 3.9-1.4 7.2-4.1 10zm-.1-15.4c-.7-1.6-1.6-2.7-2.5-3.2.1.3.2.7.2 1.2 0 1-.3 2.5-.9 4.3l-.9 2.9c0 1.7.8 2.5 2.5 2.5 1.8 0 2.7-1.2 2.7-3.5 0-1.2-.3-2.6-1.1-4.2z" class="st1"/><g id="svg_103"><path id="svg_104" d="M505.3 329.6c9.1 9.1 14.7 21.6 14.7 35.4 0 27.6-22.4 50-50 50-13.8 0-26.3-5.6-35.4-14.6" class="st3"/><path id="svg_105" d="M434.6 400.4c-9-9-14.6-21.5-14.6-35.4 0-27.6 22.4-50 50-50 13.8 0 26.3 5.6 35.3 14.6" class="st4"/></g><path id="svg_106" d="M508.3 389.4c-1.7 4.1-5.1 6.1-10.2 6.1-.9 0-2 .1-3 .4-1.6.4-2.5.8-2.5 1.5 0 .2.1.4.4.7.3.3.5.4.7.4-1 0-.3 0 2 .1s3.7.1 4.3.1c-3.4 2-9.1 2.9-17 2.8-2.6 0-4.9-1.2-6.7-3.5-1.8-2.1-2.8-4.5-2.8-7.2 0-2.8.9-5.2 2.8-7.2s4.2-3 7.1-3c.6 0 1.5.1 2.5.4 1 .3 1.7.4 2.1.4 1.4 0 3.2-.6 5.4-1.8 2.1-1.2 3.2-1.8 3-1.8-.4 4.1-1.8 6.8-4.1 8.2-1.7 1-2.5 1.9-2.5 2.9 0 .6.3 1.1 1.1 1.4.5.3 1.2.4 1.8.4 1 0 2-.6 3-1.9 1-1.2 1.4-2.4 1.3-3.4-.1-1.2 0-2.6.2-4.2.1-.5.4-1 .8-1.7.5-.7.9-1.1 1.3-1.3 0 .4-.1.9-.4 1.8-.3.8-.4 1.4-.4 1.8 0 .9.2 1.5.7 2 .7-.3 1.3-1.1 1.9-2.6.5-1.1.7-2.2.8-3.3-1.6-.1-3.2-.8-4.7-2.2-1.5-1.4-2.3-2.9-2.3-4.6 0-.3 0-.5.1-.8.2.4.6.9 1.1 1.6.7 1 1.2 1.5 1.5 1.5.5 0 .7-.5.7-1.5 0-1.2-.3-2.4-1-3.4-.7-1.2-1.7-1.8-2.9-1.8-.5 0-1.4.3-2.5.9-1.1.6-2.1.9-3 .9-.3 0-1.5-.4-3.6-1.1 3.8-.6 5.7-1.2 5.7-1.7 0-1.3-2.6-2.2-7.8-2.7-.5 0-1.4-.1-2.8-.2.2-.2 1.3-.4 3.3-.6 1.8-.2 3-.3 3.7-.3 9.3 0 15.2 4.5 17.7 13.5.4-.4.6-1 .6-1.8 0-1.1-.3-2.4-.9-4-.2-.6-.6-1.6-1.1-2.8 3.2 4.1 4.8 7.9 4.8 11.6 0 1.9-.5 3.7-1.3 5.2-.6 1.1-1.7 2.4-3.3 4.1-1.6 1.6-2.7 2.9-3.3 3.8 2.1-.6 3.6-1 4.2-1.3 1.5-.7 2.8-1.7 4-3 .1.5-.1 1.2-.5 2.2zm-25.5-23c0 .7-.4 1.2-1.2 1.3l-1.5.2c-.5.3-1.3 1.3-2.4 3.2-.1-.6-.3-1.4-.5-2.5-.4 0-.9.4-1.8.9-.4.3-.9.7-1.7 1.2.2-1.4 1-2.8 2.3-4.3 1.4-1.6 2.8-2.4 4.1-2.4 1.8.3 2.7 1 2.7 2.4zm10.2 5.4c0 .7-.4 1.2-1.1 1.7-.7.4-1.4.7-2.1.7-.9 0-1.8-.5-2.5-1.6-.9-1.3-1.8-2.1-2.8-2.5.2-.2.4-.3.7-.3.3 0 .9.3 1.8.8.8.5 1.4.8 1.6.8.2 0 .5-.3 1-.8.4-.5.9-.8 1.5-.8 1.2 0 1.9.7 1.9 2z" class="st1"/><path id="svg_107" d="M473.3 343.1c0 2.7-1 4.5-2.9 5.5-.6.3-2.4.7-5.4 1.2-2 .3-2.9 1.1-2.9 2.3v5c0 .2.1.8.2 1.9l.2 2c0 .6-.1 1.6-.4 3-.8.2-1.7.3-2.7.6-.3-1.2-.5-2.1-.5-2.5 0-.2 0-.5.2-.9.1-.4.2-.7.2-.9 0-.3-.3-1.1-.8-2.4h-1c-.1.2-.2.5-.1.8.2.7.2 1.3.2 1.8-.7.5-1.7 1.1-2.9 2-.3-.1-.4-.1-.3-.1V358c-.1-.2-.3-.3-.6-.2h-.7l-.7 5.8h-2.1c-.3-1.4-.8-3.4-1.5-6h-.8c-.4 1.4-.7 2.2-.7 2.3 0 .2.1.5.2 1s.2.8.2 1c0 .1 0 .4-.1.9l-.2 1.5c-.1.1-.2.1-.3.1-1.2 0-2-.3-2.5-.9-.4-.6-.6-1.5-.5-2.6l.5-7.4c0-.1 0-.3.1-.5s.1-.3.1-.4c0-.3-.3-1-1-2-.1 0-.8-.2-1.9-.4-.7-.2-2.1-.4-4.1-.9-2.8-.5-4.2-2.8-4.2-6.8 0-6 2.5-10.9 7.4-14.9.2 1.1.6 2.6 1 4.4l2.4.6c.2.1 1.5.5 3.7 1.4-1.1-.7-2.6-1.8-4.5-3.4-.7-.8-1-2.2-1-4.1 0-.5.8-1 2.3-1.6 1.4-.6 2.4-.9 3.1-1 2.2-.3 3.9-.4 5.1-.4 5.1 0 9.2 1.3 12.4 3.9-1 1.2-2.8 2.5-5.3 3.8 1 0 2.4-.3 4.3-1.2 1.9-.8 2.7-1.2 2.4-1.2.3 0 1 .7 2 2 .7 1 1.3 1.9 1.8 2.6 1.3 2.3 2.2 4.9 2.6 7.6 0 .9 0 1.6.1 2v.1zm-23.6 1.1c0-1.8-.8-3.4-2.3-5-1.5-1.6-3.2-2.4-4.9-2.4-1.6 0-2.9.7-4.1 2-1.2 1.3-1.8 2.8-1.8 4.4 0 1.4.7 2.3 2 2.7.9.2 2.1.4 3.6.4h3.4c2.8.1 4.1-.6 4.1-2.1zm6.7 7.6v-1.9c-.3-.5-.6-1.1-.9-1.7-.2-.8-.7-2-1.4-3.4l-.7 7.2c0 .6-.1.9-.4.9-.2 0-.3 0-.4-.1-.3-4.3-.4-6.2-.4-5.6V345c-.1-.1-.2-.2-.3-.2-1.4 1.4-2.1 3.7-2.1 6.9 0 1.8.2 2.8.5 3.3.3-.1.7-.2 1.1-.4.2-.1.6-.1 1.4-.1.8 0 1.7.2 2.8.7.6-.1.8-1.2.8-3.4zm13.9-8.5c0-1.6-.6-3.1-1.8-4.4-1.2-1.3-2.6-1.9-4.2-1.9-1.7 0-3.3.8-4.8 2.4-1.5 1.6-2.2 3.2-2.2 4.9 0 1.4.7 2.1 2.1 2.1h7.1c2.5-.1 3.8-1.1 3.8-3.1z" class="st1"/><g id="svg_108"><path id="svg_109" d="M610.3 329.6c9.1 9.1 14.7 21.6 14.7 35.4 0 27.6-22.4 50-50 50-13.8 0-26.3-5.6-35.4-14.6" class="st2"/><path id="svg_110" d="M539.6 400.4c-9-9-14.6-21.5-14.6-35.4 0-27.6 22.4-50 50-50 13.8 0 26.3 5.6 35.3 14.6" class="st4"/></g><path id="svg_111" d="M578.3 343.1c0 2.7-1 4.5-2.9 5.5-.6.3-2.4.7-5.4 1.2-2 .3-2.9 1.1-2.9 2.3v5c0 .2.1.8.2 1.9l.2 2c0 .6-.1 1.6-.4 3-.8.2-1.7.3-2.7.6-.3-1.2-.5-2.1-.5-2.5 0-.2 0-.5.2-.9.1-.4.2-.7.2-.9 0-.3-.3-1.1-.8-2.4h-1c-.1.2-.2.5-.1.8.2.7.2 1.3.2 1.8-.7.5-1.7 1.1-2.9 2-.3-.1-.4-.1-.3-.1V358c-.1-.2-.3-.3-.6-.2h-.7l-.7 5.8h-2.1c-.3-1.4-.8-3.4-1.5-6h-.8c-.5 1.4-.7 2.2-.7 2.3 0 .2.1.5.2 1s.2.8.2 1c0 .1 0 .4-.1.9l-.2 1.5c-.1.1-.2.1-.3.1-1.2 0-2-.3-2.5-.9-.4-.6-.6-1.5-.5-2.6l.5-7.4c0-.1 0-.3.1-.5s.1-.3.1-.4c0-.3-.3-1-1-2-.1 0-.8-.2-1.9-.4-.7-.2-2.1-.4-4.1-.9-2.8-.5-4.2-2.8-4.2-6.8 0-6 2.5-10.9 7.4-14.9.2 1.1.6 2.6 1 4.4l2.4.6c.2.1 1.5.5 3.7 1.4-1.1-.7-2.6-1.8-4.5-3.4-.7-.8-1-2.2-1-4.1 0-.5.8-1 2.3-1.6 1.4-.6 2.4-.9 3.1-1 2.2-.3 3.9-.4 5.1-.4 5.1 0 9.2 1.3 12.4 3.9-1 1.2-2.8 2.5-5.3 3.8 1 0 2.4-.3 4.3-1.2 1.9-.8 2.7-1.2 2.4-1.2.3 0 1 .7 2 2 .7 1 1.3 1.9 1.8 2.6 1.3 2.3 2.2 4.9 2.6 7.6 0 .9 0 1.6.1 2l-.1.1zm-23.6 1.1c0-1.8-.8-3.4-2.3-5-1.5-1.6-3.2-2.4-4.9-2.4-1.6 0-2.9.7-4.1 2-1.2 1.3-1.8 2.8-1.8 4.4 0 1.4.7 2.3 2 2.7.9.2 2.1.4 3.6.4h3.4c2.8.1 4.1-.6 4.1-2.1zm6.7 7.6v-1.9c-.3-.5-.6-1.1-.9-1.7-.2-.8-.7-2-1.4-3.4l-.7 7.2c0 .6-.1.9-.4.9-.2 0-.3 0-.4-.1-.3-4.3-.4-6.2-.4-5.6V345c-.1-.1-.2-.2-.3-.2-1.4 1.4-2.1 3.7-2.1 6.9 0 1.8.2 2.8.5 3.3.3-.1.7-.2 1.1-.4.2-.1.6-.1 1.4-.1.8 0 1.7.2 2.8.7.6-.1.8-1.2.8-3.4zm13.9-8.5c0-1.6-.6-3.1-1.8-4.4-1.2-1.3-2.6-1.9-4.2-1.9-1.7 0-3.3.8-4.8 2.4-1.5 1.6-2.2 3.2-2.2 4.9 0 1.4.7 2.1 2.1 2.1h7.1c2.5-.1 3.8-1.1 3.8-3.1z" class="st1"/><path id="svg_112" d="M614.5 382.6c0 .8-.3 1.4-.9 2-.6.6-1.3.9-2 .9-1.2 0-2.1-.6-2.7-1.7l-2.7-.1c-.6 0-1.7.2-3.3.7-1.8.5-2.8.9-3.1 1.2-.4.5-.8 1.5-1 3.2-.2 1.4-.3 2.4-.3 3 0 1 .2 1.8.5 2.2.3.5 1 .9 2 1.2 1 .3 1.6.5 1.8.5.2 0 .4 0 .7-.1h.7c.5 0 1 .1 1.5.2.8.2 1.1.5 1 .9-.5-.1-1.5 0-2.8.3l1.6.8c0 .5-.6.7-1.9.7-.3 0-.8-.1-1.4-.2-.6-.2-1-.2-1.2-.2h-.7c0 .4-.2.9-.3 1.7-.6 0-1.4-.4-2.3-1.1-.9-.7-1.4-1.1-1.6-1.1-.2 0-.6.4-1 1.1-.4.7-.6 1.2-.6 1.5-.5-.3-.9-.8-1.2-1.5-.2-.5-.3-1-.5-1.5-.4 0-1.1.8-2.1 2.4h-.3c-.1-.1-.4-.9-.9-2.4-1.2-.4-2.3-.6-3.3-.6-.5 0-1.2.1-2.3.3l-1.6-.1c.2-.2.9-.7 2-1.3 1.3-.8 2.3-1.1 2.9-1.1.1 0 .3 0 .5.1.2 0 .3.1.5.1.3 0 .7-.1 1.3-.4.6-.3.9-.5 1-.8.1-.2.1-.8.1-1.8 0-2.2-.6-3.8-1.7-4.8-1-.9-2.6-1.6-4.9-2-.6 2.2-2.3 3.2-5.1 3.2-.9 0-1.8-.5-2.7-1.6-.9-1.1-1.4-2.1-1.4-3 0-1.4.6-2.6 1.8-3.5-.9-1-1.4-2-1.4-3 0-.9.3-1.8.9-2.5.6-.7 1.4-1.1 2.3-1.2-.1-1.2.3-2 1.2-2.5-.4-.4-.6-1.1-.6-2.2 0-1.2.4-2.3 1.2-3.1.8-.8 1.9-1.2 3.1-1.2 1.4 0 2.5.5 3.3 1.4 1.1-3.7 3.5-5.6 7.1-5.6 1.9 0 3.6.8 5 2.3.5.6.8.9.8.9-.5 0-.2-.1.7-.3.9-.2 1.6-.3 2-.3 1.5 0 2.8.5 3.9 1.6 1 1 1.7 2.2 2 3.7.3 0 .7.2 1.2.3.8.4 1.2 1.1 1.2 2.2 0 .2-.2.5-.5 1.1 2.4 1.4 3.6 3.3 3.6 5.7 0 .7-.3 1.6-.8 2.8 1.2.7 1.7 1.5 1.7 2.6zm-23.3 2.5v-.7c0-.9-.4-1.7-1.3-2.4s-1.7-1.1-2.6-1.1c-1.1 0-2 .2-2.9.7 2-.1 4.2 1.1 6.8 3.5zm-1.1-7c-.6-.6-1.1-1.3-1.5-2-1.6.4-2.4.9-2.4 1.4.5 0 1.1 0 2 .3.9.2 1.6.3 1.9.3zm3.5-1.8v-2.5c-.9-.1-1.5-.2-1.6-.2v.9l1.6 1.8zm7.4-1.6c-.5-.2-1.3-.6-2.6-1.1v4.9c1.8-1 2.6-2.3 2.6-3.8zm3.1 6.7l-1.2-1.5c-.8.5-1.5 1.1-2.3 1.6-.8.5-1.4 1.2-2 1.8 1.6-.9 3.5-1.5 5.5-1.9z" class="st1"/><g id="svg_113"><path id="svg_114" d="M715.3 329.6c9.1 9.1 14.7 21.6 14.7 35.4 0 27.6-22.4 50-50 50-13.8 0-26.3-5.6-35.4-14.6" class="st6"/><path id="svg_115" d="M644.6 400.4c-9-9-14.6-21.5-14.6-35.4 0-27.6 22.4-50 50-50 13.8 0 26.3 5.6 35.3 14.6" class="st3"/></g><path id="svg_116" d="M718 388.1c-2.4-2.3-4.1-3.5-4.8-3.7-.6-.1-1.1.2-1.7 1s-1.3 1.1-2.3.9c-.4-.1-1.2-.4-2.3-1-.9.9-1.4 1.5-1.5 1.8-.1.4.1.9.6 1.6.5.7.9 1.1 1.3 1.2.3.1.6.1 1.1.1.5 0 .8 0 .9.1.4.1.5 1 .1 2.6s-1.3 3.9-2.8 6.9c-.1-3.9-.6-6-1.7-6.2-.1 0-.5 0-1 .1s-.9.1-1.1.1c-1-.3-1.8-1.4-2.1-3.5-1.7-.1-2.8.5-3.1 1.9-.2.7 0 1.4.6 2 .6.6.8 1 .8 1.2-.2 1-2 2.1-5.4 3.5-1.8.7-3 1.2-3.7 1.5.7-.5 1.4-1.3 2.1-2.2.9-1.1 1.4-1.9 1.5-2.6.1-.4-.2-1-.9-1.8s-.9-1.6-.8-2.4c.1-.6.5-1.3 1.2-2.1-.3-.7-.8-1.1-1.5-1.2-1.4-.3-2.3 0-2.5.9.2-.7 0-.2-.3 1.5-.2 1.2-1.3 1.6-3.1 1.1-1.4-.3-3.7-1.2-6.9-2.7 4 0 6.1-.7 6.4-1.9 0 .1 0-.3.1-1.4.1-1.2 1.2-2 3.1-2.5.1-1.7-.6-2.8-2-3.1-.2-.1-.7.2-1.5.9-.8.6-1.4.9-1.9.7-.9-.2-1.8-1.4-2.7-3.6-.4-1.1-1.1-2.7-2-4.9.7.6 1.5 1.3 2.2 1.9 1 .8 1.8 1.2 2.4 1.4.5.1 1.1-.2 1.8-1s1.4-1.1 2.2-.9c.1 0 .8.4 2 1.2.9-.9 1.5-1.6 1.6-2.1.1-.4 0-1-.4-1.7s-.8-1.1-1.2-1.2c-.2 0-.5-.1-.9 0h-.9c-.6-.2-.8-1-.4-2.7.1-.4 1.1-2.8 3-7.1-.2.5-.2 1.6 0 3.2.2 2 .7 3 1.5 3.2.1 0 .5 0 .9-.1.5-.1.9-.1 1.1-.1.8.2 1.4.8 1.7 1.9l.5 1.7c.8.2 1.5.1 2.1-.4.6-.4 1-1 1.2-1.8.2-.8 0-1.5-.6-2.1-.6-.6-.8-1-.8-1.2.2-.8 1.7-1.8 4.5-3 2.3-1 3.7-1.5 4.3-1.7-2.1 1.7-3.2 3.1-3.4 4-.1.5.1 1.1.5 1.8.6.9.9 1.5 1 1.8.2.9-.1 2-.9 3.4.8.9 1.5 1.4 2 1.6 1 .2 1.7-.2 2-1.2 0-.1.1-.5.1-1.1 0-.6.1-.9.2-1 .3-.5 1.3-.5 3.2 0 1.2.3 3.5 1.2 7 2.7-.8 0-2.1.1-3.8.1-1.6.1-2.4.4-2.5.9-.1.3-.1.7 0 1.4s0 1.1-.1 1.4c-.1.5-.6.9-1.3 1.2l-2.2.9c.2.9.4 1.4.5 1.6.3.5.7.9 1.3 1 .4.1.9-.2 1.5-.9.5-.7 1.2-.9 2-.7 1 .2 1.9 1.4 2.7 3.5.5 1.2 1.2 3 2.2 5.4zm-11.3-6c.6-2.3.2-4.5-1.1-6.6s-3.1-3.4-5.4-4c-2.3-.6-4.6-.2-6.7 1.1-2.1 1.3-3.4 3.1-4 5.4-.6 2.3-.2 4.5 1.1 6.6 1.4 2.1 3.2 3.4 5.5 4 2.5.6 4.7.3 6.7-.9 2.1-1.3 3.4-3.1 3.9-5.6zm-.8-.2c-.5 2.2-1.7 3.9-3.5 4.9-1.8 1.1-3.8 1.4-6 .8-2.1-.5-3.8-1.7-4.9-3.5-1.2-1.8-1.5-3.8-1-6 .5-2.1 1.7-3.7 3.6-4.8 1.9-1.1 3.9-1.4 6-.9 2.1.5 3.7 1.7 4.9 3.6 1.1 1.9 1.4 3.8.9 5.9z" class="st1"/><path id="svg_117" d="M681.9 353.1c-1.7 4.1-5.1 6.1-10.2 6.1-.9 0-2 .1-3 .4-1.6.4-2.5.8-2.5 1.5 0 .2.1.4.4.7.3.3.5.4.7.4-1 0-.3 0 2 .1s3.7.1 4.3.1c-3.4 2-9.1 2.9-17 2.8-2.6 0-4.9-1.2-6.7-3.5-1.8-2.1-2.8-4.5-2.8-7.2 0-2.8.9-5.2 2.8-7.2s4.2-3 7.1-3c.6 0 1.5.1 2.5.4 1 .3 1.7.4 2.1.4 1.4 0 3.2-.6 5.4-1.8 2.1-1.2 3.2-1.8 3-1.8-.4 4.1-1.8 6.8-4.1 8.3-1.7 1-2.5 1.9-2.5 2.9 0 .6.3 1.1 1.1 1.4.5.3 1.2.4 1.8.4 1 0 2-.6 3-1.9 1-1.2 1.4-2.4 1.3-3.4-.1-1.2 0-2.6.2-4.2.1-.5.4-1 .8-1.7.5-.7.9-1.1 1.3-1.3 0 .4-.1.9-.4 1.8-.3.8-.4 1.4-.4 1.8 0 .9.2 1.5.7 2 .7-.3 1.3-1.1 1.9-2.6.5-1.1.7-2.2.8-3.3-1.6-.1-3.2-.8-4.7-2.2-1.5-1.4-2.3-2.9-2.3-4.6 0-.3 0-.5.1-.8.2.4.6.9 1.1 1.6.7 1 1.2 1.5 1.5 1.5.5 0 .7-.5.7-1.5 0-1.2-.3-2.4-1-3.4-.7-1.2-1.7-1.8-2.9-1.8-.5 0-1.4.3-2.5.9-1.1.6-2.1.9-3 .9-.3 0-1.5-.4-3.6-1.1 3.8-.6 5.7-1.2 5.7-1.7 0-1.3-2.6-2.2-7.8-2.7-.5 0-1.4-.1-2.8-.2.2-.2 1.3-.4 3.3-.6 1.8-.2 3-.3 3.7-.3 9.3 0 15.2 4.5 17.7 13.5.4-.4.6-.9.6-1.8 0-1.1-.3-2.4-.9-4-.2-.6-.6-1.6-1.1-2.8 3.2 4.1 4.8 7.9 4.8 11.6 0 1.9-.5 3.7-1.3 5.2-.6 1.1-1.7 2.4-3.3 4.1-1.6 1.6-2.7 2.9-3.3 3.8 2.1-.6 3.6-1 4.2-1.3 1.5-.7 2.8-1.7 4-3 .2.3 0 1.1-.5 2.1zm-25.5-23c0 .7-.4 1.1-1.2 1.3l-1.5.2c-.5.3-1.3 1.3-2.4 3.2-.1-.6-.3-1.4-.5-2.5-.4 0-.9.4-1.8.9-.4.3-.9.7-1.7 1.2.2-1.4 1-2.8 2.3-4.3 1.4-1.6 2.8-2.4 4.1-2.4 1.8.2 2.7.9 2.7 2.4zm10.2 5.4c0 .7-.4 1.2-1.1 1.7-.7.4-1.4.7-2.1.7-.9 0-1.8-.5-2.5-1.6-.9-1.3-1.8-2.1-2.8-2.5.2-.2.4-.3.7-.3.3 0 .9.3 1.8.8.8.5 1.4.8 1.6.8.2 0 .5-.3 1-.8.4-.5.9-.8 1.5-.8 1.3-.1 1.9.6 1.9 2z" class="st1"/><g id="svg_118"><path id="svg_119" d="M820.3 329.6c9.1 9.1 14.7 21.6 14.7 35.4 0 27.6-22.4 50-50 50-13.8 0-26.3-5.6-35.4-14.6" class="st2"/><path id="svg_120" d="M749.6 400.4c-9-9-14.6-21.5-14.6-35.4 0-27.6 22.4-50 50-50 13.8 0 26.3 5.6 35.3 14.6" class="st3"/></g><path id="svg_121" d="M786.9 353.1c-1.7 4.1-5.1 6.1-10.2 6.1-.9 0-2 .1-3 .4-1.6.4-2.5.8-2.5 1.5 0 .2.1.4.4.7.3.3.5.4.7.4-1 0-.3 0 2 .1s3.7.1 4.3.1c-3.4 2-9.1 2.9-17 2.8-2.6 0-4.9-1.2-6.7-3.5-1.8-2.1-2.8-4.5-2.8-7.2 0-2.8.9-5.2 2.8-7.2s4.2-3 7.1-3c.6 0 1.5.1 2.5.4 1 .3 1.7.4 2.1.4 1.4 0 3.2-.6 5.4-1.8 2.1-1.2 3.2-1.8 3-1.8-.4 4.1-1.8 6.8-4.1 8.3-1.7 1-2.5 1.9-2.5 2.9 0 .6.3 1.1 1.1 1.4.5.3 1.2.4 1.8.4 1 0 2-.6 3-1.9 1-1.2 1.4-2.4 1.3-3.4-.1-1.2 0-2.6.2-4.2.1-.5.4-1 .8-1.7.5-.7.9-1.1 1.3-1.3 0 .4-.1.9-.4 1.8-.3.8-.4 1.4-.4 1.8 0 .9.2 1.5.7 2 .7-.3 1.3-1.1 1.9-2.6.5-1.1.7-2.2.8-3.3-1.6-.1-3.2-.8-4.7-2.2-1.5-1.4-2.3-2.9-2.3-4.6 0-.3 0-.5.1-.8.2.4.6.9 1.1 1.6.7 1 1.2 1.5 1.5 1.5.5 0 .7-.5.7-1.5 0-1.2-.3-2.4-1-3.4-.7-1.2-1.7-1.8-2.9-1.8-.5 0-1.4.3-2.5.9-1.1.6-2.1.9-3 .9-.3 0-1.5-.4-3.6-1.1 3.8-.6 5.7-1.2 5.7-1.7 0-1.3-2.6-2.2-7.8-2.7-.5 0-1.4-.1-2.8-.2.2-.2 1.3-.4 3.3-.6 1.8-.2 3-.3 3.7-.3 9.3 0 15.2 4.5 17.7 13.5.4-.4.6-.9.6-1.8 0-1.1-.3-2.4-.9-4-.2-.6-.6-1.6-1.1-2.8 3.2 4.1 4.8 7.9 4.8 11.6 0 1.9-.5 3.7-1.3 5.2-.6 1.1-1.7 2.4-3.3 4.1-1.6 1.6-2.7 2.9-3.3 3.8 2.1-.6 3.6-1 4.2-1.3 1.5-.7 2.8-1.7 4-3 .2.3 0 1.1-.5 2.1zm-25.5-23c0 .7-.4 1.1-1.2 1.3l-1.5.2c-.5.3-1.3 1.3-2.4 3.2-.1-.6-.3-1.4-.5-2.5-.4 0-.9.4-1.8.9-.4.3-.9.7-1.7 1.2.2-1.4 1-2.8 2.3-4.3 1.4-1.6 2.8-2.4 4.1-2.4 1.8.2 2.7.9 2.7 2.4zm10.2 5.4c0 .7-.4 1.2-1.1 1.7-.7.4-1.4.7-2.1.7-.9 0-1.8-.5-2.5-1.6-.9-1.3-1.8-2.1-2.8-2.5.2-.2.4-.3.7-.3.3 0 .9.3 1.8.8.8.5 1.4.8 1.6.8.2 0 .5-.3 1-.8.4-.5.9-.8 1.5-.8 1.3-.1 1.9.6 1.9 2z" class="st1"/><path id="svg_122" d="M824.5 382.6c0 .8-.3 1.4-.9 2-.6.6-1.3.9-2 .9-1.2 0-2.1-.6-2.7-1.7l-2.7-.1c-.6 0-1.7.2-3.3.7-1.8.5-2.8.9-3.1 1.2-.4.5-.8 1.5-1 3.2-.2 1.4-.3 2.4-.3 3 0 1 .2 1.8.5 2.2.3.5 1 .9 2 1.2 1 .3 1.6.5 1.8.5.2 0 .4 0 .7-.1h.7c.5 0 1 .1 1.5.2.8.2 1.1.5 1 .9-.5-.1-1.5 0-2.8.3l1.6.8c0 .5-.6.7-1.9.7-.3 0-.8-.1-1.4-.2-.6-.2-1-.2-1.2-.2h-.7c0 .4-.2.9-.3 1.7-.6 0-1.4-.4-2.3-1.1-.9-.7-1.4-1.1-1.6-1.1-.2 0-.6.4-1 1.1-.4.7-.6 1.2-.6 1.5-.5-.3-.9-.8-1.2-1.5-.2-.5-.3-1-.5-1.5-.4 0-1.1.8-2.1 2.4h-.3c-.1-.1-.4-.9-.9-2.4-1.2-.4-2.3-.6-3.3-.6-.5 0-1.2.1-2.3.3l-1.6-.1c.2-.2.9-.7 2-1.3 1.3-.8 2.3-1.1 2.9-1.1.1 0 .3 0 .5.1.2 0 .3.1.5.1.3 0 .7-.1 1.3-.4.6-.3.9-.5 1-.8.1-.2.1-.8.1-1.8 0-2.2-.6-3.8-1.7-4.8-1-.9-2.6-1.6-4.9-2-.6 2.2-2.3 3.2-5.1 3.2-.9 0-1.8-.5-2.7-1.6s-1.4-2.1-1.4-3c0-1.4.6-2.6 1.8-3.5-.9-1-1.4-2-1.4-3 0-.9.3-1.8.9-2.5.6-.7 1.4-1.1 2.3-1.2-.1-1.2.3-2 1.2-2.5-.4-.4-.6-1.1-.6-2.2 0-1.2.4-2.3 1.2-3.1.8-.8 1.9-1.2 3.1-1.2 1.4 0 2.5.5 3.3 1.4 1.1-3.7 3.5-5.6 7.1-5.6 1.9 0 3.6.8 5 2.3.5.6.8.9.8.9-.5 0-.2-.1.7-.3.9-.2 1.6-.3 2-.3 1.5 0 2.8.5 3.9 1.6 1 1 1.7 2.2 2 3.7.3 0 .7.2 1.2.3.8.4 1.2 1.1 1.2 2.2 0 .2-.2.5-.5 1.1 2.4 1.4 3.6 3.3 3.6 5.7 0 .7-.3 1.6-.8 2.8 1.2.7 1.7 1.5 1.7 2.6zm-23.3 2.5v-.7c0-.9-.4-1.7-1.3-2.4s-1.7-1.1-2.6-1.1c-1.1 0-2 .2-2.9.7 2-.1 4.2 1.1 6.8 3.5zm-1.1-7c-.6-.6-1.1-1.3-1.5-2-1.6.4-2.4.9-2.4 1.4.5 0 1.1 0 2 .3.9.2 1.6.3 1.9.3zm3.5-1.8v-2.5c-.9-.1-1.5-.2-1.6-.2v.9l1.6 1.8zm7.4-1.6c-.5-.2-1.3-.6-2.6-1.1v4.9c1.8-1 2.6-2.3 2.6-3.8zm3.1 6.7l-1.2-1.5c-.8.5-1.5 1.1-2.3 1.6-.8.5-1.4 1.2-2 1.8 1.6-.9 3.5-1.5 5.5-1.9z" class="st1"/><g id="svg_123"><path id="svg_124" d="M925.3 329.6c9.1 9.1 14.7 21.6 14.7 35.4 0 27.6-22.4 50-50 50-13.8 0-26.3-5.6-35.4-14.6" class="st6"/><path id="svg_125" d="M854.6 400.4c-9-9-14.6-21.5-14.6-35.4 0-27.6 22.4-50 50-50 13.8 0 26.3 5.6 35.3 14.6" class="st2"/></g><path id="svg_126" d="M928 388.1c-2.4-2.3-4.1-3.5-4.8-3.7-.6-.1-1.1.2-1.7 1-.5.8-1.3 1.1-2.3.9-.4-.1-1.2-.4-2.3-1-.9.9-1.4 1.5-1.5 1.8-.1.4.1.9.6 1.6.5.7.9 1.1 1.3 1.2.3.1.6.1 1.1.1.5 0 .8 0 .9.1.4.1.5 1 .1 2.6s-1.3 3.9-2.8 6.9c-.1-3.9-.6-6-1.7-6.2-.1 0-.5 0-1 .1s-.9.1-1.1.1c-1-.2-1.8-1.4-2.1-3.5-1.7-.1-2.8.5-3.1 1.9-.2.7 0 1.4.6 2 .6.6.8 1 .8 1.2-.2 1-2 2.1-5.4 3.5-1.8.7-3 1.2-3.7 1.5.7-.5 1.4-1.3 2.1-2.2.9-1.1 1.4-1.9 1.5-2.6.1-.4-.2-1-.9-1.8s-.9-1.6-.8-2.4c.1-.6.5-1.3 1.2-2.1-.3-.7-.8-1.1-1.5-1.2-1.4-.3-2.3 0-2.5.9.2-.7 0-.2-.4 1.5-.2 1.2-1.3 1.6-3.1 1.1-1.4-.3-3.7-1.2-6.9-2.7 4 0 6.1-.7 6.4-1.9 0 .1 0-.3.1-1.4.1-1.2 1.2-2 3.1-2.5.1-1.7-.6-2.8-2-3.1-.2-.1-.7.2-1.5.9-.8.6-1.4.9-1.9.8-.9-.2-1.8-1.4-2.7-3.6-.4-1.1-1.1-2.7-2-4.9.7.6 1.5 1.3 2.2 1.9 1 .8 1.8 1.2 2.4 1.4.5.1 1.1-.2 1.8-1s1.4-1.1 2.2-.9c.1 0 .8.4 2 1.2.9-.9 1.5-1.6 1.6-2.1.1-.4 0-1-.4-1.7s-.8-1.1-1.2-1.2c-.2 0-.5-.1-.9 0h-.9c-.6-.2-.8-1-.4-2.7.1-.4 1.1-2.8 3-7.1-.2.5-.2 1.6 0 3.2.2 2 .7 3 1.5 3.2.1 0 .5 0 .9-.1.5-.1.9-.1 1.1-.1.8.2 1.4.8 1.7 1.9l.5 1.7c.8.2 1.5.1 2.1-.4.6-.4 1-1 1.2-1.8.2-.8 0-1.5-.6-2.1-.6-.6-.8-1-.8-1.2.2-.8 1.7-1.8 4.5-3 2.3-1 3.7-1.5 4.3-1.7-2.1 1.7-3.2 3.1-3.4 4-.1.5.1 1.1.5 1.8.6.9.9 1.5 1 1.8.2.9-.1 2-.9 3.4.8.9 1.5 1.4 2 1.6 1 .2 1.7-.2 2-1.2 0-.1.1-.5.1-1.1 0-.6.1-.9.2-1 .3-.5 1.3-.5 3.2 0 1.2.3 3.5 1.2 7 2.7-.8 0-2.1.1-3.8.1-1.5.1-2.4.4-2.5.9-.1.3-.1.7 0 1.4 0 .7 0 1.1-.1 1.4-.1.5-.6.9-1.3 1.2l-2.2.9c.2.9.4 1.4.5 1.6.3.5.7.9 1.3 1 .4.1.9-.2 1.5-.9.5-.7 1.2-.9 2-.7 1 .2 1.9 1.4 2.7 3.5.6 1.1 1.3 2.9 2.3 5.3zm-11.3-6c.6-2.3.2-4.5-1.1-6.6s-3.1-3.4-5.4-4c-2.3-.6-4.6-.2-6.7 1.1-2.1 1.3-3.4 3.1-4 5.4-.6 2.3-.2 4.5 1.1 6.6 1.4 2.1 3.2 3.4 5.5 4 2.5.6 4.7.3 6.7-.9 2.1-1.3 3.4-3.1 3.9-5.6zm-.8-.2c-.5 2.2-1.7 3.9-3.5 4.9-1.8 1.1-3.8 1.4-6 .8-2.1-.5-3.8-1.7-4.9-3.5-1.2-1.8-1.5-3.8-1-6 .5-2.1 1.7-3.7 3.6-4.8 1.9-1.1 3.9-1.4 6-.9 2.1.5 3.7 1.7 4.9 3.6 1.1 1.9 1.4 3.8.9 5.9z" class="st1"/><path id="svg_127" d="M891.6 349.3c0 .8-.3 1.4-.9 2-.6.6-1.3.9-2 .9-1.2 0-2.1-.6-2.7-1.7l-2.7-.1c-.6 0-1.7.2-3.3.7-1.8.5-2.8.9-3.1 1.2-.4.5-.8 1.5-1 3.2-.2 1.4-.3 2.4-.3 3 0 1 .2 1.8.5 2.2.3.5 1 .9 2 1.2 1 .3 1.6.5 1.8.5.2 0 .4 0 .7-.1h.7c.5 0 1 .1 1.5.2.8.2 1.1.5 1 .9-.5-.1-1.5 0-2.8.3l1.6.8c0 .5-.6.7-1.9.7-.3 0-.8-.1-1.4-.2-.6-.2-1-.2-1.2-.2h-.7c0 .4-.2.9-.3 1.7-.6 0-1.4-.4-2.3-1.1-.9-.7-1.4-1.1-1.6-1.1-.2 0-.6.4-1 1.1-.4.7-.6 1.2-.6 1.5-.5-.3-.9-.8-1.2-1.5-.2-.5-.3-1-.5-1.5-.4 0-1.1.8-2.1 2.4h-.3c-.1-.1-.4-.9-.9-2.4-1.2-.4-2.3-.6-3.3-.6-.5 0-1.2.1-2.3.3l-1.6-.1c.2-.2.9-.7 2-1.3 1.3-.8 2.3-1.1 2.9-1.1.1 0 .3 0 .5.1.2 0 .3.1.5.1.3 0 .7-.1 1.3-.4.6-.3.9-.5 1-.8.1-.2.1-.8.1-1.8 0-2.2-.6-3.8-1.7-4.8-1-.9-2.6-1.6-4.9-2-.6 2.2-2.3 3.2-5.1 3.2-.9 0-1.8-.5-2.7-1.6-.9-1.1-1.4-2.1-1.4-3 0-1.4.6-2.6 1.8-3.5-.9-1-1.4-2-1.4-3 0-.9.3-1.8.9-2.5.6-.7 1.4-1.1 2.3-1.2-.1-1.2.3-2 1.2-2.5-.4-.4-.6-1.2-.6-2.2 0-1.2.4-2.3 1.2-3.1.8-.8 1.9-1.2 3.1-1.2 1.4 0 2.5.5 3.3 1.4 1.1-3.7 3.5-5.6 7.1-5.6 1.9 0 3.6.8 5 2.3.5.6.8.9.8.9-.5 0-.2-.1.7-.3.9-.2 1.6-.3 2-.3 1.5 0 2.8.5 3.9 1.6 1 1 1.7 2.2 2 3.7.3 0 .7.2 1.2.3.8.4 1.2 1.1 1.2 2.2 0 .2-.2.5-.5 1.1 2.4 1.4 3.6 3.3 3.6 5.7 0 .7-.3 1.6-.8 2.8 1.2.7 1.7 1.5 1.7 2.6zm-23.3 2.5v-.7c0-.9-.4-1.7-1.3-2.4s-1.7-1.1-2.6-1.1c-1.1 0-2 .2-2.9.7 2-.1 4.2 1.1 6.8 3.5zm-1-7c-.6-.6-1.1-1.3-1.5-2-1.6.4-2.4.9-2.4 1.4.5 0 1.1 0 2 .3.8.2 1.5.3 1.9.3zm3.4-1.8v-2.5c-.9-.1-1.5-.2-1.6-.2v.9l1.6 1.8zm7.4-1.6c-.5-.2-1.3-.6-2.6-1.1v4.9c1.8-1 2.7-2.3 2.6-3.8zm3.1 6.7l-1.2-1.5c-.8.5-1.5 1.1-2.3 1.6-.8.5-1.4 1.2-2 1.8 1.6-.9 3.5-1.5 5.5-1.9z" class="st1"/><g id="svg_128"><path id="svg_129" d="M1030.3 329.6c9.1 9.1 14.7 21.6 14.7 35.4 0 27.6-22.4 50-50 50-13.8 0-26.3-5.6-35.4-14.6" class="st5"/><path id="svg_130" d="M959.6 400.4c-9-9-14.6-21.5-14.6-35.4 0-27.6 22.4-50 50-50 13.8 0 26.3 5.6 35.3 14.6" class="st2"/></g><path id="svg_131" d="M1021.7 398.7c-2.7 2.7-6 4.1-9.9 4.1-4.4 0-7.9-1.5-10.5-4.5-2.5-2.9-3.7-6.6-3.7-11 0-4.8 2.1-10.3 6.3-16.4 3.4-5 7.4-9.5 12-13.3-.7 3.1-1 5.3-1 6.6 0 3 .9 5.9 2.8 8.7 2.3 3.4 4.1 5.9 5.3 7.5 1.9 2.8 2.8 5.6 2.8 8.3 0 3.9-1.4 7.2-4.1 10zm-.1-15.4c-.7-1.6-1.6-2.7-2.5-3.2.1.3.2.7.2 1.2 0 1-.3 2.5-.9 4.3l-.9 2.9c0 1.7.8 2.5 2.5 2.5 1.8 0 2.7-1.2 2.7-3.5 0-1.2-.3-2.6-1.1-4.2z" class="st1"/><path id="svg_132" d="M996.6 349.3c0 .8-.3 1.4-.9 2-.6.6-1.3.9-2 .9-1.2 0-2.1-.6-2.7-1.7l-2.7-.1c-.6 0-1.7.2-3.3.7-1.8.5-2.8.9-3.1 1.2-.4.5-.8 1.5-1 3.2-.2 1.4-.3 2.4-.3 3 0 1 .2 1.8.5 2.2.3.5 1 .9 2 1.2 1 .3 1.6.5 1.8.5.2 0 .4 0 .7-.1h.7c.5 0 1 .1 1.5.2.8.2 1.1.5 1 .9-.5-.1-1.5 0-2.8.3l1.6.8c0 .5-.6.7-1.9.7-.3 0-.8-.1-1.4-.2-.6-.2-1-.2-1.2-.2h-.7c0 .4-.2.9-.3 1.7-.6 0-1.4-.4-2.3-1.1-.9-.7-1.4-1.1-1.6-1.1-.2 0-.6.4-1 1.1-.4.7-.6 1.2-.6 1.5-.5-.3-.9-.8-1.2-1.5-.2-.5-.3-1-.5-1.5-.4 0-1.1.8-2.1 2.4h-.3c-.1-.1-.4-.9-.9-2.4-1.2-.4-2.3-.6-3.3-.6-.5 0-1.2.1-2.3.3l-1.6-.1c.2-.2.9-.7 2-1.3 1.3-.8 2.3-1.1 2.9-1.1.1 0 .3 0 .5.1.2 0 .3.1.5.1.3 0 .7-.1 1.3-.4.6-.3.9-.5 1-.8.1-.2.1-.8.1-1.8 0-2.2-.6-3.8-1.7-4.8-1-.9-2.6-1.6-4.9-2-.6 2.2-2.3 3.2-5.1 3.2-.9 0-1.8-.5-2.7-1.6-.9-1.1-1.4-2.1-1.4-3 0-1.4.6-2.6 1.8-3.5-.9-1-1.4-2-1.4-3 0-.9.3-1.8.9-2.5.6-.7 1.4-1.1 2.3-1.2-.1-1.2.3-2 1.2-2.5-.4-.4-.6-1.2-.6-2.2 0-1.2.4-2.3 1.2-3.1.8-.8 1.9-1.2 3.1-1.2 1.4 0 2.5.5 3.3 1.4 1.1-3.7 3.5-5.6 7.1-5.6 1.9 0 3.6.8 5 2.3.5.6.8.9.8.9-.5 0-.2-.1.7-.3.9-.2 1.6-.3 2-.3 1.5 0 2.8.5 3.9 1.6 1 1 1.7 2.2 2 3.7.3 0 .7.1 1.2.3.8.4 1.2 1.1 1.2 2.2 0 .2-.2.5-.5 1.1 2.4 1.4 3.6 3.2 3.6 5.7 0 .7-.3 1.6-.8 2.8 1.2.7 1.7 1.5 1.7 2.6zm-23.3 2.5v-.8c0-.9-.4-1.7-1.3-2.4s-1.7-1.1-2.6-1.1c-1.1 0-2 .2-2.9.7 2 0 4.2 1.2 6.8 3.6zm-1-7c-.6-.6-1.1-1.3-1.5-2-1.6.4-2.4.9-2.4 1.4.5 0 1.1 0 2 .3.8.1 1.5.3 1.9.3zm3.4-1.8v-2.5c-.9-.1-1.5-.2-1.6-.2v.9l1.6 1.8zm7.4-1.6c-.5-.2-1.3-.6-2.6-1.1v4.9c1.8-1.1 2.7-2.3 2.6-3.8zm3.1 6.7l-1.2-1.5c-.8.5-1.5 1.1-2.3 1.6-.8.5-1.4 1.2-2 1.8 1.6-.9 3.5-1.5 5.5-1.9z" class="st1"/><g id="svg_133"><path id="svg_134" d="M85.3 434.6c9.1 9.1 14.7 21.6 14.7 35.4 0 27.6-22.4 50-50 50-13.8 0-26.3-5.6-35.4-14.6" class="st6"/><path id="svg_135" d="M14.6 505.4C5.6 496.3 0 483.8 0 470c0-27.6 22.4-50 50-50 13.8 0 26.3 5.6 35.3 14.6" class="st0"/></g><path id="svg_136" d="M43.6 461.6l-2.9 9.7H17v-2.1c1.2-1.3 3.7-3.9 7.6-7.8 2.4-2.4 4.7-4.9 7-7.5 1.2-1.3 2-2.4 2.7-3.3 1.4-2 2.1-4 2.1-6.1 0-2-.6-3.8-1.9-5.4-1.3-1.6-2.9-2.3-4.9-2.3-4.3 0-7.7 2.9-10.1 8.7l-2.1-.8c2.9-8.2 7.4-12.3 13.7-12.3 3.1 0 5.7 1 7.8 3.1 2.2 2.1 3.2 4.7 3.2 7.7 0 3.9-2.2 7.7-6.7 11.5l-4.7 3.9c-3 2.5-5.5 4.8-7.4 7-.1.1-.4.4-.8.9h12.4c1.9 0 3.4-.4 4.3-1.1.8-.7 1.7-1.9 2.5-3.8h1.9z" class="st1"/><path id="svg_137" d="M88 493.1c-2.4-2.3-4.1-3.5-4.8-3.7-.6-.1-1.1.2-1.7 1s-1.3 1.1-2.3.9c-.4-.1-1.2-.4-2.3-1-.9.9-1.4 1.5-1.5 1.8-.1.4.1.9.5 1.6.5.7.9 1.1 1.3 1.2.3.1.6.1 1.1.1.5 0 .8 0 .9.1.4.1.5 1 .1 2.6s-1.3 3.9-2.8 6.9c-.1-3.9-.6-6-1.7-6.2-.1 0-.5 0-1 .1s-.9.1-1.1.1c-1-.3-1.8-1.4-2.1-3.5-1.7-.1-2.8.5-3.1 1.9-.2.7 0 1.4.6 2 .6.6.8 1 .8 1.2-.2 1-2 2.1-5.4 3.5-1.8.7-3 1.2-3.7 1.5.7-.5 1.4-1.3 2.1-2.2.9-1.1 1.4-1.9 1.5-2.6.1-.4-.2-1-.9-1.8s-.9-1.6-.8-2.4c.1-.6.5-1.3 1.2-2.1-.3-.7-.8-1.1-1.5-1.2-1.4-.3-2.3 0-2.5.9.2-.7 0-.2-.3 1.5-.2 1.2-1.3 1.6-3.1 1.1-1.4-.3-3.7-1.2-6.9-2.7 4 0 6.1-.7 6.4-1.9 0 .1 0-.3.1-1.4.1-1.2 1.2-2 3.1-2.5.1-1.7-.6-2.8-2-3.1-.2-.1-.7.2-1.5.9-.8.6-1.4.9-1.9.7-.9-.2-1.8-1.4-2.7-3.6-.4-1.1-1.1-2.7-2-4.9.7.6 1.5 1.3 2.2 1.9 1 .8 1.8 1.2 2.4 1.4.5.1 1.1-.2 1.8-1s1.4-1.1 2.2-.9c.1 0 .8.4 2 1.2.9-.9 1.5-1.6 1.6-2.1.1-.4 0-1-.4-1.7s-.8-1.1-1.2-1.2c-.2 0-.5-.1-.9 0h-.9c-.6-.2-.8-1-.4-2.7.1-.4 1.1-2.8 3-7.1-.2.5-.2 1.6 0 3.2.2 2 .7 3 1.5 3.2.1 0 .5 0 .9-.1.5-.1.9-.1 1.1-.1.8.2 1.4.8 1.7 1.9l.5 1.7c.8.2 1.5.1 2.1-.4.6-.4 1-1 1.2-1.8.2-.8 0-1.5-.6-2.1-.6-.6-.8-1-.8-1.2.2-.8 1.7-1.8 4.5-3 2.3-1 3.7-1.5 4.3-1.7-2.1 1.7-3.2 3.1-3.4 4-.1.5.1 1.1.5 1.8.6.9.9 1.5.9 1.8.2.9-.1 2-.9 3.4.8.9 1.5 1.4 2 1.6 1 .2 1.7-.2 2-1.2 0-.1.1-.5.1-1.1 0-.6.1-.9.2-1 .3-.5 1.3-.5 3.2 0 1.2.3 3.5 1.2 7 2.7-.8 0-2.1.1-3.8.1-1.5.1-2.4.4-2.5.9-.1.3-.1.7 0 1.4s0 1.1-.1 1.4c-.1.5-.6.9-1.3 1.2l-2.2.9c.2.9.4 1.4.5 1.6.3.5.7.9 1.3 1 .4.1.9-.2 1.5-.9.5-.7 1.2-.9 2-.7 1 .2 1.9 1.4 2.7 3.5.7 1.2 1.4 3 2.4 5.4zm-11.3-6c.6-2.3.2-4.5-1.1-6.6s-3.1-3.4-5.4-4c-2.3-.6-4.6-.2-6.7 1.1-2.1 1.3-3.4 3.1-4 5.4-.6 2.3-.2 4.5 1.1 6.6 1.3 2.1 3.2 3.4 5.5 4 2.5.6 4.7.3 6.7-.9 2.1-1.3 3.4-3.1 3.9-5.6zm-.8-.2c-.5 2.2-1.7 3.9-3.5 4.9-1.8 1.1-3.8 1.4-6 .8-2.1-.5-3.8-1.7-4.9-3.5-1.2-1.8-1.5-3.8-1-6 .5-2.1 1.7-3.7 3.6-4.8 1.9-1.1 3.9-1.4 6-.9 2.1.5 3.7 1.7 4.9 3.6 1.1 1.9 1.4 3.8.9 5.9z" class="st1"/><g id="svg_138"><path id="svg_139" d="M190.3 434.6c9.1 9.1 14.7 21.6 14.7 35.4 0 27.6-22.4 50-50 50-13.8 0-26.3-5.6-35.4-14.6" class="st5"/><path id="svg_140" d="M119.6 505.4c-9-9-14.6-21.5-14.6-35.4 0-27.6 22.4-50 50-50 13.8 0 26.3 5.6 35.4 14.6" class="st0"/></g><path id="svg_141" d="M181.7 503.7c-2.7 2.7-6 4.1-9.9 4.1-4.4 0-7.9-1.5-10.5-4.5-2.5-2.9-3.7-6.6-3.7-11 0-4.8 2.1-10.3 6.3-16.4 3.4-5 7.4-9.5 12-13.3-.7 3.1-1 5.3-1 6.6 0 3 .9 5.9 2.8 8.7 2.3 3.4 4.1 5.9 5.3 7.5 1.9 2.8 2.8 5.6 2.8 8.3 0 3.9-1.4 7.2-4.1 10zm0-15.4c-.7-1.6-1.6-2.7-2.5-3.2.1.3.2.7.2 1.2 0 1-.3 2.5-.9 4.3l-.9 2.9c0 1.7.8 2.5 2.5 2.5 1.8 0 2.7-1.2 2.7-3.5-.1-1.2-.4-2.6-1.1-4.2z" class="st1"/><path id="svg_142" d="M148.6 461.6l-2.9 9.7H122v-2.1c1.2-1.3 3.7-3.9 7.6-7.8 2.4-2.4 4.7-4.9 7-7.5 1.2-1.3 2-2.4 2.7-3.3 1.4-2 2.1-4 2.1-6.1 0-2-.6-3.8-1.9-5.4-1.3-1.6-2.9-2.3-4.9-2.3-4.3 0-7.7 2.9-10.1 8.7l-2.1-.8c2.9-8.2 7.4-12.3 13.7-12.3 3.1 0 5.7 1 7.8 3.1 2.2 2.1 3.2 4.7 3.2 7.7 0 3.9-2.2 7.7-6.7 11.5l-4.7 3.9c-3 2.5-5.5 4.8-7.4 7-.1.1-.4.4-.8.9h12.4c1.9 0 3.4-.4 4.3-1.1.8-.7 1.7-1.9 2.5-3.8h1.9z" class="st1"/><g id="svg_143"><path id="svg_144" d="M295.3 434.6c9.1 9.1 14.7 21.6 14.7 35.4 0 27.6-22.4 50-50 50-13.8 0-26.3-5.6-35.4-14.6" class="st4"/><path id="svg_145" d="M224.6 505.4c-9-9-14.6-21.5-14.6-35.4 0-27.6 22.4-50 50-50 13.8 0 26.3 5.6 35.4 14.6" class="st0"/></g><path id="svg_146" d="M253.6 461.6l-2.9 9.7H227v-2.1c1.2-1.3 3.7-3.9 7.6-7.8 2.4-2.4 4.7-4.9 7-7.5 1.2-1.3 2-2.4 2.7-3.3 1.4-2 2.1-4 2.1-6.1 0-2-.6-3.8-1.9-5.4-1.3-1.6-2.9-2.3-4.9-2.3-4.3 0-7.7 2.9-10.1 8.7l-2.1-.8c2.9-8.2 7.4-12.3 13.7-12.3 3.1 0 5.7 1 7.8 3.1 2.2 2.1 3.2 4.7 3.2 7.7 0 3.9-2.2 7.7-6.7 11.5l-4.7 3.9c-3 2.5-5.5 4.8-7.4 7-.1.1-.4.4-.8.9h12.4c1.9 0 3.4-.4 4.3-1.1.8-.7 1.7-1.9 2.5-3.8h1.9z" class="st1"/><path id="svg_147" d="M299.6 486c0 2.7-1 4.5-2.9 5.5-.6.3-2.4.7-5.4 1.2-2 .3-2.9 1.1-2.9 2.3v5c0 .2.1.8.2 1.9l.2 2c0 .6-.1 1.6-.4 3-.8.2-1.7.3-2.7.6-.3-1.2-.5-2.1-.5-2.5 0-.2 0-.5.2-.9.1-.4.2-.7.2-.9 0-.3-.3-1.1-.8-2.4h-1c-.1.2-.2.5-.1.8.2.7.2 1.3.2 1.8-.7.5-1.7 1.1-2.9 2-.3-.1-.4-.1-.3-.1v-4.4c-.1-.2-.3-.3-.6-.2h-.7l-.7 5.8h-2.1c-.3-1.4-.8-3.4-1.5-6h-.5c-.5 1.4-.7 2.2-.7 2.3 0 .2.1.5.2 1s.2.8.2 1c0 .1 0 .4-.1.9l-.2 1.5c-.1.1-.2.1-.3.1-1.2 0-2-.3-2.5-.9-.4-.6-.6-1.5-.5-2.6l.5-7.4c0-.1 0-.3.1-.5s.1-.3.1-.4c0-.3-.3-1-1-2-.1 0-.8-.2-1.9-.4-.7-.2-2.1-.4-4.1-.9-2.8-.5-4.2-2.8-4.2-6.8 0-6 2.5-10.9 7.4-14.9.2 1.1.6 2.6 1 4.4l2.4.6c.2.1 1.5.5 3.7 1.4-1.1-.7-2.6-1.8-4.5-3.4-.7-.8-1-2.2-1-4.1 0-.5.8-1 2.3-1.6 1.4-.6 2.4-.9 3.1-1 2.2-.3 3.9-.4 5.1-.4 5.1 0 9.2 1.3 12.4 3.9-1 1.2-2.8 2.5-5.3 3.8 1 0 2.4-.3 4.3-1.2 1.9-.8 2.7-1.2 2.4-1.2.3 0 1 .7 2 2 .7 1 1.3 1.9 1.8 2.6 1.3 2.3 2.2 4.9 2.6 7.6 0 .9 0 1.6.1 2v.1h-.4zm-23.5 1.1c0-1.8-.8-3.4-2.3-5-1.5-1.6-3.2-2.4-4.9-2.4-1.6 0-2.9.7-4.1 2-1.2 1.3-1.8 2.8-1.8 4.4 0 1.4.7 2.3 2 2.7.9.2 2.1.4 3.6.4h3.4c2.7.1 4.1-.6 4.1-2.1zm6.7 7.6v-1.9c-.3-.5-.6-1.1-.9-1.7-.2-.8-.7-2-1.4-3.4l-.7 7.2c0 .6-.1.9-.4.9-.2 0-.3 0-.4-.1-.3-4.3-.4-6.2-.4-5.6V488c-.1-.1-.2-.2-.3-.2-1.4 1.4-2.1 3.7-2.1 6.9 0 1.8.2 2.8.5 3.3.3-.1.7-.2 1.1-.4.2-.1.6-.1 1.4-.1.8 0 1.7.2 2.8.7.6-.2.8-1.3.8-3.5zm13.9-8.5c0-1.6-.6-3.1-1.8-4.4-1.2-1.3-2.6-1.9-4.2-1.9-1.7 0-3.3.8-4.8 2.4-1.5 1.6-2.2 3.2-2.2 4.9 0 1.4.7 2.1 2.1 2.1h7.1c2.4-.1 3.8-1.1 3.8-3.1z" class="st1"/><g id="svg_148"><path id="svg_149" d="M400.3 434.6c9.1 9.1 14.7 21.6 14.7 35.4 0 27.6-22.4 50-50 50-13.8 0-26.3-5.6-35.4-14.6" class="st3"/><path id="svg_150" d="M329.6 505.4c-9-9-14.6-21.5-14.6-35.4 0-27.6 22.4-50 50-50 13.8 0 26.3 5.6 35.3 14.6" class="st0"/></g><path id="svg_151" d="M403.3 494.4c-1.7 4.1-5.1 6.1-10.2 6.1-.9 0-2 .1-3 .4-1.6.3-2.5.8-2.5 1.5 0 .2.1.4.4.7.3.3.5.4.7.4-1 0-.3 0 2 .1s3.7.1 4.3.1c-3.4 2-9.1 2.9-17 2.8-2.6 0-4.9-1.2-6.7-3.5-1.8-2.1-2.8-4.5-2.8-7.2 0-2.8.9-5.2 2.8-7.2s4.2-3 7.1-3c.6 0 1.5.1 2.5.4 1 .3 1.7.4 2.1.4 1.4 0 3.2-.6 5.4-1.8 2.1-1.2 3.2-1.8 3-1.8-.4 4.1-1.8 6.8-4.1 8.3-1.7 1-2.5 1.9-2.5 2.9 0 .6.3 1.1 1.1 1.4.5.3 1.2.4 1.8.4 1 0 2-.6 3-1.9 1-1.2 1.4-2.4 1.3-3.4-.1-1.2 0-2.6.2-4.2.1-.5.4-1 .8-1.7.5-.7.9-1.1 1.3-1.3 0 .4-.1.9-.4 1.8-.3.8-.4 1.4-.4 1.8 0 .9.2 1.5.7 2 .7-.3 1.3-1.2 1.9-2.6.5-1.1.7-2.2.8-3.3-1.6-.1-3.2-.8-4.7-2.2-1.5-1.4-2.3-2.9-2.3-4.6 0-.3 0-.5.1-.8.2.4.6.9 1.1 1.6.7 1 1.2 1.5 1.5 1.5.5 0 .7-.5.7-1.5 0-1.2-.3-2.4-1-3.4-.7-1.2-1.7-1.8-2.9-1.8-.5 0-1.4.3-2.5.9-1.1.6-2.1.9-3 .9-.3 0-1.5-.4-3.6-1.1 3.8-.6 5.7-1.2 5.7-1.7 0-1.3-2.6-2.2-7.8-2.7-.5 0-1.4-.1-2.8-.2.2-.2 1.3-.4 3.3-.6 1.8-.2 3-.3 3.7-.3 9.3 0 15.2 4.5 17.7 13.5.4-.4.6-1 .6-1.8 0-1.1-.3-2.4-.9-4-.2-.6-.6-1.6-1.1-2.8 3.2 4.1 4.8 7.9 4.8 11.6 0 1.9-.5 3.7-1.3 5.2-.6 1.1-1.7 2.4-3.3 4.1-1.6 1.6-2.7 2.9-3.3 3.8 2.1-.6 3.6-1 4.2-1.3 1.5-.7 2.8-1.7 4-3 .1.4-.1 1.1-.5 2.1zm-25.5-23c0 .7-.4 1.1-1.2 1.3l-1.5.2c-.5.3-1.3 1.3-2.4 3.2-.1-.6-.3-1.4-.5-2.5-.4 0-.9.4-1.8.9-.4.3-.9.7-1.7 1.2.2-1.4 1-2.8 2.3-4.3 1.4-1.6 2.8-2.4 4.1-2.4 1.8.3 2.7 1 2.7 2.4zm10.2 5.4c0 .7-.4 1.2-1.1 1.7-.7.4-1.4.7-2.1.7-.9 0-1.8-.5-2.5-1.6-.9-1.3-1.8-2.1-2.8-2.5.2-.2.4-.3.7-.3.3 0 .9.3 1.8.8.8.5 1.4.8 1.6.8.2 0 .5-.3 1-.8.4-.5.9-.8 1.5-.8 1.2 0 1.9.7 1.9 2z" class="st1"/><path id="svg_152" d="M358.6 461.6l-2.9 9.7H332v-2.1c1.2-1.3 3.7-3.9 7.6-7.8 2.4-2.4 4.7-4.9 7-7.5 1.2-1.3 2-2.4 2.7-3.3 1.4-2 2.1-4 2.1-6.1 0-2-.6-3.8-1.9-5.4-1.3-1.6-2.9-2.3-4.9-2.3-4.3 0-7.7 2.9-10.1 8.7l-2.1-.8c2.9-8.2 7.4-12.3 13.7-12.3 3.1 0 5.7 1 7.8 3.1 2.2 2.1 3.2 4.7 3.2 7.7 0 3.9-2.2 7.7-6.7 11.5l-4.7 3.9c-3 2.5-5.5 4.8-7.4 7-.1.1-.4.4-.8.9h12.4c1.9 0 3.4-.4 4.3-1.1.8-.7 1.7-1.9 2.5-3.8h1.9z" class="st1"/><g id="svg_153"><path id="svg_154" d="M505.3 434.6c9.1 9.1 14.7 21.6 14.7 35.4 0 27.6-22.4 50-50 50-13.8 0-26.3-5.6-35.4-14.6" class="st2"/><path id="svg_155" d="M434.6 505.4c-9-9-14.6-21.5-14.6-35.4 0-27.6 22.4-50 50-50 13.8 0 26.3 5.6 35.3 14.6" class="st0"/></g><path id="svg_156" d="M463.6 461.6l-2.9 9.7H437v-2.1c1.2-1.3 3.7-3.9 7.6-7.8 2.4-2.4 4.7-4.9 7-7.5 1.2-1.3 2-2.4 2.7-3.3 1.4-2 2.1-4 2.1-6.1 0-2-.6-3.8-1.9-5.4-1.3-1.6-2.9-2.3-4.9-2.3-4.3 0-7.7 2.9-10.1 8.7l-2.1-.8c2.9-8.2 7.4-12.3 13.7-12.3 3.1 0 5.7 1 7.8 3.1 2.2 2.1 3.2 4.7 3.2 7.7 0 3.9-2.2 7.7-6.7 11.5l-4.7 3.9c-3 2.5-5.5 4.8-7.4 7-.1.1-.4.4-.8.9h12.4c1.9 0 3.4-.4 4.3-1.1.8-.7 1.7-1.9 2.5-3.8h1.9z" class="st1"/><path id="svg_157" d="M509.5 487.6c0 .8-.3 1.4-.9 2-.6.6-1.3.9-2 .9-1.2 0-2.1-.6-2.7-1.7l-2.7-.1c-.6 0-1.7.2-3.3.7-1.8.5-2.8.9-3.1 1.2-.4.5-.8 1.5-1 3.2-.2 1.4-.3 2.4-.3 3 0 1 .2 1.8.5 2.2.3.5 1 .9 2 1.2 1 .3 1.6.5 1.8.5.2 0 .4 0 .7-.1h.7c.5 0 1 .1 1.5.2.8.2 1.1.5 1 .9-.5-.1-1.5 0-2.8.3l1.6.8c0 .5-.6.7-1.9.7-.3 0-.8-.1-1.4-.2-.6-.2-1-.2-1.2-.2h-.7c0 .4-.2.9-.3 1.7-.6 0-1.4-.4-2.3-1.1-.9-.7-1.4-1.1-1.6-1.1-.2 0-.6.4-1 1.1-.4.7-.6 1.2-.6 1.5-.5-.3-.9-.8-1.2-1.5-.2-.5-.3-1-.5-1.5-.4 0-1.1.8-2.1 2.4h-.3c-.1-.1-.4-.9-.9-2.4-1.2-.4-2.3-.6-3.3-.6-.5 0-1.2.1-2.3.3l-1.6-.1c.2-.2.9-.7 2-1.3 1.3-.8 2.3-1.1 2.9-1.1.1 0 .3 0 .5.1.2 0 .3.1.5.1.3 0 .7-.1 1.3-.4.6-.3.9-.5 1-.8.1-.2.1-.8.1-1.8 0-2.2-.6-3.8-1.7-4.8-1-.9-2.6-1.6-4.9-2-.6 2.2-2.3 3.2-5.1 3.2-.9 0-1.8-.5-2.7-1.6-.9-1.1-1.4-2.1-1.4-3 0-1.4.6-2.6 1.8-3.5-.9-1-1.4-2-1.4-3 0-.9.3-1.8.9-2.5.6-.7 1.4-1.1 2.3-1.2-.1-1.2.3-2 1.2-2.5-.4-.4-.6-1.1-.6-2.2 0-1.2.4-2.3 1.2-3.1.8-.8 1.9-1.2 3.1-1.2 1.4 0 2.5.5 3.3 1.4 1.1-3.7 3.5-5.6 7.1-5.6 1.9 0 3.6.8 5 2.3.5.6.8.9.8.9-.5 0-.2-.1.7-.3.9-.2 1.6-.3 2-.3 1.5 0 2.8.5 3.9 1.6 1 1 1.7 2.2 2 3.7.3 0 .7.2 1.2.3.8.4 1.2 1.1 1.2 2.2 0 .2-.2.5-.5 1.1 2.4 1.4 3.6 3.3 3.6 5.7 0 .7-.3 1.6-.8 2.8 1.2.7 1.7 1.5 1.7 2.6zm-23.3 2.5v-.7c0-.9-.4-1.7-1.3-2.4s-1.7-1.1-2.6-1.1c-1.1 0-2 .2-2.9.7 2-.1 4.2 1.1 6.8 3.5zm-1.1-7c-.6-.6-1.1-1.3-1.5-2-1.6.4-2.4.9-2.4 1.4.5 0 1.1 0 2 .3.9.2 1.6.3 1.9.3zm3.5-1.8v-2.5c-.9-.1-1.5-.2-1.6-.2v.9l1.6 1.8zm7.4-1.6c-.5-.2-1.3-.6-2.6-1.1v4.9c1.8-1 2.6-2.3 2.6-3.8zm3.1 6.7l-1.2-1.5c-.8.5-1.5 1.1-2.3 1.6-.8.5-1.4 1.2-2 1.8 1.6-.9 3.5-1.5 5.5-1.9z" class="st1"/><g id="svg_158"><path id="svg_159" d="M1045 470c0 27.6-22.4 50-50 50s-50-22.4-50-50 22.4-50 50-50 50 22.4 50 50z" class="st2"/></g><g id="svg_160"><circle id="svg_161" cx="890" cy="470" r="50" class="st3"/></g><g id="svg_162"><circle id="svg_163" cx="785" cy="470" r="50" class="st4"/></g><g id="svg_164"><circle id="svg_165" cx="680" cy="470" r="50" class="st5"/></g><g id="svg_166"><circle id="svg_167" cx="575" cy="470" r="50" class="st6"/></g><g id="svg_168"><circle id="svg_169" cx="50" cy="575" r="50" class="st0"/></g><path id="svg_170" d="M85.3 583.9h-36l13.2-9.4c-4.9-3.9-10.6-5.8-17-5.8-3.2 0-5.4.6-6.6 1.8-1.2 1.2-1.8 3.4-1.8 6.7 0 8.9 4.6 18.3 13.7 28.4l-10.4 10.5c-12.1-14.7-18.1-27.8-18.1-39.4 0-6.9 2.1-12.4 6.3-16.5 4.2-4.1 9.7-6.1 16.7-6.1 8.5 0 17.7 3.2 27.6 9.6l7.7-13.2 4.7 33.4z" class="st1"/><g id="svg_171"><circle id="svg_172" cx="155" cy="575" r="50" class="st1"/></g><path id="svg_173" d="M183.9 549.3l-12.6 7.4c6.2 9.6 9.2 18.4 9.2 26.5 0 6.6-2 12-5.9 16-3.9 4-9.2 6-15.9 6-11.1 0-23.7-5.8-37.8-17.4l10.1-10c9.7 8.8 18.7 13.1 27.2 13.1 3.1 0 5.2-.6 6.4-1.7 1.2-1.1 1.8-3.2 1.8-6.3 0-6.2-1.9-11.6-5.6-16.3l-9 12.6v-34.5l32.1 4.6z" class="st7"/><g id="svg_174"><circle id="svg_175" cx="260" cy="575" r="50" class="st0"/></g><g id="svg_176"><path id="svg_177" d="M259.9 570.3c7.2-10 15.2-15.1 24-15.1 5.9 0 10.6 1.8 14.1 5.4 3.5 3.6 5.3 8.3 5.3 14.2 0 5.9-1.8 10.7-5.3 14.4-3.5 3.7-8.2 5.6-14 5.6-8.7 0-16.7-5-24.2-15.1-7.6 10-15.6 15.1-23.9 15.1-5.9 0-10.6-1.8-14.1-5.5s-5.3-8.5-5.3-14.4 1.8-10.7 5.3-14.3c3.5-3.6 8.2-5.5 14.1-5.5 8.6.1 16.6 5.1 24 15.2zm-3.7 4.8c-6.8-9.3-13.6-13.9-20.4-13.9-4.1 0-7.3 1.3-9.7 3.8-2.4 2.6-3.6 5.9-3.6 9.9 0 4.1 1.2 7.4 3.6 10.1 2.4 2.6 5.7 4 9.7 4 6.5 0 13.3-4.7 20.4-13.9zm7.4 0c7 9.3 13.9 13.9 20.7 13.9 4 0 7.2-1.3 9.5-3.8 2.4-2.6 3.6-5.9 3.6-9.9 0-4.2-1.2-7.6-3.6-10.2s-5.7-3.8-9.8-3.8c-4.2 0-8.1 1.5-11.7 4.4-2.3 1.7-5.2 4.9-8.7 9.4z" class="st1"/></g><g id="svg_178"><circle id="svg_179" cx="365" cy="575" r="50" class="st0"/></g><path id="svg_180" d="M367.3 531.3v27.2c0 3.3 1.4 4.9 4.1 4.9h.7v1.9h-14.5v-1.9h.9c2.7 0 4-1.6 4-4.9v-17.9c0-3.3-1.1-4.9-3.4-4.9h-1.5v-1.8h.5c2.8 0 5.4-.9 7.7-2.6h1.5z" class="st1"/><path id="svg_181" d="M376.6 605.5L374 614h-20.8v-1.8c1-1.1 3.2-3.4 6.6-6.8 2.1-2.1 4.1-4.2 6.1-6.5 1-1.1 1.8-2.1 2.3-2.9 1.2-1.7 1.8-3.5 1.8-5.4 0-1.8-.6-3.4-1.7-4.7-1.1-1.4-2.5-2-4.3-2-3.8 0-6.7 2.6-8.9 7.6l-1.9-.7c2.5-7.1 6.5-10.7 12-10.7 2.7 0 5 .9 6.9 2.7 1.9 1.8 2.8 4.1 2.8 6.8 0 3.4-2 6.8-5.9 10l-4.1 3.4c-2.6 2.2-4.8 4.2-6.5 6.1-.1.1-.4.4-.7.8h10.8c1.7 0 2.9-.3 3.8-1 .7-.6 1.5-1.7 2.2-3.3l2.1-.1z" class="st1"/><g id="svg_182"><path id="svg_183" d="M335.7 574.5v-2.9H394v2.9h-58.3z" class="st1"/></g><g id="svg_184"><path id="svg_185" d="M831 630v100c27.6 0 50-22.4 50-50s-22.4-50-50-50z" class="st6"/></g><path id="svg_186" d="M849 679.7c0-4.8-1.8-9-5.4-12.5-3.5-3.5-7.7-5.2-12.4-5.3v35.6c5-.1 9.2-1.7 12.6-5 3.5-3.4 5.2-7.6 5.2-12.8z" class="st1"/><path id="svg_187" d="M871.5 676.3c-2.9-4.2-5.4-6.3-7.7-6.3-1.8 0-3.2.9-4 2.7-.8 1.8-1.8 2.6-2.8 2.6-1.4 0-2.6-.5-3.4-1.5-.3-.3-1-1.4-2-3.3l4.3-3c1.5-1 2.3-2.1 2.3-3.3 0-.7-.2-1.7-.6-3.2-.4-1.4-.6-2.4-.6-3 0-1.3 1.7-2.4 5-3.4 3.7-1 6.5-1.8 8.3-2.3-8.5-1.5-14.1-2.3-16.8-2.3-4.3 0-6.6.6-6.9 1.8-.1.2 0 .9.2 2.3.2 1.3.3 2.1.3 2.4 0 2.5-1.2 3.8-3.7 3.8-1.2 0-2.9-.8-5.2-2.4 1-3.4 1.1-6 .3-7.9-.3-.7-1.3-1.8-3-3.4-1.4-1.3-2.1-2.6-2.1-3.8 0-2.3 1.8-5.8 5.4-10.7-1.2.5-3.7 2.2-7.4 5v22.8c5.3.1 9.9 2 13.8 5.9 4 4 5.9 8.6 5.9 14 .1 5.7-1.8 10.5-5.6 14.2-3.8 3.7-8.5 5.6-14.1 5.6v22.6c6.2-4.5 9.3-7.8 9.3-10 0-.4-.8-1.1-2.3-2.1-1.6-1-2.3-2.4-2.3-4 0-3.4 1.9-5.3 5.8-5.9 1.9 4.5 4.1 6.7 6.6 6.7.5 0 1.3-.3 2.3-.8 1.1-.5 1.7-.8 2.1-.8 2.4 0 4.8 4.3 6.9 12.9 1.7-7.5 2.5-13 2.5-16.7 0-3.8-.5-5.7-1.5-5.7-.3 0-1 .1-2.1.4-1 .3-1.8.4-2.4.4-.9 0-2.1-.6-3.5-1.9s-2.1-2.4-2.1-3.3c0-.7.8-2.2 2.4-4.7 2.9.7 4.8 1 5.7 1 2.3 0 3.8-1 4.5-3.1.8-2.1 1.8-3.1 3.2-3.1 1.9 0 6.1 1.9 12.6 5.6-3.6-4.8-6-8.4-7.6-10.8z" class="st1"/><g id="svg_188"><path id="svg_189" d="M886 630v100c27.6 0 50-22.4 50-50s-22.4-50-50-50z" class="st3"/></g><path id="svg_190" d="M920.7 698.1c-1.4.7-4.5 1.7-9.2 2.9 1.3-2 3.6-4.7 7.1-8.3 3.5-3.6 5.9-6.5 7.1-8.8 1.9-3.4 2.9-7.2 2.9-11.4 0-7.9-3.5-16.3-10.4-25.2 1.1 2.8 1.9 4.8 2.4 6.2 1.4 3.5 2 6.5 2 8.8 0 1.8-.5 3.1-1.4 3.9-5.1-18.5-16.9-28.3-35.2-29.3v4.6c3 1 4.5 2.2 4.5 3.7 0 .7-1.5 1.4-4.5 2.1v3.8h.1c1.9 0 4.1-.6 6.5-1.9 2.4-1.3 4.2-1.9 5.3-1.9 2.5 0 4.6 1.3 6.2 3.9 1.4 2.2 2.2 4.7 2.2 7.4 0 2.1-.5 3.2-1.5 3.2-.8 0-1.9-1.1-3.3-3.2-1-1.6-1.8-2.8-2.3-3.6-.2.6-.3 1.2-.3 1.8 0 3.6 1.6 6.9 4.9 9.9 3.3 3.1 6.7 4.7 10.2 4.8-.2 2.3-.8 4.7-1.8 7.1-1.2 3.2-2.6 5.1-4.1 5.7-1-1-1.5-2.5-1.5-4.3 0-.8.3-2.2.8-3.9.6-1.8.8-3.1.8-3.8-.8.3-1.8 1.3-2.9 2.7-1.1 1.5-1.7 2.7-1.8 3.8-.6 3.6-.8 6.6-.5 9.2.3 2.2-.7 4.7-2.8 7.4-2.1 2.7-4.3 4.1-6.5 4.1-1.4 0-2.8-.3-3.9-.9-1.5-.8-2.3-1.8-2.3-3.1 0-2 1.8-4.1 5.5-6.2 5.1-3.1 8.1-9 8.9-17.9.3 0-2 1.3-6.6 3.9-3.6 2-6.7 3.2-9.4 3.7v43.4c10.6-.7 18.5-2.6 23.9-5.7-1.3 0-4.4-.1-9.4-.2s-6.4-.2-4.3-.2c-.4 0-.9-.3-1.5-.8-.6-.6-.9-1-.9-1.5 0-1.4 1.8-2.4 5.3-3.2 2.4-.5 4.6-.8 6.6-.8 11.1 0 18.5-4.5 22.3-13.4.9-2.2 1.4-3.9 1.4-5-2.5 2.9-5.4 5.1-8.6 6.5z" class="st1"/><path id="svg_191" d="M892.4 661.9c1.6-1 2.4-2.2 2.4-3.6 0-3-1.4-4.5-4.2-4.5-1.2 0-2.3.6-3.2 1.8-.4.5-.8 1-1.2 1.2v6.2c.5.2 1.1.3 1.6.3 1.4.1 3-.4 4.6-1.4z" class="st1"/><path id="svg_192" d="M651 630h-88c-27.6 0-50 22.4-50 50s22.4 50 50 50h88c27.6 0 50-22.4 50-50s-22.4-50-50-50z" class="st0"/><path id="svg_193" d="M556.6 643v59.3c0 7.1 3 10.6 9 10.6h1.6v4.1h-31.6v-4.1h2c5.8 0 8.7-3.5 8.7-10.6v-38.9c0-7.2-2.5-10.8-7.5-10.8h-3.2v-3.9h1.1c6.2 0 11.7-1.9 16.7-5.7h3.2z" class="st1"/><path id="svg_194" d="M576.1 682.2c0-9.1 1.9-17.4 5.7-25 4.7-9.5 11.2-14.2 19.4-14.2 8.1 0 14.5 4 19.1 12.1 3.8 6.6 5.7 14.4 5.7 23.2 0 9.1-1.9 17.4-5.7 24.8-4.7 9.3-11.1 13.9-19.4 13.9-7.9 0-14.2-4-18.8-12-4-6.8-6-14.4-6-22.8zm10.5-4.1c0 12 1.8 21.3 5.4 27.9 2.5 4.6 5.7 7 9.6 7 9.4 0 14.1-9.7 14.1-29.2 0-8.6-.7-15.8-2.2-21.7-2.6-9.7-6.9-14.6-13.1-14.6-9.1 0-13.7 9.4-13.7 28.2v2.4z" class="st1"/><path id="svg_195" d="M637.5 682.2c0-9.1 1.9-17.4 5.7-25 4.7-9.5 11.2-14.2 19.4-14.2 8.1 0 14.5 4 19.1 12.1 3.8 6.6 5.7 14.4 5.7 23.2 0 9.1-1.9 17.4-5.7 24.8-4.7 9.3-11.1 13.9-19.4 13.9-7.9 0-14.2-4-18.8-12-4-6.8-6-14.4-6-22.8zm10.4-4.1c0 12 1.8 21.3 5.4 27.9 2.5 4.6 5.7 7 9.6 7 9.4 0 14.1-9.7 14.1-29.2 0-8.6-.7-15.8-2.2-21.7-2.6-9.7-6.9-14.6-13.1-14.6-9.1 0-13.7 9.4-13.7 28.2v2.4z" class="st1"/><path id="svg_196" d="M458 630H50c-27.6 0-50 22.4-50 50s22.4 50 50 50h408c27.6 0 50-22.4 50-50s-22.4-50-50-50z" class="st0"/><g id="svg_197"><path id="svg_198" d="M84.1 715.5v-2.6c6.9-.8 10.3-3.3 10.3-7.6 0-2.5-1-3.9-2.9-4l-1-.1c-2.8-.2-4.2-1.6-4.2-4.1 0-1.4.4-2.6 1.3-3.4.9-.8 2-1.2 3.5-1.2 2.4 0 4.4 1.2 5.8 3.7 1.2 2 1.8 4.4 1.8 7 0 4.1-1.4 7.3-4.3 9.4-2.6 1.9-6 2.8-10.3 2.9z" class="st1"/></g><g id="svg_199"><path id="svg_200" d="M286.6 715.5v-2.6c6.9-.8 10.3-3.3 10.3-7.6 0-2.5-1-3.9-2.9-4l-1-.1c-2.8-.2-4.2-1.6-4.2-4.1 0-1.4.4-2.6 1.3-3.4.9-.8 2-1.2 3.5-1.2 2.4 0 4.4 1.2 5.8 3.7 1.2 2 1.8 4.4 1.8 7 0 4.1-1.4 7.3-4.3 9.4-2.6 1.9-6 2.8-10.3 2.9z" class="st1"/></g><path id="svg_201" d="M430.5 680.4c0-9.5 2-18.3 6.1-26.4 5-10 11.9-15 20.6-15 8.6 0 15.4 4.2 20.2 12.7 4.1 7 6.1 15.2 6.1 24.4 0 9.6-2 18.3-6.1 26.1-4.9 9.8-11.8 14.7-20.6 14.7-8.4 0-15-4.2-20-12.6-4.2-7.1-6.3-15.1-6.3-23.9zm11.1-4.4c0 12.6 1.9 22.4 5.7 29.4 2.6 4.9 6 7.4 10.2 7.4 10 0 14.9-10.2 14.9-30.7 0-9-.8-16.6-2.4-22.8-2.7-10.2-7.4-15.4-13.9-15.4-9.7 0-14.5 9.9-14.5 29.7v2.4z" class="st1"/><path id="svg_202" d="M369.5 680.4c0-9.5 2-18.3 6.1-26.4 5-10 11.9-15 20.6-15 8.6 0 15.4 4.2 20.2 12.7 4.1 7 6.1 15.2 6.1 24.4 0 9.6-2 18.3-6.1 26.1-4.9 9.8-11.8 14.7-20.6 14.7-8.4 0-15-4.2-20-12.6-4.2-7.1-6.3-15.1-6.3-23.9zm11.1-4.4c0 12.6 1.9 22.4 5.7 29.4 2.6 4.9 6 7.4 10.2 7.4 10 0 14.9-10.2 14.9-30.7 0-9-.8-16.6-2.4-22.8-2.7-10.2-7.4-15.4-13.9-15.4-9.7 0-14.5 9.9-14.5 29.7v2.4z" class="st1"/><path id="svg_203" d="M308.2 680.4c0-9.5 2-18.3 6.1-26.4 5-10 11.9-15 20.6-15 8.6 0 15.4 4.2 20.2 12.7 4.1 7 6.1 15.2 6.1 24.4 0 9.6-2 18.3-6.1 26.1-4.9 9.8-11.8 14.7-20.6 14.7-8.4 0-15-4.2-20-12.6-4.2-7.1-6.3-15.1-6.3-23.9zm11.1-4.4c0 12.6 1.9 22.4 5.7 29.4 2.6 4.9 6 7.4 10.2 7.4 10 0 14.9-10.2 14.9-30.7 0-9-.8-16.6-2.4-22.8-2.7-10.2-7.4-15.4-13.9-15.4-9.7 0-14.5 9.9-14.5 29.7v2.4z" class="st1"/><path id="svg_204" d="M226.9 680.4c0-9.5 2-18.3 6.1-26.4 5-10 11.9-15 20.6-15 8.6 0 15.4 4.2 20.2 12.7 4.1 7 6.1 15.2 6.1 24.4 0 9.6-2 18.3-6.1 26.1-4.9 9.8-11.8 14.7-20.6 14.7-8.4 0-15-4.2-20-12.6-4.2-7.1-6.3-15.1-6.3-23.9zM238 676c0 12.6 1.9 22.4 5.7 29.4 2.6 4.9 6 7.4 10.2 7.4 10 0 14.9-10.2 14.9-30.7 0-9-.8-16.6-2.4-22.8-2.7-10.2-7.4-15.4-13.9-15.4-9.7 0-14.5 9.9-14.5 29.7v2.4z" class="st1"/><path id="svg_205" d="M165.9 680.4c0-9.5 2-18.3 6.1-26.4 5-10 11.9-15 20.6-15 8.6 0 15.4 4.2 20.2 12.7 4.1 7 6.1 15.2 6.1 24.4 0 9.6-2 18.3-6.1 26.1-4.9 9.8-11.8 14.7-20.6 14.7-8.4 0-15-4.2-20-12.6-4.2-7.1-6.3-15.1-6.3-23.9zM177 676c0 12.6 1.9 22.4 5.7 29.4 2.6 4.9 6 7.4 10.2 7.4 10 0 14.9-10.2 14.9-30.7 0-9-.8-16.6-2.4-22.8-2.7-10.2-7.4-15.4-13.9-15.4-9.7 0-14.5 9.9-14.5 29.7v2.4z" class="st1"/><path id="svg_206" d="M104.5 680.4c0-9.5 2-18.3 6.1-26.4 5-10 11.9-15 20.6-15 8.6 0 15.4 4.2 20.2 12.7 4.1 7 6.1 15.2 6.1 24.4 0 9.6-2 18.3-6.1 26.1-4.9 9.8-11.8 14.7-20.6 14.7-8.4 0-15-4.2-20-12.6-4.1-7.1-6.3-15.1-6.3-23.9zm11.1-4.4c0 12.6 1.9 22.4 5.7 29.4 2.6 4.9 6 7.4 10.2 7.4 10 0 14.9-10.2 14.9-30.7 0-9-.8-16.6-2.4-22.8-2.7-10.2-7.4-15.4-13.9-15.4-9.7 0-14.5 9.9-14.5 29.7v2.4z" class="st1"/><path id="svg_207" d="M61.8 639v62.5c0 7.5 3.2 11.2 9.7 11.2h1.7v4.3H39.1v-4.3h2.1c6.2 0 9.4-3.7 9.4-11.2v-41c0-7.6-2.7-11.4-8.1-11.4h-3.4V645h1.2c6.7 0 12.7-2 18.1-6h3.4z" class="st1"/><path id="svg_208" d="M782.1 630c-36.8 1.7 4.3 33-16.5 49.5-.1 0-.2.1-.3.1-14.5 5.9-30.7-17.7-31.2 7.1 7.7-11.5 11.2-.3 23.8-1-6.1 8.1-3.1 21.7-13.3 23.9-18.6 4-32.3-18.6-31.2-32.9 2.5-31.6 27.3-46 51.9-44.5-32.5-6.5-60.1 20.3-59.3 48.1.9 31.9 17.9 47.5 43.8 49.6 36.8-1.7-4.3-33 16.5-49.5.1 0 .2-.1.3-.1 14.5-5.9 30.7 17.7 31.2-7.1-7.7 11.5-11.2.3-23.8 1 6.1-8.1 3.1-21.7 13.3-23.9 18.7-4 32.3 18.6 31.2 32.9-2.5 31.6-27.3 46-51.9 44.5 32.5 6.5 60.1-20.3 59.3-48.1-.8-31.9-17.8-47.5-43.8-49.6z"/><path id="svg_209" d="M602.6 469.9c.1-5.3-1.6-10.7-5-14.9-1.6-1.8-2.9-3.8-4.6-5.5-3.8-3.7-9.4-4-13.9-6.3-.3-2.4-1.1-4.7-.6-7.1.2-.8.4-1.6 0-2.3-1.2-2.7-.2-5.7-.4-8.5-.2-1.5-.1-3.3-1.5-4.2-.3 3.1-1.5 6-2.4 8.9-.4 2.3-.4 4.7-1.4 6.8.6 2.2-.6 4-2 5.6-3 1.5-6.5 1.9-9.1 4.1-1.8 1.6-3.8 2.9-5.9 4.2-1.5 1.9-3.3 3.8-3.9 6.2-2.8 3.3-3.1 7.8-4.7 11.7 0 5.8 1.1 12 4.8 16.7 2.7 2.2 4.5 5.1 7.1 7.3 2.5 1.5 5.3 2.8 7.9 4.1 1.7.4 3.5.6 5.2 1.1 1.4 7.1 2.3 14.4 5.1 21.1.9-2.8.8-5.7 1.6-8.5 1.1-4.1-1.2-8.4.1-12.5 1.9-1.7 5.2-.6 7.3-2.1 4.1-2.5 8.4-5 11.4-8.8 1.1-2.2 3.4-3.9 3.4-6.5.2-3.6 2.3-6.9 1.5-10.6zm-30.4 22c-3-.7-5.7-2.1-8.2-3.9-2.7-1.8-3.7-5.1-6.3-6.9-2.5-3-1.9-7-3-10.5.4-2.4.9-4.9 1.1-7.3 1.2-2 3.1-3.5 3.6-5.9 1.8-2.5 4.5-4.3 6.6-6.5 1.6-1.8 4.1-1 6.1-1.1-.2 2-.4 4.1.1 6 .2 1.2.8 2.4.6 3.7-.4 2.7.6 5.4-.1 8.1-1.4 5.6.1 11.2.3 16.8-.1 2.5-.2 5-.8 7.5zm22.5-10.6c-2 1.4-3.6 3.1-5.4 4.8-3 2.1-5.9 4.2-9.5 5.3.3-2.5.6-5.1-.2-7.6-2-5.6.4-11.4.9-17.1-.4-3.4 0-7-1.6-10-.2-2.3.8-4.6 1.5-6.8 2.3.9 4.5 2.2 6.5 3.8 2.4 1.8 6 2.9 6.5 6.2.3 2.2 2.6 3.5 2.6 5.7-.1 5.2.6 10.7-1.3 15.7z" class="st8"/><path id="svg_210" d="M707.6 469.9c.1-5.3-1.6-10.7-5-14.9-1.6-1.8-2.9-3.8-4.6-5.5-3.8-3.7-9.4-4-13.9-6.3-.3-2.4-1.1-4.7-.6-7.1.2-.8.4-1.6 0-2.3-1.2-2.7-.2-5.7-.4-8.5-.2-1.5-.1-3.3-1.5-4.2-.3 3.1-1.5 6-2.4 8.9-.4 2.3-.4 4.7-1.4 6.8.6 2.2-.6 4-2 5.6-3 1.5-6.5 1.9-9.1 4.1-1.8 1.6-3.8 2.9-5.9 4.2-1.5 1.9-3.3 3.8-3.9 6.2-2.8 3.3-3.1 7.8-4.7 11.7 0 5.8 1.1 12 4.8 16.7 2.7 2.2 4.5 5.1 7.1 7.3 2.5 1.5 5.3 2.8 7.9 4.1 1.7.4 3.5.6 5.2 1.1 1.4 7.1 2.3 14.4 5.1 21.1.9-2.8.8-5.7 1.6-8.5 1.1-4.1-1.2-8.4.1-12.5 1.9-1.7 5.2-.6 7.3-2.1 4.1-2.5 8.4-5 11.4-8.8 1.1-2.2 3.4-3.9 3.4-6.5.2-3.6 2.3-6.9 1.5-10.6zm-30.4 22c-3-.7-5.7-2.1-8.2-3.9-2.7-1.8-3.7-5.1-6.3-6.9-2.5-3-1.9-7-3-10.5.4-2.4.9-4.9 1.1-7.3 1.2-2 3.1-3.5 3.6-5.9 1.8-2.5 4.5-4.3 6.6-6.5 1.6-1.8 4.1-1 6.1-1.1-.2 2-.4 4.1.1 6 .2 1.2.8 2.4.6 3.7-.4 2.7.6 5.4-.1 8.1-1.4 5.6.1 11.2.3 16.8-.1 2.5-.2 5-.8 7.5zm22.5-10.6c-2 1.4-3.6 3.1-5.4 4.8-3 2.1-5.9 4.2-9.5 5.3.3-2.5.6-5.1-.2-7.6-2-5.6.4-11.4.9-17.1-.4-3.4 0-7-1.6-10-.2-2.3.8-4.6 1.5-6.8 2.3.9 4.5 2.2 6.5 3.8 2.4 1.8 6 2.9 6.5 6.2.3 2.2 2.6 3.5 2.6 5.7-.1 5.2.6 10.7-1.3 15.7z" class="st8"/><path id="svg_211" d="M812.6 469.9c.1-5.3-1.6-10.7-5-14.9-1.6-1.8-2.9-3.8-4.6-5.5-3.8-3.7-9.4-4-13.9-6.3-.3-2.4-1.1-4.7-.6-7.1.2-.8.4-1.6 0-2.3-1.2-2.7-.2-5.7-.4-8.5-.2-1.5-.1-3.3-1.5-4.2-.3 3.1-1.5 6-2.4 8.9-.4 2.3-.4 4.7-1.4 6.8.6 2.2-.6 4-2 5.6-3 1.5-6.5 1.9-9.1 4.1-1.8 1.6-3.8 2.9-5.9 4.2-1.5 1.9-3.3 3.8-3.9 6.2-2.8 3.3-3.1 7.8-4.7 11.7 0 5.8 1.1 12 4.8 16.7 2.7 2.2 4.5 5.1 7.1 7.3 2.5 1.5 5.3 2.8 7.9 4.1 1.7.4 3.5.6 5.2 1.1 1.4 7.1 2.3 14.4 5.1 21.1.9-2.8.8-5.7 1.6-8.5 1.1-4.1-1.2-8.4.1-12.5 1.9-1.7 5.2-.6 7.3-2.1 4.1-2.5 8.4-5 11.4-8.8 1.1-2.2 3.4-3.9 3.4-6.5.2-3.6 2.3-6.9 1.5-10.6zm-30.4 22c-3-.7-5.7-2.1-8.2-3.9-2.7-1.8-3.7-5.1-6.3-6.9-2.5-3-1.9-7-3-10.5.4-2.4.9-4.9 1.1-7.3 1.2-2 3.1-3.5 3.6-5.9 1.8-2.5 4.5-4.3 6.6-6.5 1.6-1.8 4.1-1 6.1-1.1-.2 2-.4 4.1.1 6 .2 1.2.8 2.4.6 3.7-.4 2.7.6 5.4-.1 8.1-1.4 5.6.1 11.2.3 16.8-.1 2.5-.2 5-.8 7.5zm22.5-10.6c-2 1.4-3.6 3.1-5.4 4.8-3 2.1-5.9 4.2-9.5 5.3.3-2.5.6-5.1-.2-7.6-2-5.6.4-11.4.9-17.1-.4-3.4 0-7-1.6-10-.2-2.3.8-4.6 1.5-6.8 2.3.9 4.5 2.2 6.5 3.8 2.4 1.8 6 2.9 6.5 6.2.3 2.2 2.6 3.5 2.6 5.7-.1 5.2.6 10.7-1.3 15.7z" class="st8"/><path id="svg_212" d="M917.6 469.9c.1-5.3-1.6-10.7-5-14.9-1.6-1.8-2.9-3.8-4.6-5.5-3.8-3.7-9.4-4-13.9-6.3-.3-2.4-1.1-4.7-.6-7.1.2-.8.4-1.6 0-2.3-1.2-2.7-.2-5.7-.4-8.5-.2-1.5-.1-3.3-1.5-4.2-.3 3.1-1.5 6-2.4 8.9-.4 2.3-.4 4.7-1.4 6.8.6 2.2-.6 4-2 5.6-3 1.5-6.5 1.9-9.1 4.1-1.8 1.6-3.8 2.9-5.9 4.2-1.5 1.9-3.3 3.8-3.9 6.2-2.8 3.3-3.1 7.8-4.7 11.7 0 5.8 1.1 12 4.8 16.7 2.7 2.2 4.5 5.1 7.1 7.3 2.5 1.5 5.3 2.8 7.9 4.1 1.7.4 3.5.6 5.2 1.1 1.4 7.1 2.3 14.4 5.1 21.1.9-2.8.8-5.7 1.6-8.5 1.1-4.1-1.2-8.4.1-12.5 1.9-1.7 5.2-.6 7.3-2.1 4.1-2.5 8.4-5 11.4-8.8 1.1-2.2 3.4-3.9 3.4-6.5.2-3.6 2.3-6.9 1.5-10.6zm-30.4 22c-3-.7-5.7-2.1-8.2-3.9-2.7-1.8-3.7-5.1-6.3-6.9-2.5-3-1.9-7-3-10.5.4-2.4.9-4.9 1.1-7.3 1.2-2 3.1-3.5 3.6-5.9 1.8-2.5 4.5-4.3 6.6-6.5 1.6-1.8 4.1-1 6.1-1.1-.2 2-.4 4.1.1 6 .2 1.2.8 2.4.6 3.7-.4 2.7.6 5.4-.1 8.1-1.4 5.6.1 11.2.3 16.8-.1 2.5-.2 5-.8 7.5zm22.5-10.6c-2 1.4-3.6 3.1-5.4 4.8-3 2.1-5.9 4.2-9.5 5.3.3-2.5.6-5.1-.2-7.6-2-5.6.4-11.4.9-17.1-.4-3.4 0-7-1.6-10-.2-2.3.8-4.6 1.5-6.8 2.3.9 4.5 2.2 6.5 3.8 2.4 1.8 6 2.9 6.5 6.2.3 2.2 2.6 3.5 2.6 5.7-.1 5.2.6 10.7-1.3 15.7z" class="st8"/><path id="svg_213" d="M1022.6 469.9c.1-5.3-1.6-10.7-5-14.9-1.6-1.8-2.9-3.8-4.6-5.5-3.8-3.7-9.4-4-13.9-6.3-.3-2.4-1.1-4.7-.6-7.1.2-.8.4-1.6 0-2.3-1.2-2.7-.2-5.7-.4-8.5-.2-1.5-.1-3.3-1.5-4.2-.3 3.1-1.5 6-2.4 8.9-.4 2.3-.4 4.7-1.4 6.8.6 2.2-.6 4-2 5.6-3 1.5-6.5 1.9-9.1 4.1-1.8 1.6-3.8 2.9-5.9 4.2-1.5 1.9-3.3 3.8-3.9 6.2-2.8 3.3-3.1 7.8-4.7 11.7 0 5.8 1.1 12 4.8 16.7 2.7 2.2 4.5 5.1 7.1 7.3 2.5 1.5 5.3 2.8 7.9 4.1 1.7.4 3.5.6 5.2 1.1 1.4 7.1 2.3 14.4 5.1 21.1.9-2.8.8-5.7 1.6-8.5 1.1-4.1-1.2-8.4.1-12.5 1.9-1.7 5.2-.6 7.3-2.1 4.1-2.5 8.4-5 11.4-8.8 1.1-2.2 3.4-3.9 3.4-6.5.2-3.6 2.3-6.9 1.5-10.6zm-30.4 22c-3-.7-5.7-2.1-8.2-3.9-2.7-1.8-3.7-5.1-6.3-6.9-2.5-3-1.9-7-3-10.5.4-2.4.9-4.9 1.1-7.3 1.2-2 3.1-3.5 3.6-5.9 1.8-2.5 4.5-4.3 6.6-6.5 1.6-1.8 4.1-1 6.1-1.1-.2 2-.4 4.1.1 6 .2 1.2.8 2.4.6 3.7-.4 2.7.6 5.4-.1 8.1-1.4 5.6.1 11.2.3 16.8-.1 2.5-.2 5-.8 7.5zm22.5-10.6c-2 1.4-3.6 3.1-5.4 4.8-3 2.1-5.9 4.2-9.5 5.3.3-2.5.6-5.1-.2-7.6-2-5.6.4-11.4.9-17.1-.4-3.4 0-7-1.6-10-.2-2.3.8-4.6 1.5-6.8 2.3.9 4.5 2.2 6.5 3.8 2.4 1.8 6 2.9 6.5 6.2.3 2.2 2.6 3.5 2.6 5.7-.1 5.2.6 10.7-1.3 15.7z" class="st8"/><g id="svg_214"><path id="svg_215" d="M979 630l-28.3 100H941l28.3-100h9.7z"/></g><path id="svg_216" d="M1039.3 680.2c.1-5.3-1.6-10.7-5-14.9-1.6-1.8-2.9-3.8-4.6-5.5-3.8-3.7-9.4-4-13.9-6.3-.3-2.4-1.1-4.7-.6-7.1.2-.8.4-1.6 0-2.3-1.2-2.7-.2-5.7-.4-8.5-.2-1.5-.1-3.3-1.5-4.2-.3 3.1-1.5 6-2.4 8.9-.4 2.3-.4 4.7-1.4 6.8.6 2.2-.6 4-2 5.6-3 1.5-6.5 1.9-9.1 4.1-1.8 1.6-3.8 2.9-5.9 4.2-1.5 1.9-3.3 3.8-3.9 6.2-2.8 3.3-3.1 7.8-4.7 11.7 0 5.8 1.1 12 4.8 16.7 2.7 2.2 4.5 5.1 7.1 7.3 2.5 1.5 5.3 2.8 7.9 4.1 1.7.4 3.5.6 5.2 1.1 1.4 7.1 2.3 14.4 5.1 21.1.9-2.8.8-5.7 1.6-8.5 1.1-4.1-1.2-8.4.1-12.5 1.9-1.7 5.2-.6 7.3-2.1 4.1-2.5 8.4-5 11.4-8.8 1.1-2.2 3.4-3.9 3.4-6.5.2-3.6 2.3-6.9 1.5-10.6zm-30.4 22c-3-.7-5.7-2.1-8.2-3.9-2.7-1.8-3.7-5.1-6.3-6.9-2.5-2.9-1.9-7-3-10.5.4-2.4.9-4.9 1.1-7.3 1.2-2 3.1-3.5 3.6-5.9 1.8-2.5 4.5-4.3 6.6-6.5 1.6-1.8 4.1-1 6.1-1.1-.2 2-.4 4.1.1 6 .2 1.2.8 2.4.6 3.7-.4 2.7.6 5.4-.1 8.1-1.4 5.6.1 11.2.3 16.8-.1 2.5-.2 5-.8 7.5zm22.5-10.6c-2 1.4-3.6 3.1-5.3 4.8-3 2.1-5.9 4.2-9.5 5.3.3-2.5.6-5.1-.2-7.6-2-5.6.4-11.4.9-17.1-.4-3.4 0-7-1.6-10-.2-2.3.8-4.6 1.5-6.8 2.3.9 4.5 2.2 6.5 3.8 2.4 1.8 6 2.9 6.5 6.2.3 2.2 2.6 3.5 2.6 5.7-.2 5.2.5 10.7-1.4 15.7z" class="st8"/><g id="svg_217"><circle id="svg_218" cx="680" cy="575.1" r="50" class="st9"/><path id="svg_219" d="M664.6 602.9c1.7-2 6.1-1.8 6.7 2.1.4 2.4 1 10.1 1.8 13.3.4 1.7 1.3 3.2 2.3 3.2 1.9.1 6.6-3.8 7.6-5.6 1.8-3.2 3.1-6.9 4.3-10.8.5-1.5 2.1-1.6 3-.1 1.7 2.8 4.9 7.4 7.6 10.8.7.9 1.6.8 1.8-.6.7-5.1 1.8-11.2 3.9-16.7.7-1.8 2.6-2 4-1.1.8.5 3.5 1.9 4.5 2.2 1.7.5 3.2.7 5.5-1 1.7-1.3 1.9-2.5 1-3.9-1.8-2.8-4.4-5-6.4-7.9-1.1-1.6-1-2.8.4-3.6 3.6-2.1 6.8-4.6 9.6-7 1.1-.9 1.8-2.2 2.1-4.4.4-3.2.6-4.8-.8-5.1-1.4-.4-2.2.6-8 2.1-1.4.4-3 .6-3.5-.2-.6-.8-.2-2.2 1-3.5 1.8-2 4.1-4.3 5.9-7 .9-1.3 1.9-3.4 1.1-4.7-.9-1.4-3.3-.6-4.4-.1-1.6.7-4.6 1.3-6.5 1.6-2.4.4-4.2.3-5-.5-.7-.7-.9-2.3-.1-4.2 1.1-2.7 3-5.1 4.5-6.4 1.4-1.2 1.3-1.8.2-2.8-.9-.7-3.5-1.2-5.5-.6-2.9.9-5.7 2.4-8.3 4.3-1.5 1.1-3.4 1.7-5 1.4-1.3-.2-2.7-1.3-3-3.4-.8-4.7-1.8-9.4-3-12-.7-1.6-1.3-2.2-2.3-2.2-1 0-1.6.8-2.4 2.4-1.3 2.5-2.7 7.6-3.7 11.8-.6 2.4-1.7 3.4-3.6 4.6-1.1.6-2.1.2-2.6-1.1-.6-1.4-2.5-5.9-3.1-7.8-.4-1.2-.9-1.3-1.7-.1-1.8 2.7-4.8 7.7-6.1 10.5-.8 1.6-.9 3.2.1 4.2 1.4 1.4 1.9 2.1 1.1 2.9-.5.6-2.9.2-5.5-.4-1.7-.4-4.7-.8-7.3 0-2.2.7-3.6 1.8-3.8 3.3-.2 1.2 2.1 4.4 3.4 5.6 1 .8 1.4 1.5 1.5 2.2.2 1.5 0 3.4-.8 4.6-.4.7-1.8.7-4.6.8-6.3.4-9 1.6-9.3 6-.2 3.2 2.1 5.1 5.6 4.2 1.6-.4 3-.5 4.7-.1 1.7.4 4.8 1.3 4.8 2.9 0 2.1-3.2 2.6-6.3 3.7-1.2.5-.9 1.7.1 1.9 1 .2 12.8 3.3 14.9 5.9 1.2 1.5-.2 4.8-1 6.7-.8 1.9-.4 7.4.3 7.5.8.2 2.5-1.5 3.6-2.8 1.5-1.4 3.1-3.2 4.7-5z" class="st1"/><path id="svg_220" d="M699.9 575.1c0 11-8.9 19.9-19.9 19.9-11 0-19.9-8.9-19.9-19.9 0-11 8.9-19.9 19.9-19.9 11 0 19.9 8.9 19.9 19.9z" class="st10"/></g><g id="svg_221"><g id="svg_222"><circle id="svg_223" cx="469.9" cy="575.1" r="50" class="st11"/></g><g id="svg_224"><path id="svg_225" d="M514.7 580.9l-10.6 12.7-2.6-2.6c1-2.5 1.6-4.9 1.9-7 .3-2.1.2-4.1-.3-5.9 0-.2-.1-.5-.2-.7l-.3-.6c-.4-1.1-1-2.2-1.7-3.2-.8-1-1.9-2.2-3.3-3.7l-7.6-7.7-35 35.1c-3.1 3.1-4.7 5.7-5 8-.2 2.3.9 4.6 3.3 7.1l1 .9-2.7 2.7-23-23 2.7-2.7 1.1 1.1c2.4 2.5 4.7 3.6 7 3.4 2.3-.2 4.9-1.9 7.9-4.9l35.2-35.2-7.8-7.8c-2.2-2.1-4.1-3.6-5.6-4.4-1.6-.8-3.4-1.2-5.4-1h-.9c-.3 0-.6.1-1 .1-.6 0-1.2.1-1.7.2s-.9.2-1.4.2c-.1 0-.3.1-.4.1h-.5c-.5.1-1.1.3-1.8.5s-1.5.4-2.5.6l-2.4-2.5 12.4-10.9 51.2 51.1z" class="st1"/></g></g><g id="svg_226"><g id="svg_227"><circle id="svg_228" cx="575" cy="575.1" r="50" class="st11"/></g><path id="svg_229" d="M574.4 619.5c-3.2 3.2-8.5 3.2-11.7 0l-32-32c-3.2-3.2-3.2-8.5 0-11.7l45-45c3.2-3.2 8.5-3.2 11.7 0l32 32c3.2 3.2 3.2 8.5 0 11.7l-45 45z" class="st1"/><path id="svg_230" d="M609.3 583h-36l13.2-9.4c-4.9-3.9-10.6-5.8-17-5.8-3.2 0-5.4.6-6.6 1.8-1.2 1.2-1.8 3.4-1.8 6.7 0 8.9 4.6 18.3 13.7 28.4l-10.4 10.5c-12.1-14.7-18.1-27.8-18.1-39.4 0-6.9 2.1-12.4 6.3-16.5 4.2-4.1 9.7-6.1 16.7-6.1 8.5 0 17.7 3.2 27.6 9.6l7.7-13.2 4.7 33.4z" class="st7"/></g><g id="svg_231"><g id="svg_232"><path id="svg_233" d="M310 260c0 27.6-22.4 50-50 50s-50-22.4-50-50 22.4-50 50-50 50 22.4 50 50z" class="st11"/></g><g id="svg_234"><path id="svg_235" d="M264.9 275.7c0 4 .7 6.8 2 8.4s3.5 2.4 6.6 2.4l.7-.1v3.6h-28.8v-3.6h.9c3.1.1 5.3-.7 6.6-2.3 1.3-1.6 2-4.4 2-8.3v-12.5l-18.3-26.8c-.7-1-1.4-1.9-2-2.6-.6-.7-1.1-1.3-1.6-1.8-.8-.7-1.7-1.2-2.6-1.4-.9-.3-2.1-.5-3.5-.7v-3.6h28v3.6c-2.8.2-4.7.6-5.7 1.2-1 .5-1.5 1.5-1.5 2.9 0 .6.1 1.2.4 1.9.2.6.6 1.3 1 2l14.2 20.6 10.4-15.2c1-1.4 1.7-2.6 2.1-3.6.4-1 .7-1.9.8-2.8v-.4-.4c0-1.9-.5-3.4-1.6-4.3-1.1-.9-2.9-1.5-5.5-1.8v-3.6h23.1v3.6c-.7.1-1.4.3-2.1.5-.6.2-1.2.5-1.8.9-1 .6-2 1.4-3.1 2.7-1.1 1.2-2.3 2.9-3.8 5.1l-17.1 24.3.2 12.1z" class="st1"/></g></g><g id="svg_236"><g id="svg_237"><path id="svg_238" d="M415 260c0 27.6-22.4 50-50 50s-50-22.4-50-50 22.4-50 50-50 50 22.4 50 50z" class="st11"/></g><g id="svg_239"><path id="svg_240" d="M389.4 290h-53.8v-2.7l42.6-57.2h-19c-3.1.1-5.5.4-7.2 1-1.7.6-3.2 1.7-4.7 3.4-.1.1-.2.2-.3.4-.1.1-.2.2-.3.4-.2.4-.5.7-.7 1l-.6.9-.3.6c-.1.2-.2.4-.4.6-.1.4-.3.8-.5 1.2-.2.4-.4.9-.7 1.4l-3.4-.1v-14.5h51v2.5l-43 57.4h18.6c2.8.1 5 0 6.7-.2 1.7-.2 3.2-.6 4.6-1.2.2-.1.4-.1.5-.2.2-.1.3-.1.4-.2.9-.4 1.7-.9 2.5-1.5s1.6-1.2 2.4-2c.6-.6 1.1-1.2 1.7-1.8.6-.7 1.2-1.4 1.8-2.2l2.4-3.5h3.6l-3.9 16.5z" class="st1"/></g></g><g id="svg_400"><path id="path4182" d="M888.9 624.7c-.5-.6-.7-1.7-1.2-2.4-.5-.8-1.2-1.6-1.8-2.4-.8-1.1-1.6-2.1-2.4-3.1-1.3-1.8-2.8-3.4-4.4-5-3.8-4-7.9-7.6-12.4-10.7-7.1-4.8-14.6-9.1-22.6-12.1-.6-.2 0 0-3.6-1.8.7-1.1 4.9-7.1 5.9-8.7 1.7-2.6 2.8-5.5 4.1-8.4 1.6-3.6 3-7.4 4.1-11.2 1.4-4.9 2.6-9.8 3.6-14.8.3-1.4 1.8-13.1 2.7-19.1 8.1 2.3 5.3 1.6 7.1 2.1 5.1 1.3 10.4 1.6 15.6 2 3 .2 5.9.2 8.9.2 4.4-.1 8.8-.3 13.2-.9 2.2-.3 4.3-.7 6.5-1.3 1.7-.4 2.8-.7 6.4-2.1.4 1.5 4.5 29.8 10 42.8 2.2 5.1 8.8 16.4 10.8 19-2.9 1.1-14.8 6.5-20.9 10.2-7.6 4.5-14.7 10-20.6 16.5-2.8 3.1-5 6.7-7.2 10.2-.9 1.4-1.3 1.6-1.8 1zm2.4-11.3c1.6-8.2 6.1-18.7 13.2-30.4 2.4-4 6.9-10.7 9.7-14.5 1.7-2.3 2.3-3.2 2.3-3.5 0-.3-.1-.5-.2-.5s-1.2.1-2.4.3c-7.4 1.4-15 1.8-20.9 1.2-2.7-.3-4.6-.6-4.8-.8-.2-.2.4-4 .9-5.9 2.1-8.2 6.8-16.8 13-23.3.9-1 1.7-1.9 1.6-1.9 0 0-.6.1-1.3.3-7.8 2.5-16.4 2.7-22.6.7-.8-.3-1.6-.5-1.6-.5s0 .9.1 1.9c1 9.4-3.5 21.8-12.9 35.7-1.4 2.1-4.2 5.8-5.8 7.8-.6.8-.9 1.3-.8 1.3.1 0 1.3-.2 2.6-.6 3.8-1 7-1.6 11.4-2.1 3.3-.4 11.6-.4 14.4.1 1.9.3 4.4.9 4.6 1 0 0 0 .4-.2.7-.6 2-1.5 5.9-1.9 8.8-.7 5.5-.7 14.5 0 21.1.3 2.6.8 5.9 1 6.2-.1 0 0-.2.6-3.1z"/></g><g id="svg_241"><circle id="svg_242" cx="995" cy="260" r="50" class="st11"/><g id="svg_243"><path id="svg_244" d="M982.8 299.2l2.4-4.1 9.8 13.8 9.8-13.8 2.4 4.1h4.3l8.5 4.1.7-9.4 2.1-3.8-2.3-4.1 16.8-1.6-7-15.3h4.7l2.2-3.8 7.8-5.3-7.8-5.3-2.2-3.7h-4.7l7-15.4-16.8-1.6 2.3-4.1-2.1-3.8-.7-9.4-8.5 4.1h-4.3l-2.4 4.1-9.8-13.8-9.8 13.8-2.4-4.1h-4.3l-8.5-4.1-.7 9.4-2.1 3.8 2.3 4.1-16.8 1.6 7 15.4H955l-2.2 3.7-7.8 5.3 7.8 5.3 2.2 3.8h4.7l-7 15.3 16.8 1.6-2.3 4.1 2.1 3.8.7 9.4 8.5-4.1z" class="st1"/><path id="svg_245" d="M979.9 290.2l15.1-24.3 15.1 24.3v4.1l3.5 2 3.5-2v-4.1l-3.5-2-13.5-25.3 28.6-.9 3.5 2 3.5-2v-4l-3.5-2-3.5 2-28.6-.9 13.5-25.3 3.5-2v-4.1l-3.5-2-3.5 2v4.1L995 254.1l-15.1-24.3v-4.1l-3.5-2-3.5 2v4.1l3.5 2 13.5 25.3-28.6.9-3.5-2-3.5 2v4l3.5 2 3.5-2 28.6.9-13.5 25.3-3.5 2v4.1l3.5 2 3.5-2z" class="st7"/></g><path id="svg_246" d="M1002.1 232.4l-7.1 12.3-7-12.3 7-12.3z" class="st7"/><path id="svg_247" d="M974.6 240.1l7.1 12.2h-14.1l-7.1-12.2z" class="st7"/><path id="svg_248" d="M967.6 267.7h14.1l-7.1 12.2h-14.2z" class="st7"/><path id="svg_249" d="M987.9 287.6l7.1-12.3 7 12.3-7 12.3z" class="st7"/><path id="svg_250" d="M1015.4 279.9l-7.1-12.2h14.1l7.2 12.2z" class="st7"/><path id="svg_251" d="M1022.4 252.3h-14.1l7.1-12.2h14.2z" class="st7"/></g><defs><path id="SVGID_1_" d="M1 1h1L1 2z"/></defs><defs><path id="SVGID_2_" d="M-1-1h-1l1-1z"/></defs><clipPath id="SVGID_3_"><use xlink:href="#SVGID_1_" overflow="visible"/></clipPath><clipPath id="SVGID_4_" class="st12"><use xlink:href="#SVGID_2_" overflow="visible"/></clipPath><g id="svg_253"><path id="svg_255" d="M835 575c0 27.6-22.4 50-50 50s-50-22.4-50-50 22.4-50 50-50 50 22.4 50 50z" class="st13"/><path id="svg_257" d="M784.7 537c2.5 5 5.5 9.8 9.1 14.5 1.5 2 3.3 4 5.3 6.1 1.9 2.1 4.1 4.3 6.5 6.3 2.4 2.1 4.9 4.1 7.8 6s5.8 3.6 9.1 5.1c-4.8 2.6-9.5 5.7-14.2 9.3-2 1.5-4 3.3-6.1 5.3-2.1 2-4.2 4.2-6.3 6.6-2 2.4-4 5-5.9 7.8-1.9 2.8-3.6 5.8-5.1 9-2.4-4.7-5.4-9.3-9-14-3.1-3.9-7-8.1-11.7-12.4-4.7-4.4-10.4-8.2-17-11.7 4.8-2.5 9.5-5.6 14.2-9.2 4-3.2 8.1-7.1 12.4-11.8 4.1-4.6 7.8-10.3 10.9-16.9zm-5.5 52.9c2.2 2.8 4.1 5.7 5.5 8.6 1.9-4 4.1-7.5 6.8-10.4 2.6-2.9 5.2-5.3 7.7-7.3 2.8-2.2 5.8-4.1 8.8-5.8-4.1-1.9-7.6-4.1-10.4-6.8-2.9-2.6-5.3-5.2-7.2-7.7-2.2-2.8-4.1-5.8-5.6-9-1.9 4.1-4.1 7.6-6.7 10.5-2.6 2.9-5.1 5.3-7.6 7.3-2.8 2.2-5.8 4.1-8.8 5.6 4.1 2.1 7.6 4.5 10.5 7.2s5.1 5.4 7 7.8z"/></g><g id="g4850"><title id="title4847">Layer 2</title><path id="backgroundrect" d="M0 0h1045v730H0z" class="st14"/></g><g id="g4855"><title id="title4852">background</title><path id="canvas_background" d="M-1-1h582v402H-1z" class="st14"/></g></svg>