<svg xmlns="http://www.w3.org/2000/svg" id="svg4872" xmlns:xlink="http://www.w3.org/1999/xlink" viewBox="0 0 1045 730"><style>.st0{fill:#CAC5C0;} .st1{fill:#0D0F0F;} .st2{fill:#A3C095;} .st3{fill:#E49977;} .st4{fill:#BAB1AB;} .st5{fill:#C1D7E9;} .st6{fill:#F8F6D8;} .st7{fill:#FFFFFF;} .st8{fill:#111212;} .st9{fill:#F7F4D8;} .st10{fill:none;stroke:#F7F4D8;stroke-width:2.5;stroke-miterlimit:10;} .st11{fill:#C9C4BE;} .st12{clip-path:url(#SVGID_3_);} .st13{fill:#CCC2C0;} .st14{fill:none;}</style><title id="title4581">Layer 1</title><g id="svg_253"><path id="svg_255" d="M835 575c0 27.6-22.4 50-50 50s-50-22.4-50-50 22.4-50 50-50 50 22.4 50 50z" class="st13"/><path id="svg_257" d="M784.7 537c2.5 5 5.5 9.8 9.1 14.5 1.5 2 3.3 4 5.3 6.1 1.9 2.1 4.1 4.3 6.5 6.3 2.4 2.1 4.9 4.1 7.8 6s5.8 3.6 9.1 5.1c-4.8 2.6-9.5 5.7-14.2 9.3-2 1.5-4 3.3-6.1 5.3-2.1 2-4.2 4.2-6.3 6.6-2 2.4-4 5-5.9 7.8-1.9 2.8-3.6 5.8-5.1 9-2.4-4.7-5.4-9.3-9-14-3.1-3.9-7-8.1-11.7-12.4-4.7-4.4-10.4-8.2-17-11.7 4.8-2.5 9.5-5.6 14.2-9.2 4-3.2 8.1-7.1 12.4-11.8 4.1-4.6 7.8-10.3 10.9-16.9zm-5.5 52.9c2.2 2.8 4.1 5.7 5.5 8.6 1.9-4 4.1-7.5 6.8-10.4 2.6-2.9 5.2-5.3 7.7-7.3 2.8-2.2 5.8-4.1 8.8-5.8-4.1-1.9-7.6-4.1-10.4-6.8-2.9-2.6-5.3-5.2-7.2-7.7-2.2-2.8-4.1-5.8-5.6-9-1.9 4.1-4.1 7.6-6.7 10.5-2.6 2.9-5.1 5.3-7.6 7.3-2.8 2.2-5.8 4.1-8.8 5.6 4.1 2.1 7.6 4.5 10.5 7.2s5.1 5.4 7 7.8z"/></g></svg>
