<svg xmlns="http://www.w3.org/2000/svg" xmlns:xlink="http://www.w3.org/1999/xlink" xmlns:sketch="http://www.bohemiancoding.com/sketch/ns" viewBox="0 0 30 37.5" version="1.1" x="0px" y="0px"><title>furniture_001-bookshelf-shelf-cupboard-cabibet-interior</title><desc>Created with Sketch.</desc><g stroke="none" stroke-width="1" fill="none" fill-rule="evenodd" sketch:type="MSPage"><g sketch:type="MSArtboardGroup" transform="translate(-45.000000, -45.000000)" fill="#000000"><path d="M51,56 L51,63 L60,63 L60,56 L51,56 Z M51,55 L51,48 L60,48 L60,55 L51,55 Z M64,63 L61,63 L61,48 L70,48 L70,63 L67,63 L67,57.5034227 C67,57.22539 66.7842474,57 66.504611,57 L64.495389,57 C64.2217932,57 64,57.2329025 64,57.5034227 L64,63 Z M65,63 L66,63 L66,58 L65,58 L65,63 Z M68,72 L53,72 L53,73.504611 C53,73.7782068 52.7680664,74 52.5,74 C52.2238576,74 52,73.7842474 52,73.504611 L52,72 L50.9987461,72 C50.4471539,72 50,71.5510798 50,70.992516 L50,48.007484 C50,47.4510659 50.4386148,47 50.9987461,47 L70.0012539,47 C70.5528461,47 71,47.4489202 71,48.007484 L71,70.992516 C71,71.5489341 70.5613852,72 70.0012539,72 L69,72 L69,73.504611 C69,73.7782068 68.7680664,74 68.5,74 C68.2238576,74 68,73.7842474 68,73.504611 L68,72 Z M62.5,66 C62.7761424,66 63,66.2157526 63,66.495389 L63,68.504611 C63,68.7782068 62.7680664,69 62.5,69 C62.2238576,69 62,68.7842474 62,68.504611 L62,66.495389 C62,66.2217932 62.2319336,66 62.5,66 Z M58.5,66 C58.7761424,66 59,66.2157526 59,66.495389 L59,68.504611 C59,68.7782068 58.7680664,69 58.5,69 C58.2238576,69 58,68.7842474 58,68.504611 L58,66.495389 C58,66.2217932 58.2319336,66 58.5,66 Z M51.549805,58.0097535 C51.8188698,57.947635 52.0853193,58.1066153 52.1489479,58.3822208 L53.0497874,62.2841855 C53.11162,62.5520121 52.9357561,62.8213021 52.6745603,62.8816039 C52.4054954,62.9437224 52.1390459,62.7847421 52.0754174,62.5091366 L51.1745778,58.6071719 C51.1127452,58.3393454 51.2886091,58.0700554 51.549805,58.0097535 Z M52.6976175,58.1943963 C52.9498861,58.0820791 53.241775,58.1872976 53.3568225,58.4456985 L54.9856411,62.1040848 C55.0974414,62.3551924 54.9761915,62.6530912 54.7313007,62.7621236 C54.4790321,62.8744409 54.1871431,62.7692224 54.0720956,62.5108215 L52.4432771,58.8524351 C52.3314768,58.6013276 52.4527266,58.3034288 52.6976175,58.1943963 Z M54.0706272,58.5767474 C54.2995596,58.4223306 54.6052851,58.4752645 54.7634556,58.7097619 L57.0028009,62.0297278 C57.156507,62.2576066 57.0888288,62.5720344 56.8665917,62.7219353 C56.6376593,62.8763521 56.3319338,62.8234182 56.1737633,62.5889207 L53.934418,59.2689549 C53.7807119,59.0410761 53.8483901,58.7266482 54.0706272,58.5767474 Z M51.549805,50.0097535 C51.8188698,49.947635 52.0853193,50.1066153 52.1489479,50.3822208 L53.0497874,54.2841855 C53.11162,54.5520121 52.9357561,54.8213021 52.6745603,54.8816039 C52.4054954,54.9437224 52.1390459,54.7847421 52.0754174,54.5091366 L51.1745778,50.6071719 C51.1127452,50.3393454 51.2886091,50.0700554 51.549805,50.0097535 Z M52.6976175,50.1943963 C52.9498861,50.0820791 53.241775,50.1872976 53.3568225,50.4456985 L54.9856411,54.1040848 C55.0974414,54.3551924 54.9761915,54.6530912 54.7313007,54.7621236 C54.4790321,54.8744409 54.1871431,54.7692224 54.0720956,54.5108215 L52.4432771,50.8524351 C52.3314768,50.6013276 52.4527266,50.3034288 52.6976175,50.1943963 Z" sketch:type="MSShapeGroup"/><rect sketch:type="MSShapeGroup" x="60" y="64" width="1" height="7"/></g></g><text x="0" y="45" fill="#000000" font-size="5px" font-weight="bold" font-family="'Helvetica Neue', Helvetica, Arial-Unicode, Arial, Sans-serif">Created by Pham Thi Dieu Linh</text><text x="0" y="50" fill="#000000" font-size="5px" font-weight="bold" font-family="'Helvetica Neue', Helvetica, Arial-Unicode, Arial, Sans-serif">from the Noun Project</text></svg>