<svg xmlns="http://www.w3.org/2000/svg" xmlns:xlink="http://www.w3.org/1999/xlink" version="1.1" x="0px" y="0px" viewBox="0 0 100 125" enable-background="new 0 0 100 100" xml:space="preserve"><path d="M93.174,8.462V5H18.829C11.187,5,5,11.205,5,18.846c0,7.65,6.187,13.846,13.829,13.846h74.345v-3.462   h-2.285c-1.281-3.34-1.93-6.862-1.93-10.385s0.649-7.044,1.93-10.385H93.174z M87.212,29.231H18.829   c-2.864,0-5.452-1.16-7.33-3.038c-1.878-1.887-3.037-4.474-3.037-7.347s1.16-5.461,3.037-7.338c1.878-1.887,4.465-3.046,7.33-3.046   h68.383c-1.134,3.366-1.714,6.88-1.714,10.385C85.498,22.36,86.078,25.864,87.212,29.231z"/><path d="M81.162,36.154H6.826v3.462h2.285c1.272,3.34,1.921,6.862,1.921,10.385s-0.649,7.044-1.921,10.385H6.826   v3.462h74.337C88.804,63.846,95,57.65,95,50C95,42.359,88.804,36.154,81.162,36.154z M88.501,57.347   c-1.887,1.878-4.465,3.038-7.339,3.038H12.78c1.134-3.366,1.713-6.871,1.713-10.385c0-3.505-0.58-7.018-1.713-10.385h68.383   c2.873,0,5.452,1.16,7.339,3.046c1.878,1.878,3.038,4.465,3.038,7.338S90.379,55.461,88.501,57.347z"/><path fill="hsl(289, 92%, 67%)" d="M93.269,70.769v-3.462H18.924c-7.641,0-13.829,6.205-13.829,13.846C5.095,88.804,11.283,95,18.924,95   h74.345v-3.462h-2.285c-1.281-3.34-1.93-6.862-1.93-10.385c0-3.522,0.649-7.044,1.93-10.385H93.269z M87.307,91.538H18.924   c-2.864,0-5.452-1.16-7.33-3.038c-1.887-1.887-3.038-4.474-3.038-7.347s1.151-5.461,3.038-7.338   c1.878-1.887,4.465-3.046,7.33-3.046h68.383c-1.134,3.366-1.713,6.88-1.713,10.385C85.593,84.667,86.173,88.172,87.307,91.538z"/></svg>