<svg xmlns="http://www.w3.org/2000/svg" x="0px" y="0px" viewBox="0 0 100 125"><rect x="13.893" y="33.552" width="13.158" height="6.579"/><rect x="40.209" y="20.394" width="13.158" height="6.579"/><path d="M94.768,75.907l-6.539-47.636c-0.697-4.378-4.338-7.487-8.673-7.487c-0.462,0-0.928,0.039-1.386,0.111   l-12.994,2.069c-1.09,0.176-2.111,0.559-3.037,1.099v-3.669c0-4.838-3.935-8.772-8.772-8.772H40.209   c-4.837,0-8.772,3.934-8.772,8.772v5.607c-1.296-0.756-2.781-1.221-4.386-1.221H13.893c-4.837,0-8.772,3.934-8.772,8.772v46.054   c0,4.838,3.935,8.772,8.772,8.772h13.158c2.632,0,4.97-1.189,6.579-3.03c1.609,1.842,3.947,3.03,6.579,3.03h13.158   c4.837,0,8.772-3.934,8.772-8.772v-15.67l2.294,16.707c0.698,4.378,4.339,7.487,8.673,7.487c0.461,0,0.927-0.036,1.386-0.111   l12.994-2.069c2.311-0.368,4.344-1.615,5.72-3.515C94.582,80.54,95.137,78.22,94.768,75.907z M27.051,83.992H13.893   c-2.422,0-4.386-1.964-4.386-4.386V33.552c0-2.422,1.964-4.386,4.386-4.386h13.158c2.422,0,4.386,1.964,4.386,4.386v46.054   C31.437,82.028,29.473,83.992,27.051,83.992z M57.753,79.606c0,2.422-1.964,4.386-4.386,4.386H40.209   c-2.422,0-4.386-1.964-4.386-4.386V33.552V20.394c0-2.422,1.964-4.386,4.386-4.386h13.158c2.422,0,4.386,1.964,4.386,4.386V79.606z    M86.795,81.617l-12.994,2.071c-0.234,0.036-0.466,0.056-0.695,0.056c-2.118,0-3.982-1.538-4.327-3.699l-6.553-47.728   c-0.381-2.39,1.25-4.639,3.642-5.02l12.994-2.071c0.233-0.036,0.466-0.056,0.695-0.056c2.118,0,3.983,1.54,4.327,3.699   l6.553,47.728C90.817,78.987,89.187,81.238,86.795,81.617z"/><rect x="66.782" y="29.441" transform="matrix(0.9876 -0.1569 0.1569 0.9876 -4.2259 11.9119)" width="13.158" height="6.58"/></svg>