<?xml version="1.0" standalone="no"?>
<!DOCTYPE svg PUBLIC "-//W3C//DTD SVG 20010904//EN"
 "http://www.w3.org/TR/2001/REC-SVG-20010904/DTD/svg10.dtd">
<svg version="1.0" xmlns="http://www.w3.org/2000/svg"
 width="16.000000pt" height="16.000000pt" viewBox="0 0 16.000000 16.000000"
 preserveAspectRatio="xMidYMid meet">
<metadata>
Created by potrace 1.11, written by Peter Selinger 2001-2013
</metadata>
<g transform="translate(0.000000,16.000000) scale(0.006154,-0.006154)"
fill="#000000" stroke="none">
<path d="M1169 2596 c-2 -2 -24 -6 -49 -10 -339 -44 -660 -235 -866 -517 -176
-240 -256 -498 -249 -799 2 -80 6 -156 9 -170 4 -14 9 -38 12 -55 9 -54 25
-120 34 -140 4 -11 23 -57 40 -103 58 -148 171 -314 298 -437 67 -64 211 -175
229 -175 6 0 13 -4 15 -8 5 -13 169 -90 248 -116 144 -47 233 -61 410 -60 134
0 184 4 268 23 282 62 520 201 707 414 164 186 268 408 309 658 13 80 15 323
3 394 -97 570 -525 997 -1092 1091 -39 7 -320 15 -326 10z m201 -453 c0 -2 23
-39 52 -81 214 -318 482 -569 773 -722 l76 -40 -31 -18 c-38 -20 -264 -168
-288 -187 -9 -7 -46 -37 -82 -65 -194 -156 -409 -412 -530 -633 l-42 -78 -65
108 c-73 122 -141 217 -223 313 -74 87 -240 253 -320 320 -65 53 -274 195
-308 207 -9 4 -27 13 -40 21 -22 15 -21 16 54 58 189 108 328 216 505 393 166
167 244 270 344 454 l47 88 39 -67 c22 -36 39 -68 39 -71z"/>
<path d="M1260 1842 c-97 -184 -287 -376 -494 -499 l-68 -41 72 -42 c92 -54
168 -115 254 -204 80 -83 201 -241 241 -315 l29 -52 36 70 c51 97 108 171 209
271 91 90 198 174 294 231 31 18 57 36 57 39 0 3 -30 21 -67 40 -169 87 -373
294 -486 492 l-43 75 -34 -65z"/>
</g>
</svg>
