<svg xmlns="http://www.w3.org/2000/svg" xmlns:xlink="http://www.w3.org/1999/xlink" version="1.1" x="0px" y="0px" viewBox="0 0 100 125" style="enable-background:new 0 0 100 100;" xml:space="preserve"><path d="M90,83.9L70.4,64.3c10.5-13.5,9.3-33.3-2.8-45.4C61.1,12.3,52.4,8.8,43.2,8.8s-17.9,3.6-24.4,10.1  C12.3,25.3,8.8,34,8.8,43.2s3.6,17.9,10.1,24.4c6.4,6.4,15.1,10,24.3,10c7.6,0,15.1-2.5,21.2-7.2L83.9,90c0.8,0.8,1.9,1.3,3,1.3  s2.2-0.5,3-1.3C91.7,88.2,91.7,85.6,90,83.9z M68.8,43.1c0,6.9-2.7,13.4-7.5,18.2c-4.8,4.9-11.3,7.6-18.2,7.6  c-6.9,0-13.4-2.7-18.2-7.6l0,0c-10-10-10-26.3,0-36.4c4.9-4.9,11.3-7.6,18.2-7.6c6.8,0,13.3,2.7,18.2,7.6  C66.1,29.7,68.8,36.2,68.8,43.1z"/></svg>