<svg xmlns="http://www.w3.org/2000/svg" x="0px" y="0px" viewBox="0 0 100 125" ><path d="M89,19H48c-1.104,0-2,0.896-2,2s0.896,2,2,2h41c1.104,0,2-0.896,2-2S90.104,19,89,19z"/><path d="M11,23h9.202c0.929,4.559,4.969,8,9.798,8c5.514,0,10-4.486,10-10s-4.486-10-10-10  c-4.829,0-8.869,3.441-9.798,8H11c-1.104,0-2,0.896-2,2S9.896,23,11,23z M30,15c3.309,0,6,2.691,6,6s-2.691,6-6,6s-6-2.691-6-6  S26.691,15,30,15z"/><path d="M89,48H77c-1.104,0-2,0.896-2,2s0.896,2,2,2h12c1.104,0,2-0.896,2-2S90.104,48,89,48z"/><path d="M11,52h39.202c0.929,4.559,4.969,8,9.798,8c5.514,0,10-4.486,10-10s-4.486-10-10-10  c-4.829,0-8.869,3.441-9.798,8H11c-1.104,0-2,0.896-2,2S9.896,52,11,52z M60,44c3.309,0,6,2.691,6,6s-2.691,6-6,6s-6-2.691-6-6  S56.691,44,60,44z"/><path d="M89,74H56c-1.104,0-2,0.896-2,2s0.896,2,2,2h33c1.104,0,2-0.896,2-2S90.104,74,89,74z"/><path d="M11,78h18.202c0.929,4.559,4.969,8,9.798,8c5.514,0,10-4.486,10-10s-4.486-10-10-10  c-4.829,0-8.869,3.441-9.798,8H11c-1.104,0-2,0.896-2,2S9.896,78,11,78z M39,70c3.309,0,6,2.691,6,6s-2.691,6-6,6s-6-2.691-6-6  S35.691,70,39,70z"/></svg>